<svg xmlns="http://www.w3.org/2000/svg" viewBox="0 0 1514.77 2005"><defs><style>.cls-1{fill:#1b1464;opacity:0.54;}.cls-1,.cls-13,.cls-15,.cls-16,.cls-17,.cls-18,.cls-2,.cls-3,.cls-5,.cls-6{stroke:#000;}.cls-1,.cls-10,.cls-13,.cls-15,.cls-16,.cls-17,.cls-18,.cls-2,.cls-3,.cls-5,.cls-6,.cls-9{stroke-miterlimit:10;}.cls-1,.cls-10,.cls-15,.cls-16,.cls-17,.cls-18,.cls-2,.cls-3,.cls-5,.cls-6{stroke-width:5px;}.cls-10,.cls-12,.cls-13,.cls-2,.cls-3,.cls-9{fill:none;}.cls-10,.cls-3,.cls-5,.cls-9{stroke-linecap:round;}.cls-4{fill:#fff;}.cls-11,.cls-16,.cls-5{fill:#efcaa6;}.cls-6{fill:#461a00;}.cls-7{fill:#e6b7af;}.cls-8{fill:#3fa9f5;}.cls-10,.cls-9{stroke:#461a00;}.cls-9{stroke-width:20px;}.cls-13{stroke-width:2px;}.cls-14,.cls-18{fill:#202532;}.cls-15{fill:#89cce5;}.cls-17{fill:#f4912d;}</style></defs><title>Asset 10</title><g id="Layer_2" data-name="Layer 2"><g id="_2" data-name="2"><ellipse class="cls-1" cx="700.61" cy="324.95" rx="250.24" ry="259.79" transform="translate(253.03 954.34) rotate(-79.46)"/><ellipse class="cls-2" cx="700.61" cy="324.95" rx="250.24" ry="259.79" transform="translate(253.03 954.34) rotate(-79.46)"/><path class="cls-3" d="M635.39,566.5c12.11-2.69,31-8.11,51-7,20.92,1.16,39,8.77,51,13"/><path class="cls-4" d="M840.82,174.93c7.73,0,7.74-12,0-12s-7.73,12,0,12Z"/><path class="cls-4" d="M861.79,201.72a147.42,147.42,0,0,1,36.14,66.33c1.85,7.49,13.42,4.32,11.57-3.19a159.68,159.68,0,0,0-39.23-71.62c-5.32-5.62-13.8,2.88-8.48,8.48Z"/><rect class="cls-2" x="2.5" y="2.5" width="1509.77" height="2000"/><path class="cls-5" d="M663.1,591.37a196.86,196.86,0,0,0,8.39-45.22q.45-6.72.45-13.56c0-50.09-18.47-95.57-48.55-129.08a176.43,176.43,0,0,0-44.65-36,59.22,59.22,0,0,1-3.56-20.3V225.15c0-31.09,23.8-56.52,52.88-56.52H777.69c29.08,0,52.88,25.43,52.88,56.52V334.41a84.28,84.28,0,0,1,25.91,61.41c0,33.78-19.12,62.78-46.42,75.32q-2.2.9-4.38,1.84c-33.77,14.79-62.22,40.57-81.48,73.17a191.34,191.34,0,0,0-19.37,45.22"/><path class="cls-6" d="M830.57,225.15v13c0,25.43-26.4,46.38-36,43.51a71.73,71.73,0,0,0-16.39-27.12,66.29,66.29,0,0,0-10.9-9,64.41,64.41,0,0,0-9.19-5.08C743.24,265,737.51,269.8,737.51,269.8c-7.56,6.34-24.32,14.69-24.32,14.69s-4.51-15.68-9.52-23.17c-4.7-7-11.63-10.26-16.39-11.87-21.92,21.8-24.78,24.8-31.2,27.69-15,6.8-33.81,5.87-33.84,5.66h0c.36-.37-3.47-10.09-14.27-35.6a176.82,176.82,0,0,0-3.7,87l-29.09,3.25V225.15c0-31.09,23.8-56.52,52.88-56.52H777.69C806.77,168.63,830.57,194.06,830.57,225.15Z"/><path d="M779.41,348.54a15.07,15.07,0,0,1,6.92,6.45,17.77,17.77,0,0,1,2.18,9.67,19.43,19.43,0,0,1-1,5,19.66,19.66,0,0,1-2.42,4.6,19.33,19.33,0,0,1-3.7,3.75,18.86,18.86,0,0,1-4.73,2.47,18.66,18.66,0,0,1-5.29.82,18,18,0,0,1-5.25-.94,17.67,17.67,0,0,1-4.63-2.54,18.31,18.31,0,0,1-3.54-3.77c-4-5.67-4-13.4-.48-18.58a18,18,0,0,0,3.59,16.18,17.61,17.61,0,0,0,3,2.6,15.3,15.3,0,0,0,3.52,1.61,14.2,14.2,0,0,0,3.77.5,13.81,13.81,0,0,0,3.73-.63,14.7,14.7,0,0,0,9.53-11.54A17.3,17.3,0,0,0,779.41,348.54Z"/><ellipse class="cls-4" cx="713.19" cy="339.31" rx="25.91" ry="27.69"/><path class="cls-7" d="M737.18,349.78C733.32,359.89,724,367,713.19,367A25.61,25.61,0,0,1,691,353.64c7.21-6.55,18.63-10,31-8.49A45.4,45.4,0,0,1,737.18,349.78Z"/><ellipse class="cls-8" cx="713.19" cy="339.31" rx="4.76" ry="5.09"/><path class="cls-4" d="M850.66,330.27a29.19,29.19,0,0,1-1.92,10.47,45.34,45.34,0,0,0-15.18-4.64c-12.36-1.53-23.77,1.95-31,8.5a29,29,0,0,1-3.74-14.33c0-15.3,11.6-27.7,25.91-27.7S850.66,315,850.66,330.27Z"/><path class="cls-7" d="M848.74,340.74c-3.86,10.1-13.15,17.22-24,17.22a25.59,25.59,0,0,1-22.17-13.36c7.21-6.55,18.62-10,31-8.5A45.34,45.34,0,0,1,848.74,340.74Z"/><ellipse class="cls-8" cx="824.75" cy="330.27" rx="4.76" ry="5.09"/><path class="cls-9" d="M676.7,316.14c22.41-5.3,36.83-15.26,36.49-24.3"/><path class="cls-9" d="M830.57,302.93c-15.31-5.56-24.58-13.42-24.31-20.7"/><line class="cls-10" x1="759.19" y1="383.96" x2="754.96" y2="391.3"/><line class="cls-10" x1="766.3" y1="385.02" x2="765.82" y2="393.63"/><line class="cls-10" x1="773.92" y1="385.06" x2="775.12" y2="393.59"/><line class="cls-10" x1="783.65" y1="383.9" x2="784.43" y2="392.49"/><line class="cls-10" x1="791.76" y1="381.28" x2="796.41" y2="388.33"/><path class="cls-7" d="M790.38,404.87c16.71-3.61,69.19-19.08,70.9,1.3a13.94,13.94,0,0,1,0,2.65c-1.15,10.57-38.4,15.23-65.57,22.61-33.31,9-63.08,29.8-70.85,16.95a16.7,16.7,0,0,1-1-1.91C714.21,424.79,767.38,409.83,790.38,404.87Z"/><path class="cls-7" d="M861.24,403.17a389.18,389.18,0,0,0-71.12,15,397,397,0,0,0-66.36,27.41"/><path d="M861.24,403.17c-11.89,2.2-23.68,4.55-35.37,7.31-5.84,1.41-11.67,2.82-17.46,4.43s-11.56,3.21-17.28,5-11.43,3.63-17.09,5.61-11.3,4.06-16.92,6.17c-11.21,4.31-22.29,9-33.36,13.85a268.71,268.71,0,0,1,32.17-16.73c5.53-2.48,11.16-4.7,16.82-6.85s11.43-4.05,17.2-5.87,11.64-3.4,17.52-4.85,11.8-2.76,17.76-3.82A264.4,264.4,0,0,1,861.24,403.17Z"/><path class="cls-11" d="M591.58,371.41a22,22,0,0,1-16.4,7.46c-12.55,0-22.73-10.88-22.73-24.3s10.18-24.3,22.73-24.3a22,22,0,0,1,16.4,7.46"/><path d="M591.58,371.41a21.42,21.42,0,0,1-11.49,8.14,23.17,23.17,0,0,1-3.62.71,30.53,30.53,0,0,1-3.71.11,24.37,24.37,0,0,1-7.3-1.68,24.74,24.74,0,0,1-6.43-3.95,26.09,26.09,0,0,1-4.94-5.74,27.54,27.54,0,0,1-3.09-6.92,27.38,27.38,0,0,1,0-15,27.45,27.45,0,0,1,3.09-6.93,26.24,26.24,0,0,1,4.93-5.74,25,25,0,0,1,6.44-3.95,24.3,24.3,0,0,1,7.3-1.68,30.53,30.53,0,0,1,3.71.11,23.17,23.17,0,0,1,3.62.71,21.4,21.4,0,0,1,11.49,8.15,23.42,23.42,0,0,0-12-5.76,25.38,25.38,0,0,0-3.25-.24,28.57,28.57,0,0,0-3.21.29,22.92,22.92,0,0,0-6,2,24,24,0,0,0-5.09,3.67,23.51,23.51,0,0,0-3.84,4.93,24.16,24.16,0,0,0-3.19,12,25.41,25.41,0,0,0,.81,6.2,23.26,23.26,0,0,0,2.38,5.77,23,23,0,0,0,3.84,4.94,23.77,23.77,0,0,0,5.09,3.68,23.17,23.17,0,0,0,6,2,31.11,31.11,0,0,0,3.21.28,23.69,23.69,0,0,0,3.25-.24A23.34,23.34,0,0,0,591.58,371.41Z"/><path class="cls-11" d="M572,359.65a10.79,10.79,0,0,0,4.76-3.95,12,12,0,0,0,1.85-4.81"/><path d="M572,359.65a28.72,28.72,0,0,1,1.24-3,13,13,0,0,1,1.2-2,11.46,11.46,0,0,1,1.59-1.74,21.44,21.44,0,0,1,2.58-2,5,5,0,0,1,1.06,3.51,6.25,6.25,0,0,1-4,5.33A4.82,4.82,0,0,1,572,359.65Z"/><path d="M566.46,349.76a9,9,0,0,1,5.64-2.35,11.82,11.82,0,0,1,6.16,1.31,12,12,0,0,1,4.62,4.2,9.51,9.51,0,0,1,1.56,5.89c-1.7-1.23-3.07-2.29-4.45-3.22a39.57,39.57,0,0,0-4-2.43,33.23,33.23,0,0,0-4.28-1.85C570.14,350.76,568.48,350.31,566.46,349.76Z"/><rect class="cls-12" x="431.89" y="105" width="550" height="550"/><path class="cls-13" d="M594.11,594.87q-2.62.78-5.23,1.64Q591.46,595.57,594.11,594.87Z"/><path class="cls-13" d="M586.43,946.6q.44,4,.72,8Z"/><path class="cls-13" d="M638.27,1204.94c59.88-6.81,120.28-11.85,179.89-20a56.21,56.21,0,0,0,6.82-1.53"/><path class="cls-13" d="M596,594.32l-1.85.55"/><path class="cls-13" d="M746.25,580.69l-.79.35"/><path class="cls-14" d="M596.1,1453.64c-4.83,30.16-12.61,59.51-19.32,89.22.76,31.3,2.84,61.68,5.93,93.09,2.69,27.26,4.89,55.58,4.5,83.23-11.62,4.24-23.2,8.41-34.93,12.36-6.94-26.43-15.73-53.92-22.2-80.17-9.05-36.71-10.55-72.29-7.58-109.45-.51-36,1.21-70.31,2.68-106.59,4-99.27,31.47-199.28,68.75-291.31,8-22,21.08-33.77,44.51-26.5s34.38,23.63,28.31,47.18C641.94,1260.86,611.79,1355.63,596.1,1453.64Z"/><path class="cls-15" d="M587.18,1719.33c5.53,9.4,9.44,18.66,11.43,29.47,1.74,9.44,1.16,18.77-.4,28.24-13,8.73-28.54,16.36-40.49,26.11-33,27-59,61.12-94.48,84.71-9.86-8.93-10.11-26.18-12.31-36.91-3.12-15.18,22-40.71,26.3-44.28,22.64-18.79,34.33-30.79,52.37-48.94,8.29-8.35,15.09-17,22.79-26Q569.7,1725.44,587.18,1719.33Z"/><path class="cls-14" d="M838.31,1322.85a1069,1069,0,0,1-9.18,161.3c.16,42.15-2.33,84-8.55,125.66-5.13,34.26-13.67,67.79-22,101.39-13.47,2.23-26.82,4.55-40.3,6.64,3.07-37.39,4.89-74.91,8.44-112.26,3.78-39.78,6-79.63,9.55-119.52-5.25-40.85-10.92-83.07-15.7-123.73C751.43,1284.14,742.3,1206.64,741,1128a5,5,0,0,1,0-1c4.48-23.7,11.85-36.83,37.79-37.53s33.13,12.23,37.78,35.53C827.67,1190.85,836.93,1255.87,838.31,1322.85Z"/><path class="cls-15" d="M758.35,1717.75c-3.86,8-4.67,14.38-6.3,23.52-1.42,8-.33,18,2.68,26.1,12,8.26,26.2,17.43,37.25,26.34,30.51,24.63,62.39,45.3,96.37,64.08,9.31-7.22,9.23-18.19,10.89-28.2,2.35-14.18-23.08-36.44-27.57-39.47-23.62-16-31.73-22.76-48.74-42.21-7.82-9-16.27-26-24.27-36.44C785.1,1713.16,771.83,1716,758.35,1717.75Z"/><path class="cls-16" d="M569.12,724.54C548.2,771.22,511.1,807,477,842.91c-24.4,25.66-43.48,50.93-70.24,72.73-6.5,5.29-10,10-12,17.89-9.61,37.76-20.34,75.34-33,112.14-11.35,33-23.8,65.53-37.62,97.58-1,2.24-.61,4.07.54,6.27.7,1.36,1.86,2.71,2.65,4.3,3.77,4,8.22,13,10.42,17.15,3.84,7.2,13.83,27.49,8.67,32.13s-14.35-20.61-16.67-23.5c-1.14.82-1.82,2.46-2.77,3.83.29,2.17.62,8.32.58,10-.2,6.64,2.14,36.61-4.27,36.87s-6.66-30.27-6.75-36.2c0-.4,0-2.54,0-3-1.65.52-3.3,1-5,1.55.07,1.23-.13,5.2-.2,6.26-.47,7-2.1,40.75-8.84,40.61s-2.3-34.56-2.18-41.1c0-.93.35-4.8.48-5.9-1.69-.63-3.33-1.2-5-1.68-.25,1.16-1.3,5.17-1.61,6.07-2,5.87-9.06,36.89-15.21,34.83s2.82-31.4,4.7-38c.48-1.69,2.27-7.52,3.13-9.54-1.1-1.75-2.35-3.24-3.33-4.9,0,0-.38,1-.43,1.13-1.87,5.43-13.32,36-19.19,33.24s6.7-30.63,9.1-38c1.55-4.74,5.89-14.7,9.46-19.41a11.78,11.78,0,0,0,1-2,7.63,7.63,0,0,0,.8-3.24c3.25-42.52,9.61-85.38,22.7-125.85,13.81-42.71,33.14-82.64,58.73-119.09a39.18,39.18,0,0,0,5-9.06c21.06-49.34,59.05-87.5,92.33-128.61C485.9,740.26,507.36,712,531,684.58c-.1.21,0-.19.06-.22,4.11-24.4,15.36-39.26,41.58-36.89,22.11,2,33.57,13.57,34.88,35.88C609.05,709.8,594.26,721,569.12,724.54Z"/><path class="cls-16" d="M811.32,654.38c38.2,35.64,64,83.21,90.22,126.92,18.72,31.26,38.14,57.78,51.32,90.52,3.21,7.95,6.75,12.3,13,15.82,30,16.75,60.61,33.45,86.4,55.11,23.14,19.44,41.11,41.12,57.61,65.9,1.15,1.74,2.67,2.29,4.94,2.23a40.12,40.12,0,0,1,4.69,0c5.15-1,14.65-.24,19.16,0,7.85.35,30.48,1.49,31.7,8.22s-25.06,2.27-28.8,2.78c.11,1.32,1.14,2.66,1.81,4.09a98.27,98.27,0,0,1,8.88,4.34c5.49,3.49,32.67,16.59,29.5,22.13s-29.42-9.5-34.63-12.53c-.35-.2-2.21-1.24-2.54-1.5-.4,1.64-.9,3.25-1.25,5,1.09.56,4.41,2.76,5.27,3.35,5.7,3.89,34,22.34,30.33,28s-30.86-15.51-36.45-19c-.8-.49-3.94-2.73-4.83-3.41-1.41,1.11-2.75,2.2-4,3.39.87.8,3.77,3.73,4.38,4.44,4,4.61,27,26.45,22,30.59s-25.48-18.28-30.22-23.29c-1.22-1.28-5.23-5.75-6.48-7.56-2.06,0-4,.35-5.88.38,0,0,.67.83.75.93,3.55,4.3,23.85,29.72,18.43,33.2s-22.66-21-27.68-26.78c-3.25-3.74-9.15-12.4-11-17.88a11.06,11.06,0,0,0-1.08-1.87,5.77,5.77,0,0,0-2-2.09c-27.88-19.76-55.15-38.7-82.19-60.06-28.53-22.55-58.29-46.81-80.09-76.69a34.14,34.14,0,0,0-7.07-7.38c-42.9-35.74-70.12-86.12-101.93-131.11-21.85-30.9-42.66-60.09-61.69-92.43,0-.08-.19-.13-.22-.15-22.27-11.87-31.86-27.34-21.41-51.57,8.82-20.44,23.24-27.8,44.82-21.75C810.68,611.75,815.7,629.63,811.32,654.38Z"/><path class="cls-14" d="M822.5,1113.25c-5.78,77.15-56.76,132.37-136.07,129.08s-128.66-60-132.45-136.79c-.19-3.94,1.16-7.73,1-11.53,88.84-4.23,177.75-5.13,266.5-10.79C822.58,1093.43,823.29,1102.73,822.5,1113.25Z"/><path class="cls-17" d="M833.36,1101.75c-.26,21.4-6.72,46.24-16.19,66.52l-.23.44c-4.84,8.18-12.41,13.35-20.38,17.62-1.85,1-9.46,1.39-11.66,1.65-43.63,5.15-120.45,7.76-154.7,10.42s-17,1.39-26.09,2c-28.29,1.8-16.55-2.25-35.58-9.14-4.56-1.65-4-3.85-4.94-5-16.45-20.47-24.38-41.44-28.81-66.48.24-21.86,1.57-43.8,6.92-65,5.7-22.62,15.73-41.06,22.13-64.31,2.92-10.63,5-27.61,5.13-39.72,0,0,0-.33,0-.38,0-2.65-.16-5.42-.17-8.07-.21-54.32,3.72-108.65,5.8-162.9-4.26,3.89-7.86,8.61-11.36,13.08-6.52,8.32-14,15.43-21,23.22-7.79-16.65-15-33.15-26.77-47.47A170.17,170.17,0,0,0,465.16,727c20.51-24.5,34.11-49.2,52.19-76.82,8.93-13.64,25.24-31.53,40.31-42.26,9.77-6.95,22.59-13.29,34.06-17.5,2-.76,3.82-1.25,5.78-1.88a1.72,1.72,0,0,1,1.06-.13c24.93,17.49,48.32,37.22,72.5,55.62,6.82,5.19,10.43,4.74,17.31-1.26,23.29-20.3,48.18-40.73,79.76-46.71a13.91,13.91,0,0,1,2.91,1.08c.17,0,.41.32.61.38,24.31,8,48,24.49,64.51,42.52,18.42,20.17,34,35.69,53.23,53.69-11.75,17.06-21.1,35.84-36.84,49.63-14.94,13.1-29.37,25-47.91,32.17a116.9,116.9,0,0,0-26.24-24.67c-.73,9-2.69,13.41-2.67,25.26-7.84,37.15,16.06,107.73,20.16,135.69s2.42,17.29,3.05,22a291.65,291.65,0,0,0,7.49,37.5c7.41,28.64,18,48.58,22.93,75.49C833,1066.26,833.61,1080.73,833.36,1101.75Z"/><path class="cls-18" d="M769.38,595.58c-13.44,3.14,16.57-3.92-8.1,1.79s-56.06,24.53-72.64,46.34a10,10,0,0,1-1.42.61c-5.9,3.64-11.23,3.09-16.36.46,0,0,3.89,3.29-8.09-7.17S618.54,600.82,600.4,590c.36-3.67,2.53-2.33,5.41-2.68,9.69-1.17,20.46-1.44,30.16-3.11,3.84,3-6-4.76,3.66,3s22.9,20.92,34,29.22c6.28,4.72,12.77,4.28,18.9-1.38,10-9.24,25.29-22.29,36-28.72s.06,0,4.07-2.44C744.86,587.34,756.88,591.36,769.38,595.58Z"/><path class="cls-16" d="M731.56,584.44c-14,8.06-26.76,20.45-38.85,30.22-7.41,6-11.79,6.59-19.2,1.41-13-9.11-23.93-21.51-36.67-31.13C668.52,581.76,700,578.48,731.56,584.44Z"/><path class="cls-5" d="M663.21,591.85a226.56,226.56,0,0,0,8.5-45.35c.36-4.42.54-9.24.51-13.58-.27-47.58-16.63-93.33-48-129-13.48-15.33-27.68-25.62-44.6-36.33-1.78-7.18-3.74-12.27-3.48-20.85,1.1-36.67-.82-85.18,1.07-119.46,1.93-34.93,19-56.31,54-57.17,45.06-1.09,102.28-.59,147.39.82,35.06,1.1,51.68,23.28,53.51,57.72,1.6,30.26-1,74.19.06,106.94,15.83,17.85,25.57,38.1,25.22,61.79-.47,32.72-17.54,60.31-46.57,74.94-1.53.77-3,1.14-4.45,1.81a183.27,183.27,0,0,0-81.91,72.76c-8.44,13.87-14.64,29.52-19.63,45"/><path class="cls-6" d="M832.83,225.48a86.77,86.77,0,0,1-.3,12.66c-1.9,18.86-14.79,43.33-36,43.54a79.38,79.38,0,0,0-16.39-27.21,66.65,66.65,0,0,0-10.69-9,57.92,57.92,0,0,0-9.34-5.18c-5.5,9.4-12.44,22.46-20.45,28.84-8.81,7-15.6,9.94-24.74,14.87-2.47-7.84-5-16.32-9.47-23.06-4.24-6.32-9.28-9.39-16.6-12-4.77,7.33-25,24-29.76,26.66-11.24,6.17-27.92,6.35-33.44,6.17s-1.26.09-1.3-.09c-2.69-11.72-9.76-24.82-14.62-35.58-4.27,15.5-7,30.62-7.54,46.81a193.9,193.9,0,0,0,3.43,40c-9.79.72-19.23,2.64-29.29,2.56,1.32-33.71-.81-78.59,1.1-109.92,2.11-34.69,18.91-56.07,54.07-57.11,45.24-1.34,102,.1,147.5.55C814.34,169.44,829.44,195.89,832.83,225.48Z"/><path d="M773.31,344.63a18.66,18.66,0,0,1,9.17,1.89,14.87,14.87,0,0,1,4,3,13.41,13.41,0,0,1,1.6,2,20.79,20.79,0,0,1,1.25,2.13,21.91,21.91,0,0,1,1.76,4.68,19.33,19.33,0,0,1,.49,5.11,16.82,16.82,0,0,1-1.13,5.16,15.9,15.9,0,0,1-2.8,4.53,19.35,19.35,0,0,1-4,3.35,17.81,17.81,0,0,1-4.84,2,15.28,15.28,0,0,1-5.26.34,16.35,16.35,0,0,1-5-1.42,19.53,19.53,0,0,1-4.17-2.74,21.58,21.58,0,0,1-3.26-3.58c-.47-.66-.88-1.3-1.31-2a9.24,9.24,0,0,1-.9-2.29,22.29,22.29,0,0,1-.62-4.61,42.73,42.73,0,0,0,1.9,4.09,11.48,11.48,0,0,0,1.21,1.7c.47.49,1,1,1.55,1.5a24.2,24.2,0,0,0,3.39,2.57,19.65,19.65,0,0,0,3.69,1.74,14.51,14.51,0,0,0,3.81.66,12,12,0,0,0,3.72-.52,14.33,14.33,0,0,0,6.33-4.09,12,12,0,0,0,3-6.73,17.7,17.7,0,0,0-.09-3.91,20.77,20.77,0,0,0-1-3.94c-.24-.63-.51-1.31-.79-1.9a13,13,0,0,0-1-1.73,13.82,13.82,0,0,0-2.78-3A23.86,23.86,0,0,0,773.31,344.63Z"/><path class="cls-4" d="M740.17,338.85c-.07,14.75-10.52,27.1-25.66,27S689,353.3,689.1,338.55s10.52-27.1,25.67-27S740.25,324.1,740.17,338.85Z"/><path class="cls-8" d="M719.33,338.73a4.7,4.7,0,1,1-4.67-5A4.75,4.75,0,0,1,719.33,338.73Z"/><path class="cls-7" d="M740.29,343.66c-4.51,13.44-9.28,20.85-24.61,22.62-12.08,1.4-20.33-7.17-25.65-17.55,9.92-9.18,21-12.29,34.34-10.87C730.35,338.49,735.05,340.89,740.29,343.66Z"/><path class="cls-4" d="M852.27,330.45c.34,3.56-.92,7.15-1.87,10.44-4.87-2.16-9.9-4.13-15.18-4.62-11.78-1.1-21.62,1.1-31.12,8.21-2-4.45-4-9.27-3.51-14.32,1.39-14.73,10.1-27.07,26-27S850.9,315.74,852.27,330.45Z"/><path class="cls-8" d="M831.66,329.26a4.7,4.7,0,1,1-4.67-5A4.75,4.75,0,0,1,831.66,329.26Z"/><path class="cls-9" d="M676,312.61c13.13-3.57,33.61-8.32,36.66-24"/><path class="cls-9" d="M833.48,299.8c-9.72-4-22.58-9-24.25-20.8"/><path class="cls-10" d="M760.49,383.52l-4.27,7.3"/><path class="cls-10" d="M767.61,384.62c-.17,2.86-.35,5.72-.52,8.59"/><path class="cls-10" d="M775.24,384.7c.39,2.84.77,5.68,1.16,8.52"/><path class="cls-10" d="M785,383.6q.38,4.29.73,8.58"/><path class="cls-10" d="M793.12,381l4.62,7.07"/><path class="cls-7" d="M798.68,394.63c13.48-3,65.54-19.08,70.5,1.85a4.34,4.34,0,0,1,0,2.64c-4,12.05-53.8,19-65.43,22.15-14.26,3.89-61,27.92-71.25,16.47a4.32,4.32,0,0,1-1-1.91C725.18,410.49,780.12,398.7,798.68,394.63Z"/><path class="cls-7" d="M869.25,393.42A415.33,415.33,0,0,0,798,408a421.74,421.74,0,0,0-66.57,26.89"/><path d="M869.25,393.42c-11.87,2.27-23.7,4.55-35.42,7.21-5.85,1.37-11.7,2.73-17.5,4.28S804.74,408,799,409.8s-11.46,3.57-17.14,5.52-11.32,4-17,6.09c-11.25,4.24-22.38,8.83-33.53,13.51a288.86,288.86,0,0,1,32.36-16.41c5.54-2.44,11.19-4.63,16.87-6.76s11.45-4,17.24-5.78,11.67-3.32,17.56-4.72,11.83-2.65,17.81-3.66A293.14,293.14,0,0,1,869.25,393.42Z"/><path class="cls-11" d="M592.7,370.1c-4.78,4-9.75,7.65-16.51,7.08-13.19-1.12-22.31-10.7-22.25-24.19s9.28-23,22.48-23.92c6.77-.5,11.7,3.2,16.44,7.27"/><path d="M592.7,370.1a40.9,40.9,0,0,1-5.12,4.7,20.24,20.24,0,0,1-6.39,3.27,17.45,17.45,0,0,1-3.67.59,29.41,29.41,0,0,1-3.66-.14,18.12,18.12,0,0,1-1.8-.25,15.83,15.83,0,0,1-1.79-.38c-.59-.16-1.19-.31-1.77-.49l-1.74-.63a23.61,23.61,0,0,1-11.4-9.44,26.21,26.21,0,0,1-3-6.93,31.09,31.09,0,0,1-.94-7.41,31.62,31.62,0,0,1,1-7.41,26.27,26.27,0,0,1,3-6.9,25,25,0,0,1,5-5.62,24.32,24.32,0,0,1,6.48-3.7l1.74-.62c.59-.17,1.19-.31,1.78-.46a15.75,15.75,0,0,1,1.79-.36c.6-.09,1.2-.21,1.81-.24a29.53,29.53,0,0,1,3.66-.09,18.55,18.55,0,0,1,3.66.63,20.28,20.28,0,0,1,6.36,3.36,40.81,40.81,0,0,1,5.06,4.76c-3.8-2.55-7.72-5.13-12-5.72a16.58,16.58,0,0,0-3.14-.16,27.91,27.91,0,0,0-3.17.47,25.91,25.91,0,0,0-6.05,2,23.37,23.37,0,0,0-5.16,3.48,22.26,22.26,0,0,0-3.86,4.75,22.58,22.58,0,0,0-2.3,5.67,27.08,27.08,0,0,0-.78,6.17,27.6,27.6,0,0,0,.71,6.17,22.83,22.83,0,0,0,2.26,5.7,22,22,0,0,0,3.81,4.8,23.82,23.82,0,0,0,5.12,3.54,26.87,26.87,0,0,0,6,2.08,25.56,25.56,0,0,0,3.16.5,16.53,16.53,0,0,0,3.14-.11C584.93,375.15,588.87,372.61,592.7,370.1Z"/><path class="cls-11" d="M573.16,358.19a11.67,11.67,0,0,0,4.77-4,12.56,12.56,0,0,0,1.89-4.74"/><path d="M573.16,358.19a19.24,19.24,0,0,1,1.23-3,12.65,12.65,0,0,1,1.23-2,13.47,13.47,0,0,1,1.58-1.68,14.68,14.68,0,0,1,2.62-2,5.28,5.28,0,0,1,1,3.47,6.1,6.1,0,0,1-.38,1.72,6.18,6.18,0,0,1-.88,1.53,6.09,6.09,0,0,1-2.79,2A5.11,5.11,0,0,1,573.16,358.19Z"/><path d="M567.65,348.26A9.71,9.71,0,0,1,573.3,346,11.93,11.93,0,0,1,584,351.56a10.08,10.08,0,0,1,1.6,5.83c-1.75-1.14-3.14-2.25-4.51-3.18a34.84,34.84,0,0,0-4-2.43,32,32,0,0,0-4.25-1.85C571.33,349.37,569.63,348.93,567.65,348.26Z"/><path class="cls-7" d="M851.06,333.33c-4.52,13.44-9.29,20.85-24.61,22.62-12.09,1.4-20.34-7.17-25.66-17.55,9.92-9.18,21-12.29,34.35-10.87C841.11,328.16,845.82,330.55,851.06,333.33Z"/><path class="cls-12" d="M980.42,656.14c-182.61-.76-365.44-1.45-548.09-5.29,3.8-182.33.8-364.87,1.72-547.57q275.4,1.59,550.81,3.2C983.93,289.71,984.19,473,980.42,656.14Z"/><path class="cls-3" d="M635.39,566.5c5.64,4.17,26.94,9.85,52,10,25.67.16,44.42.13,50-4"/></g></g></svg>