<svg xmlns="http://www.w3.org/2000/svg" viewBox="0 0 1510 2000"><defs><style>.cls-1{fill:#1b1464;opacity:0.54;}.cls-1,.cls-10,.cls-12,.cls-13,.cls-3,.cls-5,.cls-6,.cls-7,.cls-8,.cls-9{stroke:#000;}.cls-1,.cls-10,.cls-12,.cls-13,.cls-16,.cls-17,.cls-3,.cls-5,.cls-6,.cls-7,.cls-8,.cls-9{stroke-miterlimit:10;}.cls-1,.cls-10,.cls-12,.cls-13,.cls-17,.cls-5,.cls-6,.cls-7,.cls-8,.cls-9{stroke-width:5px;}.cls-10,.cls-16,.cls-17,.cls-2,.cls-3,.cls-9{fill:none;}.cls-3{stroke-width:2px;}.cls-4,.cls-8{fill:#202532;}.cls-5{fill:#89cce5;}.cls-12,.cls-18,.cls-6{fill:#efcaa6;}.cls-7{fill:#f4912d;}.cls-10,.cls-12,.cls-16,.cls-17{stroke-linecap:round;}.cls-11{fill:#fff;}.cls-13{fill:#461a00;}.cls-14{fill:#e6b7af;}.cls-15{fill:#3fa9f5;}.cls-16,.cls-17{stroke:#461a00;}.cls-16{stroke-width:20px;}</style></defs><title>Asset 11</title><g id="Layer_2" data-name="Layer 2"><g id="_4" data-name="4"><ellipse class="cls-1" cx="698.22" cy="322.45" rx="250.24" ry="259.83" transform="translate(253.98 950.26) rotate(-79.51)"/><rect class="cls-2" width="1510" height="2000"/><path class="cls-3" d="M591,592.89c-1.76.55-3.51,1.11-5.26,1.7A52,52,0,0,1,591,592.89Z"/><path class="cls-3" d="M585.07,944q.43,4,.71,8Q585.43,948,585.07,944Z"/><path class="cls-3" d="M634.64,1202.51c60.43-5.55,120.89-12.38,181-20a43.92,43.92,0,0,0,6.68-1.47"/><path class="cls-3" d="M592.84,592.33l-1.86.56"/><path class="cls-3" d="M743.56,578l-.78.35"/><path class="cls-4" d="M580.57,1444.9c-5.9,30.07-13.14,59.77-18.83,89.76,2.16,32.3,5.84,63.58,11.14,95.78,4.6,28,9.71,57,10.72,85.6-11.39,4.53-22.71,9.1-34.21,13.42-8.47-27.39-20.28-55.84-28.66-82.78-11.73-37.7-15.32-74.29-13.05-113-1.59-36.26-.39-70.77,2.38-107.38,7.56-100.16,43.15-193.25,81.77-285.36,6.66-21.34,23.58-33.76,44.81-26.31s34.38,25.2,27.91,48.38C638.14,1257.63,599.76,1347.23,580.57,1444.9Z"/><path class="cls-5" d="M583.55,1716.16a76.8,76.8,0,0,1,12.89,29.48,75.77,75.77,0,0,1,.15,28.36c-13,9.22-28.07,16.9-40.12,27.2-33.31,28.48-55.7,61.83-92.61,87.41-10.17-9.27-11.65-25.76-13.17-37.24-2.15-16.26,22.6-42.69,27-46.28,23.35-18.92,32.27-30.35,49.65-48.66,8-8.42,14.81-17.66,22.09-26.88C560.79,1725.09,572.14,1720.56,583.55,1716.16Z"/><path class="cls-4" d="M834.64,1318.05a1084.5,1084.5,0,0,1-9.87,158.69c.31,42.88-1.81,85.18-7.64,127.69-4.8,35-12.76,69.66-21,104-13.5,2.26-26.76,4.81-40.25,6.82,2.92-38.15,4.22-76.61,7.4-114.72,3.38-40.58,5.29-81,8.7-121.65-5.25-40.29-10.78-82-15.36-122.11-8.8-77.23-17.19-153.6-18-231.19a6.85,6.85,0,0,1,0-1c2.74-22.64,14.07-37.49,38.06-38s35,14,37.67,36.4C825.13,1187.81,833.79,1252.09,834.64,1318.05Z"/><path class="cls-5" d="M755.89,1715.23c-4.4,7.41-4.23,14.31-6.18,23.3-1.7,7.84-.33,18.34,2.76,26.46,12.34,8.3,26.23,17,37.57,26.21,31.36,25.41,61.4,44.38,96.53,63.51,9.78-8,10.06-17.23,10.81-28.44,1.06-15.87-24.9-37.81-29.54-40.54-24.41-14.38-30.18-21.22-46.83-40-7.65-8.62-16.71-26.89-24.87-37.17C782.63,1710.5,769.36,1713.43,755.89,1715.23Z"/><path class="cls-6" d="M567.33,722.18c-19.11,46.48-55.11,87.6-87.68,124.29-23.3,26.23-42.78,52.29-70.39,72.92-6.71,5-10.45,9.7-13,17.47-12,37-25.77,73.37-42.32,108.61a901.54,901.54,0,0,1-50.18,91.8c-1.29,2.08-1.15,4-.2,6.18.59,1.36,1.51,2.72,2.16,4.39,3.08,4.05,7.24,14.46,8.56,18.15,2.31,6.43,10.4,31.26,5.92,33.79s-13.4-23.43-15-26.51c-1,1-1.9,2.41-3,3.72.07,2.09-.09,8.83-.27,10.34-.7,5.84-1.56,38.25-7,37.88s-4.39-32.9-4-38.39c0-.37.16-2.57.23-3-1.66.45-3.31.75-5,1.09-.05,1.17-.53,5.39-.67,6.36-.9,6.4-6.4,42.16-12,41.55s.63-36.9,1.1-43c.06-.88.74-4.93.91-6-1.67-.67-3.25-1.38-4.85-2.11-.34,1.07-1.74,5.28-2.08,6.06-2.17,5.07-13.06,37.14-18.08,35s5.68-33,7.84-39c.55-1.54,3-7.57,4-9.46a55.78,55.78,0,0,1-2.88-5.08s-.41.89-.46,1c-2.17,4.85-17.61,35.62-22.41,33s9.91-31.4,12.71-38.08c1.8-4.31,7.33-14.6,11.26-18.88a12.21,12.21,0,0,0,1.14-1.82,7,7,0,0,0,1.17-3,528.54,528.54,0,0,1,37.43-119.8,558.1,558.1,0,0,1,68.13-113.13,34.41,34.41,0,0,0,5.29-8.74c21.95-47.6,60.61-87.57,90.7-130.21,20.67-29.28,41.11-59,64-86.63,0,0,.05-.16.05-.2,1.89-24.14,17.08-39.82,41.38-38,20.5,1.5,34.46,15.3,35.89,35.82C607.44,704.93,591.54,720.08,567.33,722.18Z"/><path class="cls-6" d="M809.23,650.78c36.08,31.25,67.64,78.85,94.13,117.93,18.94,27.95,38.77,54,50.29,85.31,2.8,7.61,6.15,12.35,12.4,16.73,29.78,20.89,58.9,42.22,82.72,70,21.38,25,36.86,52.74,49.52,83,.89,2.11,2.41,2.93,4.64,3.24,1.38.2,3,.16,4.66.47,5-.45,15.83,1.45,19.61,2.22,6.59,1.34,32.14,7.3,31.91,12.39s-27.1-.77-30.61-1c.29,1.36,1,2.83,1.53,4.47,1.8,1,7.51,4.63,8.69,5.53,4.52,3.49,32,20.8,28.84,25.11s-30.47-13-35.11-16.19c-.32-.22-2.12-1.44-2.42-1.7-.49,1.63-1.12,3.15-1.74,4.78,1,.62,4.36,3.19,5.11,3.79,4.88,3.92,32.83,26.86,29.31,31.2s-31.26-19.22-36.34-22.82c-.73-.51-3.84-3.11-4.65-3.81-1.47,1.07-2.92,2-4.4,3,.74.82,3.63,4.16,4.11,4.83,3.12,4.31,25,29.89,20.45,33s-25.25-21.43-29.33-26.42c-1-1.28-4.9-6.34-6-8.17a55,55,0,0,1-5.93-.18s.56.8.63.9c3,4.19,21.23,32.91,16.48,35.58s-21.7-24.25-26-30c-2.78-3.72-8.3-13.48-9.69-19a11.64,11.64,0,0,0-.87-1.88,7.06,7.06,0,0,0-1.76-2.47c-25.72-25.54-49.29-52.29-73.46-79.75-25.51-29-52.57-58.45-74.2-91a30.39,30.39,0,0,0-6.66-7.37c-37.57-32.47-69.71-81.21-101.88-120.46-22.1-27-45-56.49-63.48-86.65a.62.62,0,0,0-.22-.17c-22.48-9.63-31.74-29.23-22.19-51.61,8.05-18.88,25.57-27.66,45.29-22.34C806,607.42,814.88,627.65,809.23,650.78Z"/><path class="cls-4" d="M820.46,1111.05c-5.76,76.55-59.63,133-138.1,129.65s-128.28-63.66-130-139c-.09-3.87,1-7.64,1-11.35,88.77-2.75,177.38-4.16,266-9.24C820.58,1091.29,821.25,1100.61,820.46,1111.05Z"/><path class="cls-7" d="M831.36,1099.18c-.33,21.4-6.71,46.6-16.69,66.83l-.19.38c-4.71,8.33-12.6,13.66-20.71,17.42-1.88.88-8,1.29-10.27,1.54-45.68,5.13-127.57,9.07-163.16,10.81s-12.56.8-21.72,1.07c-28.62.87-16.11-2.81-33.76-10.33-4.23-1.8-3.7-3.93-4.63-5.12-15.78-20.35-23.6-41.43-27.15-66.21,0-21.7,1.73-43.54,7.07-64.5,5.71-22.35,15.77-40,22.21-63,2.95-10.52,5.2-27.93,5.25-40,0,0,0-.25,0-.31,0-2.63-.15-5.4-.17-8-.3-54.12,4.38-108.18,6-162.25-4.29,3.92-7.75,8.78-11.07,13.41-6.18,8.62-13.47,15.89-20.36,23.78-7.47-16.77-14.44-32.5-26.47-46.82a164.49,164.49,0,0,0-51.63-41c19.75-24.89,32.65-49,49.68-77.26,8.41-14,25.36-32.3,40.52-43.19a146.9,146.9,0,0,1,34.42-17.9c2.09-.73,3.78-1.28,5.76-1.91a2,2,0,0,1,1.08-.16c25.2,17.19,49.14,36.44,73.06,55.2,6.74,5.29,10.48,4.87,17.28-1.19,23-20.5,48.09-41.56,79.75-47.14a16.36,16.36,0,0,1,2.91,1.11c.16,0,.32.24.53.31,24.17,7.74,49.17,24.22,65.75,41.78,18.56,19.66,34.26,34.1,53.95,51-11.71,16.63-19.57,34.75-36.09,47.6-15.69,12.21-29.73,26.26-48.75,33.34a99.18,99.18,0,0,0-26.9-22.18c-.83,8.63-2.41,12.59-3,24.11-6,40.32,17.48,113.54,21.6,144.48s1.91,14.39,2.52,18.95A286.5,286.5,0,0,0,805.2,970c7.25,28.19,17.67,48,22.43,74.63C831.09,1063.88,831.68,1078.15,831.36,1099.18Z"/><path class="cls-8" d="M766.57,592.89c-12.94,2.8,15.94-3.5-6.89,1.44s-57.77,26-73.64,46.82a8,8,0,0,1-1.29.59c-6.39,4-11,3.83-16.83,0,0,0,8.3,7.28-5.17-4.59s-46.6-37.77-66-49.73c.86-3,3-1.88,5.84-2.26,9.68-1.27,20.86-1.58,30.59-3.28,4.54,3.47-6-4.71,3.06,2.42s24.08,21.25,34.66,29.6c6,4.76,13.09,4.3,18.93-1.35,9.54-9.22,26.51-23.51,36.58-29.39s-1.47.88,3.36-2C742.14,584.52,754,588.46,766.57,592.89Z"/><path class="cls-6" d="M728.91,581.79c-14.23,7.81-27,20.68-38.9,30.56-7.32,6.06-11.88,6.66-19.16,1.37-12.79-9.29-24-21.63-36.88-31.12C665.37,579.35,697.7,575.48,728.91,581.79Z"/><ellipse class="cls-9" cx="698.22" cy="322.45" rx="250.24" ry="259.83" transform="translate(253.98 950.26) rotate(-79.51)"/><path class="cls-10" d="M633,564c12.12-2.69,31-8.11,51-7,20.92,1.16,39,8.77,51,13"/><path class="cls-11" d="M838.45,172.43c7.72,0,7.73-12,0-12s-7.73,12,0,12Z"/><path class="cls-11" d="M859.41,199.22a147.4,147.4,0,0,1,36.16,66.33c1.84,7.49,13.42,4.32,11.57-3.19a159.6,159.6,0,0,0-39.24-71.62c-5.32-5.62-13.8,2.88-8.49,8.48Z"/><path class="cls-12" d="M660.7,588.87a196.86,196.86,0,0,0,8.39-45.22q.45-6.72.45-13.56C669.54,480,651.06,434.52,621,401a176.3,176.3,0,0,0-44.66-36,59.45,59.45,0,0,1-3.55-20.3V222.65c0-31.09,23.8-56.52,52.88-56.52H775.31c29.08,0,52.88,25.43,52.88,56.52V331.91a84.28,84.28,0,0,1,25.91,61.41c0,33.78-19.12,62.78-46.42,75.32q-2.2.9-4.38,1.84c-33.77,14.79-62.23,40.57-81.5,73.17a191.75,191.75,0,0,0-19.37,45.22"/><path class="cls-13" d="M828.19,222.65v13c0,25.43-26.4,46.38-36,43.51A71.86,71.86,0,0,0,775.84,252a66.33,66.33,0,0,0-10.91-9,63.88,63.88,0,0,0-9.19-5.08c-14.89,24.57-20.62,29.39-20.62,29.39-7.56,6.34-24.33,14.69-24.33,14.69s-4.5-15.68-9.52-23.17c-4.69-7-11.63-10.26-16.39-11.87-21.92,21.8-24.79,24.8-31.2,27.69-15,6.8-33.82,5.87-33.85,5.66h0c.35-.37-3.47-10.09-14.28-35.6a176.82,176.82,0,0,0-3.7,87L572.77,335V222.65c0-31.09,23.8-56.52,52.88-56.52H775.31C804.39,166.13,828.19,191.56,828.19,222.65Z"/><path d="M777,346a15.12,15.12,0,0,1,6.92,6.45,17.77,17.77,0,0,1,2.18,9.67,19.43,19.43,0,0,1-1,5,19.69,19.69,0,0,1-2.43,4.6,16.64,16.64,0,0,1-13.72,7,18,18,0,0,1-5.25-.94,17.45,17.45,0,0,1-4.62-2.54,18.36,18.36,0,0,1-3.55-3.77c-3.95-5.67-4-13.4-.48-18.58a18,18,0,0,0,3.59,16.18,17.25,17.25,0,0,0,3,2.6,15.23,15.23,0,0,0,3.51,1.61,12.76,12.76,0,0,0,7.51-.13,14.69,14.69,0,0,0,9.52-11.54A17.27,17.27,0,0,0,777,346Z"/><ellipse class="cls-11" cx="710.79" cy="336.81" rx="25.91" ry="27.69"/><path class="cls-14" d="M734.79,347.28c-3.86,10.11-13.16,17.22-24,17.22a25.62,25.62,0,0,1-22.18-13.36c7.22-6.55,18.63-10,31-8.49A45.39,45.39,0,0,1,734.79,347.28Z"/><ellipse class="cls-15" cx="710.79" cy="336.81" rx="4.76" ry="5.09"/><path class="cls-11" d="M848.29,327.77a29.41,29.41,0,0,1-1.92,10.47,45.39,45.39,0,0,0-15.19-4.64c-12.35-1.53-23.77,1.95-31,8.5a29,29,0,0,1-3.74-14.33c0-15.3,11.6-27.7,25.91-27.7S848.29,312.47,848.29,327.77Z"/><path class="cls-14" d="M846.37,338.24c-3.86,10.1-13.15,17.22-24,17.22A25.59,25.59,0,0,1,800.2,342.1c7.21-6.55,18.63-10,31-8.5A45.39,45.39,0,0,1,846.37,338.24Z"/><ellipse class="cls-15" cx="822.37" cy="327.77" rx="4.76" ry="5.09"/><path class="cls-16" d="M674.3,313.64c22.41-5.3,36.83-15.26,36.49-24.3"/><path class="cls-16" d="M828.19,300.43c-15.31-5.56-24.58-13.42-24.31-20.7"/><line class="cls-17" x1="756.8" y1="381.46" x2="752.57" y2="388.8"/><line class="cls-17" x1="763.91" y1="382.52" x2="763.44" y2="391.13"/><line class="cls-17" x1="771.54" y1="382.56" x2="772.73" y2="391.09"/><line class="cls-17" x1="781.27" y1="381.4" x2="782.04" y2="389.99"/><line class="cls-17" x1="789.38" y1="378.78" x2="794.03" y2="385.83"/><path class="cls-14" d="M788,402.37c16.71-3.61,69.2-19.08,70.91,1.3a13.19,13.19,0,0,1,0,2.65c-1.15,10.57-38.4,15.23-65.57,22.61-33.32,9-63.09,29.8-70.86,16.95a16.82,16.82,0,0,1-1-1.91C711.81,422.29,765,407.33,788,402.37Z"/><path class="cls-14" d="M858.86,400.67a389.18,389.18,0,0,0-71.12,15,396.77,396.77,0,0,0-66.37,27.41"/><path d="M858.86,400.67c-11.88,2.2-23.68,4.55-35.37,7.31-5.84,1.41-11.67,2.82-17.46,4.43s-11.56,3.21-17.28,5-11.43,3.63-17.1,5.61-11.29,4.06-16.91,6.17c-11.22,4.31-22.3,9-33.37,13.85a268.71,268.71,0,0,1,32.17-16.73c5.53-2.48,11.17-4.7,16.83-6.85s11.42-4.05,17.2-5.87,11.64-3.4,17.52-4.85,11.8-2.76,17.76-3.82A264.59,264.59,0,0,1,858.86,400.67Z"/><path class="cls-18" d="M589.16,368.91a22,22,0,0,1-16.39,7.46c-12.56,0-22.74-10.88-22.74-24.3s10.18-24.3,22.74-24.3a22,22,0,0,1,16.39,7.46"/><path d="M589.16,368.91a21.4,21.4,0,0,1-11.48,8.14,23.17,23.17,0,0,1-3.62.71,30.7,30.7,0,0,1-3.72.11,24.37,24.37,0,0,1-7.3-1.68,24.8,24.8,0,0,1-6.43-3.95,26.09,26.09,0,0,1-4.94-5.74,27.16,27.16,0,0,1-3.08-6.92,27.26,27.26,0,0,1,0-15,27.45,27.45,0,0,1,3.09-6.93,25.83,25.83,0,0,1,4.94-5.74,24.74,24.74,0,0,1,6.43-3.95,24.37,24.37,0,0,1,7.3-1.68,30.7,30.7,0,0,1,3.72.11,23.17,23.17,0,0,1,3.62.71,21.38,21.38,0,0,1,11.48,8.15,23.35,23.35,0,0,0-12-5.76,25.51,25.51,0,0,0-3.25-.24,28.36,28.36,0,0,0-3.21.29,22.8,22.8,0,0,0-6,2,23.72,23.72,0,0,0-5.09,3.67,23.23,23.23,0,0,0-3.85,4.93,24.16,24.16,0,0,0-3.19,12,25.91,25.91,0,0,0,.81,6.2,23.65,23.65,0,0,0,2.38,5.77,23.32,23.32,0,0,0,3.84,4.94,23.83,23.83,0,0,0,5.1,3.68,23.22,23.22,0,0,0,6,2,31.3,31.3,0,0,0,3.22.28,23.81,23.81,0,0,0,3.25-.24A23.35,23.35,0,0,0,589.16,368.91Z"/><path class="cls-18" d="M569.6,357.15a10.79,10.79,0,0,0,4.76-3.95,12,12,0,0,0,1.85-4.81"/><path d="M569.6,357.15a24.91,24.91,0,0,1,1.24-3,11.61,11.61,0,0,1,1.2-2,11.46,11.46,0,0,1,1.59-1.74,20.66,20.66,0,0,1,2.58-2,5,5,0,0,1,1,3.51,6,6,0,0,1-1.21,3.23,6.16,6.16,0,0,1-2.78,2.1A4.82,4.82,0,0,1,569.6,357.15Z"/><path d="M564,347.26a9.06,9.06,0,0,1,5.65-2.35,11.89,11.89,0,0,1,6.15,1.3,12,12,0,0,1,4.62,4.21,9.38,9.38,0,0,1,1.56,5.89c-1.7-1.23-3.07-2.29-4.45-3.22a38.4,38.4,0,0,0-4-2.43,33.23,33.23,0,0,0-4.28-1.85C567.72,348.26,566.06,347.81,564,347.26Z"/><rect class="cls-2" x="429.45" y="102.5" width="550.08" height="550"/><path class="cls-10" d="M633,564c5.64,4.17,26.95,9.85,52,10,25.67.16,44.43.13,50-4"/></g></g></svg>