<svg xmlns="http://www.w3.org/2000/svg" xmlns:xlink="http://www.w3.org/1999/xlink" viewBox="0 0 3001.21 1000"><defs><style>.cls-1,.cls-8{fill:#efcaa6;}.cls-1,.cls-2{stroke:#000;}.cls-1,.cls-2,.cls-3,.cls-6,.cls-7{stroke-miterlimit:10;}.cls-1,.cls-2,.cls-7{stroke-width:5px;}.cls-2{fill:#461a00;}.cls-10,.cls-3,.cls-6,.cls-7{fill:none;}.cls-3{stroke:red;stroke-width:2px;}.cls-4{fill:#fff;}.cls-5{fill:#3fa9f5;}.cls-6,.cls-7{stroke:#461a00;stroke-linecap:round;}.cls-6{stroke-width:20px;}.cls-9{fill:#e6b7af;}</style><symbol id="morten_grin_2" data-name="morten_grin_2" viewBox="0 0 1004 1000"><path class="cls-1" d="M764.13,526.24c0,56-33,104.1-80,124.89-2.54,1-5.05,2-7.55,3.06C618.31,678.71,569.24,721.46,536,775.52a310.78,310.78,0,0,0-33.4,75h-72a314.75,314.75,0,0,0,14.47-75q.78-11.14.79-22.49c0-83.06-31.87-158.48-83.73-214a302.31,302.31,0,0,0-77-59.68,94.93,94.93,0,0,1-6.13-33.66V243.22c0-51.54,41-93.71,91.18-93.71h258c50.15,0,91.18,42.17,91.18,93.71V424.4A137.25,137.25,0,0,1,764.13,526.24Z"/><path class="cls-2" d="M719.46,243.22v21.56c0,42.17-45.53,76.92-62,72.16a118.25,118.25,0,0,0-28.27-45,113.61,113.61,0,0,0-34.65-23.42C568.87,309.27,559,317.26,559,317.26c-13,10.52-42,24.36-42,24.36s-7.76-26-16.41-38.42c-8.09-11.64-20.06-17-28.26-19.68-37.8,36.15-42.74,41.12-53.8,45.92-25.94,11.26-58.3,9.73-58.36,9.38h0c.61-.63-6-16.74-24.62-59a282.89,282.89,0,0,0-6.38,144.32l-50.15,5.38V243.22c0-51.54,41-93.71,91.18-93.71h258C678.43,149.51,719.46,191.68,719.46,243.22Z"/><path class="cls-3" d="M676.54,659.5"/><path d="M631.24,458.73a25.54,25.54,0,0,1,11.09,10.65A26.78,26.78,0,0,1,645.45,485a27.48,27.48,0,0,1-6.22,15,28.83,28.83,0,0,1-6.14,5.52,29.25,29.25,0,0,1-7.51,3.51,30.71,30.71,0,0,1-8.2,1.17,30.07,30.07,0,0,1-8.16-1.27,27.67,27.67,0,0,1-13.39-9.13c-.46-.51-.81-1.1-1.21-1.64a15.51,15.51,0,0,1-1.1-1.71l-1-1.78-.79-1.86A26.68,26.68,0,0,1,590,485a25,25,0,0,1,3.45-15,26.91,26.91,0,0,0,5.38,27.2l1.24,1.25,1.34,1.13a12.66,12.66,0,0,0,1.39,1.05,13.56,13.56,0,0,0,1.45,1,25.81,25.81,0,0,0,6.35,2.73,26.73,26.73,0,0,0,6.83.89,26.38,26.38,0,0,0,6.78-1,25,25,0,0,0,11.47-7.32,25.32,25.32,0,0,0,3.84-5.75,16.07,16.07,0,0,0,.69-1.6,14,14,0,0,0,.59-1.64l.51-1.68.34-1.72a25.81,25.81,0,0,0-1.47-14A28,28,0,0,0,631.24,458.73Z"/><circle class="cls-4" cx="522.53" cy="430.33" r="52.16"/><circle class="cls-5" cx="533.04" cy="417.84" r="8.21"/><circle class="cls-4" cx="702.62" cy="415.42" r="49.25"/><circle class="cls-5" cx="712.55" cy="403.63" r="7.75"/><path class="cls-6" d="M466.49,394.13c21.9-48.15,54-72.16,81.15-21.17"/><path class="cls-6" d="M641.49,368.13c21.9-49.12,54-73.61,81.15-21.59"/><line class="cls-7" x1="596.37" y1="515.87" x2="589.07" y2="527.73"/><line class="cls-7" x1="608.63" y1="517.59" x2="607.81" y2="531.48"/><line class="cls-7" x1="621.78" y1="517.65" x2="623.84" y2="531.42"/><line class="cls-7" x1="638.55" y1="515.78" x2="639.89" y2="529.64"/><line class="cls-7" x1="652.54" y1="511.55" x2="660.55" y2="522.93"/><path class="cls-8" d="M307.34,485.76a38.61,38.61,0,0,1-28.27,12.37c-21.65,0-39.2-18-39.2-40.3s17.55-40.3,39.2-40.3a38.57,38.57,0,0,1,28.27,12.37"/><path d="M307.34,485.76a37.94,37.94,0,0,1-19.87,12.69,42,42,0,0,1-6,1c-.51,0-1,.07-1.53.1a11,11,0,0,1-1.52,0l-3.07-.06a41,41,0,0,1-12-2.69,42.51,42.51,0,0,1-10.65-6.27,46.63,46.63,0,0,1-8.3-9.21,44.4,44.4,0,0,1-5.23-11.26,42.36,42.36,0,0,1,0-24.6,45,45,0,0,1,5.24-11.27,46.32,46.32,0,0,1,8.3-9.21,42.57,42.57,0,0,1,10.64-6.27,41.3,41.3,0,0,1,12-2.69l3.07-.06a11,11,0,0,1,1.52,0c.51,0,1,.05,1.53.1a41.79,41.79,0,0,1,6,1,37.89,37.89,0,0,1,19.87,12.7A39.89,39.89,0,0,0,287,419.6a38.12,38.12,0,0,0-22.05,2.77,43.11,43.11,0,0,0-9.34,6,39.28,39.28,0,0,0-11.68,18.5,39.38,39.38,0,0,0,4.52,31.93,41.82,41.82,0,0,0,7.16,8.44,42.77,42.77,0,0,0,9.33,6A38.08,38.08,0,0,0,287,496.06,39.89,39.89,0,0,0,307.34,485.76Z"/><path class="cls-8" d="M273.6,466.26a18.54,18.54,0,0,0,8.21-6.56,19.23,19.23,0,0,0,3.19-8"/><path d="M273.6,466.26c1.09-1.56,2.08-2.77,3-3.94l2.65-3.35,2.61-3.38c.92-1.18,1.86-2.43,3.14-3.85a8.9,8.9,0,0,1,.47,5.4,12,12,0,0,1-6.51,8.3A8.85,8.85,0,0,1,273.6,466.26Z"/><path d="M264,449.86a18.19,18.19,0,0,1,9.46-2.63,22.22,22.22,0,0,1,17.67,8.61,18.43,18.43,0,0,1,3.87,9,66.81,66.81,0,0,0-6.7-6.29,39.61,39.61,0,0,0-7.19-4.6,38.14,38.14,0,0,0-8-2.84A60.26,60.26,0,0,0,264,449.86Z"/><path class="cls-9" d="M502.8,577c-6.33-9.2,191.47-47.24,190.06-31.29C687.64,604.83,585.42,696.93,502.8,577Z"/><path class="cls-4" d="M537.85,579.2c-4.24-6.49,128-33.32,127-22.07-3.49,41.74-71.81,106.71-127,22.07"/><path d="M551.87,589.49c8.77-.29,17.44-.54,26.08-1.08s17.23-1.34,25.8-2.42,17.07-2.47,25.58-4.07,17-3.53,25.54-5.43a145,145,0,0,1-24.64,9.23A178.89,178.89,0,0,1,578,592.3,144.41,144.41,0,0,1,551.87,589.49Z"/><rect class="cls-10" width="1004" height="1000"/></symbol><symbol id="morten_grin_1" data-name="morten_grin_1" viewBox="0 0 1004 1000"><path class="cls-1" d="M764.13,525.53a132.23,132.23,0,0,1-80,121.51c-2.54,1-5.05,2-7.55,3A301.8,301.8,0,0,0,536,768.06,298.24,298.24,0,0,0,502.63,841h-72a298.91,298.91,0,0,0,14.47-72.94q.78-10.84.79-21.88A299.86,299.86,0,0,0,362.2,537.93a301.49,301.49,0,0,0-77-58.06,90.17,90.17,0,0,1-6.13-32.75V250.18c0-50.15,41-91.18,91.18-91.18h258c50.15,0,91.18,41,91.18,91.18V426.45A131.91,131.91,0,0,1,764.13,525.53Z"/><path class="cls-2" d="M719.46,250.18v21c0,41-45.53,74.83-62,70.2a114.5,114.5,0,0,0-28.27-43.76,113.07,113.07,0,0,0-18.8-14.6,114.87,114.87,0,0,0-15.85-8.2C568.87,314.44,559,322.21,559,322.21c-13,10.23-42,23.7-42,23.7s-7.76-25.3-16.41-37.38c-8.09-11.32-20.06-16.55-28.26-19.15-37.8,35.17-42.74,40-53.8,44.68-25.94,11-58.3,9.46-58.36,9.13h0c.61-.61-6-16.29-24.62-57.44a268,268,0,0,0-6.38,140.41l-50.15,5.23V250.18c0-50.15,41-91.18,91.18-91.18h258C678.43,159,719.46,200,719.46,250.18Z"/><path class="cls-3" d="M676.54,650"/><path d="M631.24,449.24a25.54,25.54,0,0,1,11.09,10.65,26.78,26.78,0,0,1,3.12,15.58,27.48,27.48,0,0,1-6.22,15,28.83,28.83,0,0,1-6.14,5.52,29.58,29.58,0,0,1-7.51,3.51,30.71,30.71,0,0,1-8.2,1.17,30.07,30.07,0,0,1-8.16-1.27,27.67,27.67,0,0,1-13.39-9.13c-.46-.51-.81-1.1-1.21-1.64a15.51,15.51,0,0,1-1.1-1.71l-1-1.78-.79-1.86a26.68,26.68,0,0,1-1.8-7.78,25,25,0,0,1,3.45-15,26.91,26.91,0,0,0,5.38,27.2l1.24,1.25,1.34,1.13a12.66,12.66,0,0,0,1.39,1.05,13.56,13.56,0,0,0,1.45,1,25.81,25.81,0,0,0,6.35,2.73,24.6,24.6,0,0,0,13.61-.14,25,25,0,0,0,11.47-7.32,25.32,25.32,0,0,0,3.84-5.75,16.07,16.07,0,0,0,.69-1.6,14,14,0,0,0,.59-1.64l.51-1.68.34-1.72a25.81,25.81,0,0,0-1.47-14A28,28,0,0,0,631.24,449.24Z"/><circle class="cls-4" cx="524.53" cy="441.84" r="52.16"/><circle class="cls-5" cx="535.04" cy="429.35" r="8.21"/><circle class="cls-4" cx="707.62" cy="422.93" r="49.25"/><circle class="cls-5" cx="717.55" cy="411.14" r="7.75"/><path class="cls-6" d="M463.49,386.64c21.9-23.53,54-35.26,81.15-10.34"/><path class="cls-6" d="M646.49,363.64c21.9-23.53,54-35.26,81.15-10.34"/><line class="cls-7" x1="596.37" y1="506.38" x2="589.07" y2="518.24"/><line class="cls-7" x1="608.63" y1="508.1" x2="607.81" y2="521.99"/><line class="cls-7" x1="621.78" y1="508.16" x2="623.84" y2="521.93"/><line class="cls-7" x1="638.55" y1="506.29" x2="639.89" y2="520.15"/><line class="cls-7" x1="652.54" y1="502.06" x2="660.55" y2="513.44"/><path class="cls-8" d="M307.34,486.14a39.21,39.21,0,1,1,0-54.34"/><path d="M307.34,486.14a38,38,0,0,1-19.79,12.36,40.26,40.26,0,0,1-23.84-1.37,41.25,41.25,0,0,1-10.65-6,45.1,45.1,0,0,1-8.43-8.91,44.22,44.22,0,0,1-5.38-11.08,40.46,40.46,0,0,1,0-24.38,44.18,44.18,0,0,1,5.37-11.08,45.16,45.16,0,0,1,8.44-8.91,40.52,40.52,0,0,1,10.65-6l2.89-1c1-.28,2-.48,3-.72.49-.1,1-.25,1.48-.32l1.51-.19,1.51-.19a9.5,9.5,0,0,1,1.51-.11,40.42,40.42,0,0,1,12,1.13,38.06,38.06,0,0,1,19.79,12.37,40.3,40.3,0,0,0-20.3-10,39,39,0,0,0-21.87,2.6,8.39,8.39,0,0,0-1.26.57l-1.22.63-1.23.63c-.4.24-.78.5-1.17.74-.76.52-1.57.95-2.3,1.51l-2.17,1.68a40.62,40.62,0,0,0-7.28,8.16,42,42,0,0,0-4.62,9.86A41.2,41.2,0,0,0,242.37,459a40.79,40.79,0,0,0,1.55,10.76,41.85,41.85,0,0,0,4.62,9.86,40.61,40.61,0,0,0,7.27,8.16l2.18,1.69c.72.56,1.54,1,2.3,1.5.39.25.77.51,1.16.74l1.23.63,1.23.64a8.28,8.28,0,0,0,1.25.57,39.08,39.08,0,0,0,21.88,2.6A40.23,40.23,0,0,0,307.34,486.14Z"/><path class="cls-8" d="M273.6,467.18a18.57,18.57,0,0,0,8.21-6.39A18.37,18.37,0,0,0,285,453"/><path d="M273.6,467.18c1.08-1.55,2.07-2.73,3-3.88l2.64-3.25,2.62-3.27c.93-1.14,1.86-2.35,3.15-3.74a8.7,8.7,0,0,1,.44,5.34,11.34,11.34,0,0,1-2.32,4.81,11.66,11.66,0,0,1-4.22,3.28A8.86,8.86,0,0,1,273.6,467.18Z"/><path d="M264,451.22a18.34,18.34,0,0,1,9.39-2.62,23.41,23.41,0,0,1,5,.5,24.57,24.57,0,0,1,4.79,1.62,22.46,22.46,0,0,1,7.87,6.18,18.17,18.17,0,0,1,4,8.91,65.85,65.85,0,0,0-6.74-6.13,40.13,40.13,0,0,0-7.22-4.43,39.3,39.3,0,0,0-8-2.74A63.76,63.76,0,0,0,264,451.22Z"/><path class="cls-9" d="M502.8,560.7c-6.33-7.43,191.47-38.15,190.06-25.27C687.64,583.22,585.42,657.61,502.8,560.7Z"/><path class="cls-4" d="M537.85,563.89c-4.24-5,128-25.5,127-16.89-3.49,31.94-71.81,81.66-127,16.89"/><path d="M552.87,576c8.77-.29,17.44-.54,26.08-1.08s17.23-1.34,25.8-2.43,17.07-2.46,25.58-4.06,17-3.54,25.54-5.43a145,145,0,0,1-24.64,9.23,178.89,178.89,0,0,1-52.2,6.58A145.31,145.31,0,0,1,552.87,576Z"/><rect class="cls-10" width="1004" height="1000"/></symbol><symbol id="morten_grin_3" data-name="morten_grin_3" viewBox="0 0 1004 1000"><rect class="cls-10" width="1004" height="1000"/><path class="cls-1" d="M764.13,525.64a132.82,132.82,0,0,1-80,122c-2.54,1-5.05,2-7.55,3A302.55,302.55,0,0,0,502.63,842.49h-72a301.37,301.37,0,0,0,14.47-73.26q.78-10.89.79-22A302.57,302.57,0,0,0,285.2,479.78a90.88,90.88,0,0,1-6.13-32.89V249.08c0-50.36,41-91.57,91.18-91.57h258c50.15,0,91.18,41.21,91.18,91.57v177A132.74,132.74,0,0,1,764.13,525.64Z"/><path class="cls-2" d="M719.46,249.08v21.07c0,41.21-45.53,75.16-62,70.51a115,115,0,0,0-28.27-44,113.87,113.87,0,0,0-34.65-22.89C568.87,313.63,559,321.43,559,321.43c-13,10.28-42,23.81-42,23.81s-7.76-25.41-16.41-37.55c-8.09-11.37-20.06-16.62-28.26-19.23-37.8,35.32-42.74,40.18-53.8,44.87-25.94,11-58.3,9.51-58.36,9.17h0c.61-.61-6-16.35-24.62-57.69a270.34,270.34,0,0,0-6.38,141l-50.15,5.26v-182c0-50.36,41-91.57,91.18-91.57h258C678.43,157.51,719.46,198.72,719.46,249.08Z"/><path class="cls-3" d="M676.54,653.5"/><path d="M631.24,452.73a25.54,25.54,0,0,1,11.09,10.65A26.78,26.78,0,0,1,645.45,479a27.48,27.48,0,0,1-6.22,15,28.83,28.83,0,0,1-6.14,5.52,29.25,29.25,0,0,1-7.51,3.51,30.71,30.71,0,0,1-8.2,1.17,30.07,30.07,0,0,1-8.16-1.27,27.67,27.67,0,0,1-13.39-9.13c-.46-.51-.81-1.1-1.21-1.64a15.51,15.51,0,0,1-1.1-1.71l-1-1.78-.79-1.86A26.68,26.68,0,0,1,590,479a25,25,0,0,1,3.45-15,26.91,26.91,0,0,0,5.38,27.2l1.24,1.25,1.34,1.13a12.66,12.66,0,0,0,1.39,1.05,13.56,13.56,0,0,0,1.45,1,25.81,25.81,0,0,0,6.35,2.73,26.73,26.73,0,0,0,6.83.89,26.38,26.38,0,0,0,6.78-1,25,25,0,0,0,11.47-7.32,25.32,25.32,0,0,0,3.84-5.75,16.07,16.07,0,0,0,.69-1.6,14,14,0,0,0,.59-1.64l.51-1.68.34-1.72a25.81,25.81,0,0,0-1.47-14A28,28,0,0,0,631.24,452.73Z"/><circle class="cls-4" cx="522.53" cy="424.33" r="52.16"/><circle class="cls-5" cx="533.04" cy="411.84" r="8.21"/><circle class="cls-4" cx="702.62" cy="409.42" r="49.25"/><circle class="cls-5" cx="712.55" cy="397.63" r="7.75"/><path class="cls-6" d="M466.49,388.13c21.9-40.39,54-60.52,81.15-17.75"/><path class="cls-6" d="M641.49,362.13c21.9-34.56,54-51.8,81.15-15.19"/><line class="cls-7" x1="596.37" y1="509.87" x2="589.07" y2="521.73"/><line class="cls-7" x1="608.63" y1="511.59" x2="607.81" y2="525.48"/><line class="cls-7" x1="621.78" y1="511.65" x2="623.84" y2="525.42"/><line class="cls-7" x1="638.55" y1="509.78" x2="639.89" y2="523.64"/><line class="cls-7" x1="652.54" y1="505.55" x2="660.55" y2="516.93"/><path class="cls-8" d="M307.34,479.76a38.61,38.61,0,0,1-28.27,12.37c-21.65,0-39.2-18-39.2-40.3s17.55-40.3,39.2-40.3a38.57,38.57,0,0,1,28.27,12.37"/><path d="M307.34,479.76a37.94,37.94,0,0,1-19.87,12.69,42,42,0,0,1-6,1c-.51,0-1,.07-1.53.1a11,11,0,0,1-1.52,0l-3.07-.06a41,41,0,0,1-12-2.69,42.51,42.51,0,0,1-10.65-6.27,46.63,46.63,0,0,1-8.3-9.21,44.4,44.4,0,0,1-5.23-11.26,42.36,42.36,0,0,1,0-24.6,45,45,0,0,1,5.24-11.27,46.32,46.32,0,0,1,8.3-9.21,42.57,42.57,0,0,1,10.64-6.27,41.3,41.3,0,0,1,12-2.69l3.07-.06a11,11,0,0,1,1.52,0c.51,0,1,.05,1.53.1a41.79,41.79,0,0,1,6,1,37.89,37.89,0,0,1,19.87,12.7A39.89,39.89,0,0,0,287,413.6a38.12,38.12,0,0,0-22.05,2.77,43.11,43.11,0,0,0-9.34,6,39.28,39.28,0,0,0-11.68,18.5,39.38,39.38,0,0,0,4.52,31.93,41.82,41.82,0,0,0,7.16,8.44,42.77,42.77,0,0,0,9.33,6A38.08,38.08,0,0,0,287,490.06,39.89,39.89,0,0,0,307.34,479.76Z"/><path class="cls-8" d="M273.6,460.26a18.54,18.54,0,0,0,8.21-6.56,19.23,19.23,0,0,0,3.19-8"/><path d="M273.6,460.26c1.09-1.56,2.08-2.77,3-3.94l2.65-3.35,2.61-3.38c.92-1.18,1.86-2.43,3.14-3.85a8.9,8.9,0,0,1,.47,5.4,12,12,0,0,1-6.51,8.3A8.85,8.85,0,0,1,273.6,460.26Z"/><path d="M264,443.86a18.19,18.19,0,0,1,9.46-2.63,22.22,22.22,0,0,1,17.67,8.61,18.43,18.43,0,0,1,3.87,9,66.81,66.81,0,0,0-6.7-6.29,39.61,39.61,0,0,0-7.19-4.6,38.14,38.14,0,0,0-8-2.84A60.26,60.26,0,0,0,264,443.86Z"/><path class="cls-9" d="M502.8,556c-6.33-5.28,191.47-27.08,190.06-17.94C687.64,571.93,585.42,624.71,502.8,556Z"/><path class="cls-4" d="M537.85,557.23c-4.24-3.72,128-19.09,127-12.64-3.49,23.92-71.81,61.16-127,12.64"/><path d="M555.87,564.49c8.77-.29,17.44-.54,26.08-1.08s17.23-1.34,25.8-2.42,17.07-2.47,25.58-4.07,17-3.53,25.54-5.43a145,145,0,0,1-24.64,9.23A178.89,178.89,0,0,1,582,567.3,144.41,144.41,0,0,1,555.87,564.49Z"/></symbol></defs><title>morten_grin_cycle</title><g id="Layer_2" data-name="Layer 2"><g id="Layer_2-2" data-name="Layer 2"><use width="1004" height="1000" transform="translate(998.61)" xlink:href="#morten_grin_2"/><use width="1004" height="1000" xlink:href="#morten_grin_1"/><use width="1004" height="1000" transform="translate(1997.21)" xlink:href="#morten_grin_3"/></g></g></svg>
