<svg xmlns="http://www.w3.org/2000/svg" xmlns:xlink="http://www.w3.org/1999/xlink" viewBox="0 0 4000 1000"><defs><style>.cls-1,.cls-9{fill:#efcaa6;}.cls-1,.cls-2{stroke:#000;}.cls-1,.cls-2,.cls-3,.cls-7,.cls-8{stroke-miterlimit:10;}.cls-1,.cls-2,.cls-8{stroke-width:5px;}.cls-2{fill:#461a00;}.cls-10,.cls-3,.cls-7,.cls-8{fill:none;}.cls-3{stroke:red;stroke-width:2px;}.cls-4{fill:#fff;}.cls-5{fill:#e6b7af;}.cls-6{fill:#3fa9f5;}.cls-7,.cls-8{stroke:#461a00;stroke-linecap:round;}.cls-7{stroke-width:20px;}</style><symbol id="morten_blink_sad_cycle1" data-name="morten_blink_sad_cycle1" viewBox="0 0 1000 1000"><path class="cls-1" d="M772,528.77c0,61.41-34.76,114.14-84.4,136.94q-4,1.62-8,3.35c-61.39,26.89-113.13,73.76-148.15,133a347.55,347.55,0,0,0-35.21,82.2H420.39a357.86,357.86,0,0,0,15.25-82.2q.83-12.23.83-24.66c0-91.07-33.6-173.77-88.28-234.69A320.81,320.81,0,0,0,267,477.31a107.9,107.9,0,0,1-6.46-36.91V218.45c0-56.51,43.26-102.75,96.14-102.75H628.74c52.87,0,96.13,46.24,96.13,102.75V417.11C753.76,444.41,772,484.32,772,528.77Z"/><path class="cls-2" d="M724.87,218.45v23.63c0,46.24-48,84.34-65.37,79.13a130.48,130.48,0,0,0-29.8-49.33,121.33,121.33,0,0,0-19.82-16.45,118.4,118.4,0,0,0-16.71-9.23c-27.07,44.67-37.49,53.43-37.49,53.43-13.74,11.54-44.23,26.71-44.23,26.71s-8.19-28.51-17.3-42.13c-8.54-12.76-21.15-18.65-29.8-21.57-39.86,39.63-45.06,45.08-56.72,50.35-27.35,12.35-61.48,10.66-61.54,10.28h0c.65-.69-6.31-18.35-26-64.73a322.1,322.1,0,0,0-6.72,158.24l-52.88,5.9V218.45c0-56.51,43.26-102.75,96.14-102.75H628.74C681.61,115.7,724.87,161.94,724.87,218.45Z"/><path class="cls-3" d="M679.62,669.06"/><path d="M631.86,442.8a28.26,28.26,0,0,1,11.67,12.13,32,32,0,0,1,3.26,17,32.8,32.8,0,0,1-1.88,8.66,34.38,34.38,0,0,1-4.26,7.86,33.47,33.47,0,0,1-6.38,6.37,32.28,32.28,0,0,1-8.06,4.17,31.42,31.42,0,0,1-9,1.41,28.23,28.23,0,0,1-16.89-5.76,32.17,32.17,0,0,1-6.22-6.39c-7-9.62-7.68-23-2.15-32.78a32.91,32.91,0,0,0-1.2,16.16,32.13,32.13,0,0,0,2.31,7.6,33.73,33.73,0,0,0,4.13,6.64,32.31,32.31,0,0,0,5.71,5.2,28.27,28.27,0,0,0,6.85,3.3,24.54,24.54,0,0,0,14.88-.13,27.9,27.9,0,0,0,6.73-3.42,30.36,30.36,0,0,0,5.51-5.24,28.05,28.05,0,0,0,5.2-10.28c.16-.62.38-1.24.49-1.88l.35-1.93a31.23,31.23,0,0,0-1.64-15.58A30.72,30.72,0,0,0,631.86,442.8Z"/><ellipse class="cls-4" cx="511.45" cy="426.02" rx="47.11" ry="50.35"/><path class="cls-5" d="M555.07,445.06c-7,18.37-23.91,31.31-43.62,31.31-17.09,0-32.06-9.73-40.32-24.29,13.12-11.91,33.87-18.24,56.34-15.45A82.28,82.28,0,0,1,555.07,445.06Z"/><ellipse class="cls-6" cx="511.45" cy="426.02" rx="8.65" ry="9.25"/><path class="cls-4" d="M761.41,409.58a53.17,53.17,0,0,1-3.49,19,82.35,82.35,0,0,0-27.6-8.43c-22.47-2.79-43.23,3.53-56.34,15.44a52.72,52.72,0,0,1-6.79-26.05c0-27.81,21.1-50.35,47.11-50.35S761.41,381.77,761.41,409.58Z"/><path class="cls-5" d="M757.92,428.62c-7,18.37-23.91,31.31-43.62,31.31-17.09,0-32.06-9.74-40.32-24.3,13.11-11.91,33.87-18.23,56.34-15.44A82.35,82.35,0,0,1,757.92,428.62Z"/><ellipse class="cls-6" cx="714.3" cy="409.58" rx="8.65" ry="9.25"/><path class="cls-7" d="M445.12,383.89c40.74-9.63,67-27.74,66.33-44.19"/><path class="cls-7" d="M724.87,359.87c-27.83-10.1-44.69-24.4-44.2-37.64"/><line class="cls-8" x1="595.09" y1="507.19" x2="587.4" y2="520.55"/><line class="cls-8" x1="608.03" y1="509.13" x2="607.15" y2="524.78"/><line class="cls-8" x1="621.89" y1="509.2" x2="624.06" y2="524.71"/><line class="cls-8" x1="639.57" y1="507.09" x2="640.98" y2="522.71"/><line class="cls-8" x1="654.32" y1="502.32" x2="662.77" y2="515.15"/><path class="cls-5" d="M651.81,545.21c30.38-6.56,125.8-34.68,128.91,2.37a24.66,24.66,0,0,1-.09,4.83c-2.09,19.21-69.8,27.69-119.2,41.1C600.86,610,546.73,647.69,532.6,624.33a32.21,32.21,0,0,1-1.82-3.47C513.31,581.43,610,554.24,651.81,545.21Z"/><path class="cls-5" d="M780.63,542.13a707.47,707.47,0,0,0-129.3,27.23A722.07,722.07,0,0,0,530.68,619.2"/><path d="M780.63,542.13l-16.23,2.59q-8.11,1.35-16.18,2.88-16.14,3-32.16,6.57c-10.66,2.43-21.3,5-31.85,7.81s-21.09,5.78-31.52,9.06-20.82,6.65-31.12,10.3-20.54,7.5-30.72,11.5-20.26,8.26-30.28,12.68c-5,2.16-10,4.41-15,6.7l-14.89,7,7.17-4c2.42-1.3,4.82-2.62,7.25-3.89q7.27-3.84,14.64-7.53c9.85-4.85,19.82-9.47,29.92-13.78s20.32-8.36,30.62-12.18,20.74-7.28,31.23-10.56,21.1-6.2,31.75-8.89,21.38-5.12,32.16-7.2,21.62-3.93,32.49-5.45c5.44-.75,10.89-1.4,16.34-2,2.73-.32,5.46-.57,8.19-.85Z"/><path class="cls-9" d="M290.34,484.38a40,40,0,0,1-29.8,13.56c-22.83,0-41.34-19.78-41.34-44.18s18.51-44.18,41.34-44.18a40,40,0,0,1,29.8,13.56"/><path d="M290.34,484.38a39.64,39.64,0,0,1-21.1,13.83,42,42,0,0,1-6.42,1.1,57.24,57.24,0,0,1-6.55,0,40.94,40.94,0,0,1-23.89-10.26,46.9,46.9,0,0,1-8.53-10.1l-1.67-2.87c-.5-1-.94-2-1.4-3-.22-.5-.48-1-.67-1.52l-.54-1.57-.55-1.56a12.65,12.65,0,0,1-.48-1.59l-.79-3.23c-.25-1.07-.35-2.18-.53-3.27l-.24-1.64c-.07-.55-.07-1.1-.11-1.66l-.17-3.31.17-3.31c0-.55,0-1.11.11-1.66l.24-1.64c.18-1.09.27-2.2.53-3.27l.79-3.23a12.65,12.65,0,0,1,.48-1.59l.54-1.57.55-1.56c.18-.52.45-1,.66-1.52.47-1,.9-2,1.4-3l1.67-2.88a47.18,47.18,0,0,1,8.54-10.09,40.87,40.87,0,0,1,23.89-10.26,57.24,57.24,0,0,1,6.55,0,44.62,44.62,0,0,1,6.42,1.1,39.67,39.67,0,0,1,21.1,13.84,41.53,41.53,0,0,0-21.63-11.44,42.51,42.51,0,0,0-6-.63,55.35,55.35,0,0,0-6.05.36,42,42,0,0,0-11.48,3.46,44,44,0,0,0-9.81,6.78,42.74,42.74,0,0,0-7.43,9.31,45.1,45.1,0,0,0-4.64,11l-.68,2.9c-.23,1-.29,2-.45,2.95l-.21,1.48c-.06.5,0,1-.08,1.49l-.13,3,.13,3c0,.49,0,1,.08,1.49l.21,1.48c.15,1,.22,2,.45,2.95l.68,2.91a45.17,45.17,0,0,0,4.63,11,42.31,42.31,0,0,0,7.44,9.31,44,44,0,0,0,9.81,6.79,42.32,42.32,0,0,0,11.48,3.46,55.35,55.35,0,0,0,6.05.36,44,44,0,0,0,6-.63A41.62,41.62,0,0,0,290.34,484.38Z"/><path class="cls-9" d="M254.77,463a19.71,19.71,0,0,0,8.65-7.19,21.59,21.59,0,0,0,3.37-8.74"/><path d="M254.77,463c1.19-1.63,2.25-2.92,3.25-4.2s1.92-2.46,2.83-3.68l2.74-3.78c1-1.32,1.9-2.72,3.2-4.27a10,10,0,0,1,.43,5.76,13.24,13.24,0,0,1-6.77,9.05A9.73,9.73,0,0,1,254.77,463Z"/><path d="M244.68,445a19.05,19.05,0,0,1,10.09-2.69,23.47,23.47,0,0,1,10.42,2.59,25.76,25.76,0,0,1,4.49,3,24.66,24.66,0,0,1,3.67,3.91,20.43,20.43,0,0,1,4,9.61,69.85,69.85,0,0,0-6.91-7q-1.79-1.51-3.66-2.82a39.64,39.64,0,0,0-3.9-2.32,37.29,37.29,0,0,0-8.54-3.14A52.91,52.91,0,0,0,244.68,445Z"/><rect class="cls-10" width="1000" height="1000"/></symbol><symbol id="morten_blink_sad_cycle2" data-name="morten_blink_sad_cycle2" viewBox="0 0 1000 1000"><path class="cls-1" d="M768,529.77c0,61.41-34.76,114.14-84.4,136.94q-4,1.62-8,3.35c-61.39,26.89-113.13,73.76-148.15,133a347.55,347.55,0,0,0-35.21,82.2H416.39a357.86,357.86,0,0,0,15.25-82.2q.83-12.23.83-24.66c0-91.07-33.6-173.77-88.28-234.69A320.81,320.81,0,0,0,263,478.31a107.9,107.9,0,0,1-6.46-36.91V219.45c0-56.51,43.26-102.75,96.14-102.75H624.74c52.87,0,96.13,46.24,96.13,102.75V418.11C749.76,445.41,768,485.32,768,529.77Z"/><path class="cls-2" d="M724.87,218.45v23.63c0,46.24-48,84.34-65.37,79.13a130.48,130.48,0,0,0-29.8-49.33,121.33,121.33,0,0,0-19.82-16.45,118.4,118.4,0,0,0-16.71-9.23c-27.07,44.67-37.49,53.43-37.49,53.43-13.74,11.54-44.23,26.71-44.23,26.71s-8.19-28.51-17.3-42.13c-8.54-12.76-21.15-18.65-29.8-21.57-39.86,39.63-45.06,45.08-56.72,50.35-27.35,12.35-61.48,10.66-61.54,10.28h0c.65-.69-6.31-18.35-26-64.73a322.1,322.1,0,0,0-6.72,158.24l-52.88,5.9V218.45c0-56.51,43.26-102.75,96.14-102.75H628.74C681.61,115.7,724.87,161.94,724.87,218.45Z"/><path class="cls-3" d="M679.62,669.06"/><path d="M617.91,436.23a28.28,28.28,0,0,1,16.34,4,32,32,0,0,1,11.83,12.64,33.55,33.55,0,0,1,3,8.34,34.17,34.17,0,0,1,.58,8.92,33.37,33.37,0,0,1-2,8.79,32.56,32.56,0,0,1-4.59,7.82,31.5,31.5,0,0,1-6.85,6,30.58,30.58,0,0,1-8.38,3.48,31.23,31.23,0,0,1-9,.66,32.43,32.43,0,0,1-8.67-2.1c-11.09-4.39-18.77-15.39-19.3-26.59a32.88,32.88,0,0,0,7.6,14.31,31.9,31.9,0,0,0,6,5.2,33.18,33.18,0,0,0,7,3.42,32.37,32.37,0,0,0,7.59,1.36,28.58,28.58,0,0,0,7.56-.86,24.5,24.5,0,0,0,12.52-8,28,28,0,0,0,3.87-6.48,29.62,29.62,0,0,0,1.87-7.38,28,28,0,0,0-1.08-11.46c-.2-.62-.33-1.26-.58-1.86l-.73-1.81a31.36,31.36,0,0,0-9.7-12.32A30.8,30.8,0,0,0,617.91,436.23Z"/><ellipse class="cls-4" cx="511.45" cy="426.02" rx="47.11" ry="50.35"/><ellipse class="cls-6" cx="511.45" cy="426.02" rx="8.65" ry="9.25"/><path class="cls-5" d="M558,434.75c-6,25-15,38-44,42-22.87,3.15-38.07-13.15-47.22-32.26,14.53-15.63,37.53-23.93,62.42-20.26A72.38,72.38,0,0,1,558,434.75Z"/><path class="cls-4" d="M761.41,409.58a53.17,53.17,0,0,1-3.49,19,82.35,82.35,0,0,0-27.6-8.43c-22.47-2.79-43.23,3.53-56.34,15.44a52.72,52.72,0,0,1-6.79-26.05c0-27.81,21.1-50.35,47.11-50.35S761.41,381.77,761.41,409.58Z"/><ellipse class="cls-6" cx="715.3" cy="407.58" rx="8.65" ry="9.25"/><path class="cls-7" d="M441.12,378.89c40.74-9.63,66.95-27.74,66.33-44.19"/><path class="cls-7" d="M726.87,353.87c-27.83-10.1-44.69-24.4-44.2-37.64"/><line class="cls-8" x1="595.09" y1="507.19" x2="587.4" y2="520.55"/><line class="cls-8" x1="608.03" y1="509.13" x2="607.15" y2="524.78"/><line class="cls-8" x1="621.89" y1="509.2" x2="624.06" y2="524.71"/><line class="cls-8" x1="639.57" y1="507.09" x2="640.98" y2="522.71"/><line class="cls-8" x1="654.32" y1="502.32" x2="662.77" y2="515.15"/><path class="cls-5" d="M663.81,527.21c30.38-6.56,125.8-34.68,128.91,2.37a24.66,24.66,0,0,1-.09,4.83c-2.09,19.21-69.8,27.69-119.2,41.1C612.86,592,558.73,629.69,544.6,606.33a32.21,32.21,0,0,1-1.82-3.47C525.31,563.43,622,536.24,663.81,527.21Z"/><path class="cls-5" d="M792.63,524.13a707.47,707.47,0,0,0-129.3,27.23A722.07,722.07,0,0,0,542.68,601.2"/><path d="M792.63,524.13l-16.23,2.59q-8.11,1.35-16.18,2.88-16.14,3-32.16,6.57c-10.66,2.43-21.3,5-31.85,7.81s-21.09,5.78-31.52,9.06-20.82,6.65-31.12,10.3-20.54,7.5-30.72,11.5-20.26,8.26-30.28,12.68c-5,2.16-10,4.41-15,6.7l-14.89,7,7.17-4c2.42-1.3,4.82-2.62,7.25-3.89q7.27-3.84,14.64-7.53c9.85-4.85,19.82-9.47,29.92-13.78s20.32-8.36,30.62-12.18,20.74-7.28,31.23-10.56,21.1-6.2,31.75-8.89,21.38-5.12,32.16-7.2,21.62-3.93,32.49-5.45c5.44-.75,10.89-1.4,16.34-2,2.73-.32,5.46-.57,8.19-.85Z"/><path class="cls-9" d="M290.34,484.38a40,40,0,0,1-29.8,13.56c-22.83,0-41.34-19.78-41.34-44.18s18.51-44.18,41.34-44.18a40,40,0,0,1,29.8,13.56"/><path d="M290.34,484.38a39.64,39.64,0,0,1-21.1,13.83,42,42,0,0,1-6.42,1.1,57.24,57.24,0,0,1-6.55,0,40.94,40.94,0,0,1-23.89-10.26,46.9,46.9,0,0,1-8.53-10.1l-1.67-2.87c-.5-1-.94-2-1.4-3-.22-.5-.48-1-.67-1.52l-.54-1.57-.55-1.56a12.65,12.65,0,0,1-.48-1.59l-.79-3.23c-.25-1.07-.35-2.18-.53-3.27l-.24-1.64c-.07-.55-.07-1.1-.11-1.66l-.17-3.31.17-3.31c0-.55,0-1.11.11-1.66l.24-1.64c.18-1.09.27-2.2.53-3.27l.79-3.23a12.65,12.65,0,0,1,.48-1.59l.54-1.57.55-1.56c.18-.52.45-1,.66-1.52.47-1,.9-2,1.4-3l1.67-2.88a47.18,47.18,0,0,1,8.54-10.09,40.87,40.87,0,0,1,23.89-10.26,57.24,57.24,0,0,1,6.55,0,44.62,44.62,0,0,1,6.42,1.1,39.67,39.67,0,0,1,21.1,13.84,41.53,41.53,0,0,0-21.63-11.44,42.51,42.51,0,0,0-6-.63,55.35,55.35,0,0,0-6.05.36,42,42,0,0,0-11.48,3.46,44,44,0,0,0-9.81,6.78,42.74,42.74,0,0,0-7.43,9.31,45.1,45.1,0,0,0-4.64,11l-.68,2.9c-.23,1-.29,2-.45,2.95l-.21,1.48c-.06.5,0,1-.08,1.49l-.13,3,.13,3c0,.49,0,1,.08,1.49l.21,1.48c.15,1,.22,2,.45,2.95l.68,2.91a45.17,45.17,0,0,0,4.63,11,42.31,42.31,0,0,0,7.44,9.31,44,44,0,0,0,9.81,6.79,42.32,42.32,0,0,0,11.48,3.46,55.35,55.35,0,0,0,6.05.36,44,44,0,0,0,6-.63A41.62,41.62,0,0,0,290.34,484.38Z"/><path class="cls-9" d="M254.77,463a19.71,19.71,0,0,0,8.65-7.19,21.59,21.59,0,0,0,3.37-8.74"/><path d="M254.77,463c1.19-1.63,2.25-2.92,3.25-4.2s1.92-2.46,2.83-3.68l2.74-3.78c1-1.32,1.9-2.72,3.2-4.27a10,10,0,0,1,.43,5.76,13.24,13.24,0,0,1-6.77,9.05A9.73,9.73,0,0,1,254.77,463Z"/><path d="M244.68,445a19.05,19.05,0,0,1,10.09-2.69,23.47,23.47,0,0,1,10.42,2.59,25.76,25.76,0,0,1,4.49,3,24.66,24.66,0,0,1,3.67,3.91,20.43,20.43,0,0,1,4,9.61,69.85,69.85,0,0,0-6.91-7q-1.79-1.51-3.66-2.82a39.64,39.64,0,0,0-3.9-2.32,37.29,37.29,0,0,0-8.54-3.14A52.91,52.91,0,0,0,244.68,445Z"/><path class="cls-5" d="M759,414.75c-6,25-15,38-44,42-22.87,3.15-38.07-13.15-47.22-32.26,14.53-15.63,37.53-23.93,62.42-20.26A72.38,72.38,0,0,1,759,414.75Z"/><rect class="cls-10" width="1000" height="1000"/></symbol><symbol id="morten_blink_sad_cycle3" data-name="morten_blink_sad_cycle3" viewBox="0 0 1000 1000"><path class="cls-1" d="M762,529.27c0,61.41-34.76,114.14-84.4,136.94q-4,1.62-8,3.35c-61.39,26.89-113.13,73.76-148.15,133a347.55,347.55,0,0,0-35.21,82.2H410.39a357.86,357.86,0,0,0,15.25-82.2q.83-12.23.83-24.66c0-91.07-33.6-173.77-88.28-234.69A320.81,320.81,0,0,0,257,477.81a107.9,107.9,0,0,1-6.46-36.91V219c0-56.51,43.26-102.75,96.14-102.75H618.74c52.87,0,96.13,46.24,96.13,102.75V417.61C743.76,444.91,762,484.82,762,529.27Z"/><path class="cls-2" d="M718.87,218v23.63c0,46.24-48,84.34-65.37,79.13a130.48,130.48,0,0,0-29.8-49.33,121.33,121.33,0,0,0-19.82-16.45,118.4,118.4,0,0,0-16.71-9.23c-27.07,44.67-37.49,53.43-37.49,53.43-13.74,11.54-44.23,26.71-44.23,26.71s-8.19-28.51-17.3-42.13c-8.54-12.76-21.15-18.65-29.8-21.57-39.86,39.63-45.06,45.08-56.72,50.35-27.35,12.35-61.48,10.66-61.54,10.28h0c.65-.69-6.31-18.35-26-64.73a322.1,322.1,0,0,0-6.72,158.24l-52.88,5.9V218c0-56.51,43.26-102.75,96.14-102.75H622.74C675.61,115.2,718.87,161.44,718.87,218Z"/><path class="cls-3" d="M673.62,668.56"/><path d="M616.3,435.71a28.35,28.35,0,0,1,15.61,6.3,32,32,0,0,1,9.94,14.19,34,34,0,0,1,1.83,8.68,34.71,34.71,0,0,1-.68,8.91,33.75,33.75,0,0,1-3.22,8.42,32.17,32.17,0,0,1-5.65,7.1,31.54,31.54,0,0,1-7.61,5,30.8,30.8,0,0,1-8.78,2.27,31.55,31.55,0,0,1-9-.61,32.32,32.32,0,0,1-8.28-3.29c-10.37-5.91-16.43-17.88-15.38-29a33,33,0,0,0,5.52,15.24,31.81,31.81,0,0,0,5.22,6,32.82,32.82,0,0,0,6.49,4.37,32,32,0,0,0,7.33,2.41,28.91,28.91,0,0,0,7.6.22,27.21,27.21,0,0,0,7.25-2.06,26.72,26.72,0,0,0,6.27-4.16,28,28,0,0,0,4.75-5.86,30.84,30.84,0,0,0,2.89-7.05,33.1,33.1,0,0,0,.88-7.64,31.45,31.45,0,0,0-.35-3.86c-.11-.64-.15-1.29-.32-1.92l-.46-1.9a31.38,31.38,0,0,0-7.87-13.55A31,31,0,0,0,616.3,435.71Z"/><path class="cls-7" d="M444.12,390.39c40.74-9.63,66.95-27.74,66.33-44.19"/><path class="cls-7" d="M714.87,361.37c-27.83-10.1-44.69-24.4-44.2-37.64"/><line class="cls-8" x1="589.09" y1="506.69" x2="581.4" y2="520.05"/><line class="cls-8" x1="602.03" y1="508.63" x2="601.15" y2="524.28"/><line class="cls-8" x1="615.89" y1="508.7" x2="618.06" y2="524.21"/><line class="cls-8" x1="633.57" y1="506.59" x2="634.98" y2="522.21"/><line class="cls-8" x1="648.32" y1="501.82" x2="656.77" y2="514.65"/><path class="cls-5" d="M667.81,529.71c30.38-6.56,125.8-34.68,128.91,2.37a24.66,24.66,0,0,1-.09,4.83c-2.09,19.21-69.8,27.69-119.2,41.1-60.57,16.44-114.7,54.18-128.83,30.82a32.21,32.21,0,0,1-1.82-3.47C529.31,565.93,626,538.74,667.81,529.71Z"/><path class="cls-5" d="M796.63,526.63a707.47,707.47,0,0,0-129.3,27.23A722.07,722.07,0,0,0,546.68,603.7"/><path d="M796.63,526.63l-16.23,2.59q-8.11,1.35-16.18,2.88-16.14,3-32.16,6.57c-10.66,2.43-21.3,5-31.85,7.81s-21.09,5.78-31.52,9.06-20.82,6.65-31.12,10.3-20.54,7.5-30.72,11.5S586.59,585.6,576.57,590c-5,2.16-10,4.41-15,6.7l-14.89,7,7.17-4c2.42-1.3,4.82-2.62,7.25-3.89q7.27-3.84,14.64-7.53c9.85-4.85,19.82-9.47,29.92-13.78s20.32-8.36,30.62-12.18S657,555,667.51,551.72s21.1-6.2,31.75-8.89,21.38-5.12,32.16-7.2,21.62-3.93,32.49-5.45c5.44-.75,10.89-1.4,16.34-2,2.73-.32,5.46-.57,8.19-.85Z"/><path class="cls-9" d="M284.34,483.88a40,40,0,0,1-29.8,13.56c-22.83,0-41.34-19.78-41.34-44.18s18.51-44.18,41.34-44.18a40,40,0,0,1,29.8,13.56"/><path d="M284.34,483.88a39.64,39.64,0,0,1-21.1,13.83,42,42,0,0,1-6.42,1.1,57.24,57.24,0,0,1-6.55,0,40.94,40.94,0,0,1-23.89-10.26,46.9,46.9,0,0,1-8.53-10.1l-1.67-2.87c-.5-1-.94-2-1.4-3-.22-.5-.48-1-.67-1.52l-.54-1.57L213,468a12.65,12.65,0,0,1-.48-1.59l-.79-3.23c-.25-1.07-.35-2.18-.53-3.27l-.24-1.64c-.07-.55-.07-1.1-.11-1.66l-.17-3.31.17-3.31c0-.55,0-1.11.11-1.66l.24-1.64c.18-1.09.27-2.2.53-3.27l.79-3.23a12.65,12.65,0,0,1,.48-1.59l.54-1.57.55-1.56c.18-.52.45-1,.66-1.52.47-1,.9-2,1.4-3l1.67-2.88a47.18,47.18,0,0,1,8.54-10.09,40.87,40.87,0,0,1,23.89-10.26,57.24,57.24,0,0,1,6.55,0,44.62,44.62,0,0,1,6.42,1.1,39.67,39.67,0,0,1,21.1,13.84,41.53,41.53,0,0,0-21.63-11.44,42.51,42.51,0,0,0-6-.63,55.35,55.35,0,0,0-6.05.36,42,42,0,0,0-11.48,3.46,44,44,0,0,0-9.81,6.78,42.74,42.74,0,0,0-7.43,9.31,45.1,45.1,0,0,0-4.64,11l-.68,2.9c-.23,1-.29,2-.45,2.95l-.21,1.48c-.06.5,0,1-.08,1.49l-.13,3,.13,3c0,.49,0,1,.08,1.49l.21,1.48c.15,1,.22,2,.45,2.95l.68,2.91a45.17,45.17,0,0,0,4.63,11,42.56,42.56,0,0,0,7.43,9.31,44.34,44.34,0,0,0,9.82,6.79,42.32,42.32,0,0,0,11.48,3.46,55.35,55.35,0,0,0,6.05.36,44,44,0,0,0,6-.63A41.62,41.62,0,0,0,284.34,483.88Z"/><path class="cls-9" d="M248.77,462.51a19.71,19.71,0,0,0,8.65-7.19,21.59,21.59,0,0,0,3.37-8.74"/><path d="M248.77,462.51c1.19-1.63,2.25-2.92,3.25-4.2s1.92-2.46,2.83-3.68l2.74-3.78c1-1.32,1.9-2.72,3.2-4.27a10,10,0,0,1,.43,5.76,13.24,13.24,0,0,1-6.77,9.05A9.73,9.73,0,0,1,248.77,462.51Z"/><path d="M238.68,444.53a19.05,19.05,0,0,1,10.09-2.69,23.47,23.47,0,0,1,10.42,2.59,25.76,25.76,0,0,1,4.49,3,24.66,24.66,0,0,1,3.67,3.91,20.43,20.43,0,0,1,4,9.61,69.85,69.85,0,0,0-6.91-7q-1.79-1.51-3.66-2.82a39.64,39.64,0,0,0-3.9-2.32,37.29,37.29,0,0,0-8.54-3.14A52.91,52.91,0,0,0,238.68,444.53Z"/><rect class="cls-10" width="1000" height="1000"/><path d="M447,439a80.1,80.1,0,0,1,16.73-16.46,90.11,90.11,0,0,1,20.77-11.36,88.21,88.21,0,0,1,23.06-5.42A77.67,77.67,0,0,1,531,407a168.75,168.75,0,0,0-22.89,2.65,129.78,129.78,0,0,0-21.82,6.2,133.86,133.86,0,0,0-20.39,9.95A178.85,178.85,0,0,0,447,439Z"/><path d="M632.21,389.49a79.94,79.94,0,0,1,22.32-7.23,90.11,90.11,0,0,1,23.66-.86,88.46,88.46,0,0,1,23,5.47,77.62,77.62,0,0,1,20.4,11.6A168,168,0,0,0,700,390.6a129.78,129.78,0,0,0-22.29-4.22,132.1,132.1,0,0,0-22.68-.23A178.48,178.48,0,0,0,632.21,389.49Z"/></symbol></defs><title>morten_blink_sad_cycle</title><g id="Layer_2" data-name="Layer 2"><g id="Layer_2-2" data-name="Layer 2"><use width="1000" height="1000" xlink:href="#morten_blink_sad_cycle1"/><use width="1000" height="1000" transform="translate(1000)" xlink:href="#morten_blink_sad_cycle2"/><use width="1000" height="1000" transform="translate(2000)" xlink:href="#morten_blink_sad_cycle3"/><use width="1000" height="1000" transform="translate(3000)" xlink:href="#morten_blink_sad_cycle2"/></g></g></svg>
