<svg xmlns="http://www.w3.org/2000/svg" viewBox="0 0 5995 2000"><defs><style>.cls-1{fill:#1b1464;opacity:0.54;}.cls-1,.cls-10,.cls-12,.cls-13,.cls-3,.cls-5,.cls-6,.cls-7,.cls-8,.cls-9{stroke:#000;}.cls-1,.cls-10,.cls-12,.cls-13,.cls-16,.cls-17,.cls-3,.cls-5,.cls-6,.cls-7,.cls-8,.cls-9{stroke-miterlimit:10;}.cls-1,.cls-10,.cls-12,.cls-13,.cls-17,.cls-5,.cls-6,.cls-7,.cls-8,.cls-9{stroke-width:5px;}.cls-10,.cls-16,.cls-17,.cls-2,.cls-3,.cls-9{fill:none;}.cls-3{stroke-width:2px;}.cls-4,.cls-8{fill:#202532;}.cls-5{fill:#89cce5;}.cls-12,.cls-18,.cls-6{fill:#efcaa6;}.cls-7{fill:#f4912d;}.cls-10,.cls-12,.cls-16,.cls-17{stroke-linecap:round;}.cls-11{fill:#fff;}.cls-13{fill:#461a00;}.cls-14{fill:#e6b7af;}.cls-15{fill:#3fa9f5;}.cls-16,.cls-17{stroke:#461a00;}.cls-16{stroke-width:20px;}</style></defs><title>rum_sprite</title><g id="Layer_2" data-name="Layer 2"><g id="_4" data-name="4"><ellipse class="cls-1" cx="698.22" cy="322.45" rx="250.24" ry="259.83" transform="translate(253.98 950.26) rotate(-79.51)"/><rect class="cls-2" width="1510" height="2000"/><path class="cls-3" d="M591,592.89c-1.76.55-3.51,1.11-5.26,1.7A52,52,0,0,1,591,592.89Z"/><path class="cls-3" d="M585.07,944q.43,4,.71,8Q585.43,948,585.07,944Z"/><path class="cls-3" d="M634.64,1202.51c60.43-5.55,120.89-12.38,181-20a43.92,43.92,0,0,0,6.68-1.47"/><path class="cls-3" d="M592.84,592.33l-1.86.56"/><path class="cls-3" d="M743.56,578l-.78.35"/><path class="cls-4" d="M580.57,1444.9c-5.9,30.07-13.14,59.77-18.83,89.76,2.16,32.3,5.84,63.58,11.14,95.78,4.6,28,9.71,57,10.72,85.6-11.39,4.53-22.71,9.1-34.21,13.42-8.47-27.39-20.28-55.84-28.66-82.78-11.73-37.7-15.32-74.29-13.05-113-1.59-36.26-.39-70.77,2.38-107.38,7.56-100.16,43.15-193.25,81.77-285.36,6.66-21.34,23.58-33.76,44.81-26.31s34.38,25.2,27.91,48.38C638.14,1257.63,599.76,1347.23,580.57,1444.9Z"/><path class="cls-5" d="M583.55,1716.16a76.8,76.8,0,0,1,12.89,29.48,75.77,75.77,0,0,1,.15,28.36c-13,9.22-28.07,16.9-40.12,27.2-33.31,28.48-55.7,61.83-92.61,87.41-10.17-9.27-11.65-25.76-13.17-37.24-2.15-16.26,22.6-42.69,27-46.28,23.35-18.92,32.27-30.35,49.65-48.66,8-8.42,14.81-17.66,22.09-26.88C560.79,1725.09,572.14,1720.56,583.55,1716.16Z"/><path class="cls-4" d="M834.64,1318.05a1084.5,1084.5,0,0,1-9.87,158.69c.31,42.88-1.81,85.18-7.64,127.69-4.8,35-12.76,69.66-21,104-13.5,2.26-26.76,4.81-40.25,6.82,2.92-38.15,4.22-76.61,7.4-114.72,3.38-40.58,5.29-81,8.7-121.65-5.25-40.29-10.78-82-15.36-122.11-8.8-77.23-17.19-153.6-18-231.19a6.85,6.85,0,0,1,0-1c2.74-22.64,14.07-37.49,38.06-38s35,14,37.67,36.4C825.13,1187.81,833.79,1252.09,834.64,1318.05Z"/><path class="cls-5" d="M755.89,1715.23c-4.4,7.41-4.23,14.31-6.18,23.3-1.7,7.84-.33,18.34,2.76,26.46,12.34,8.3,26.23,17,37.57,26.21,31.36,25.41,61.4,44.38,96.53,63.51,9.78-8,10.06-17.23,10.81-28.44,1.06-15.87-24.9-37.81-29.54-40.54-24.41-14.38-30.18-21.22-46.83-40-7.65-8.62-16.71-26.89-24.87-37.17C782.63,1710.5,769.36,1713.43,755.89,1715.23Z"/><path class="cls-6" d="M567.33,722.18c-19.11,46.48-55.11,87.6-87.68,124.29-23.3,26.23-42.78,52.29-70.39,72.92-6.71,5-10.45,9.7-13,17.47-12,37-25.77,73.37-42.32,108.61a901.54,901.54,0,0,1-50.18,91.8c-1.29,2.08-1.15,4-.2,6.18.59,1.36,1.51,2.72,2.16,4.39,3.08,4.05,7.24,14.46,8.56,18.15,2.31,6.43,10.4,31.26,5.92,33.79s-13.4-23.43-15-26.51c-1,1-1.9,2.41-3,3.72.07,2.09-.09,8.83-.27,10.34-.7,5.84-1.56,38.25-7,37.88s-4.39-32.9-4-38.39c0-.37.16-2.57.23-3-1.66.45-3.31.75-5,1.09-.05,1.17-.53,5.39-.67,6.36-.9,6.4-6.4,42.16-12,41.55s.63-36.9,1.1-43c.06-.88.74-4.93.91-6-1.67-.67-3.25-1.38-4.85-2.11-.34,1.07-1.74,5.28-2.08,6.06-2.17,5.07-13.06,37.14-18.08,35s5.68-33,7.84-39c.55-1.54,3-7.57,4-9.46a55.78,55.78,0,0,1-2.88-5.08s-.41.89-.46,1c-2.17,4.85-17.61,35.62-22.41,33s9.91-31.4,12.71-38.08c1.8-4.31,7.33-14.6,11.26-18.88a12.21,12.21,0,0,0,1.14-1.82,7,7,0,0,0,1.17-3,528.54,528.54,0,0,1,37.43-119.8,558.1,558.1,0,0,1,68.13-113.13,34.41,34.41,0,0,0,5.29-8.74c21.95-47.6,60.61-87.57,90.7-130.21,20.67-29.28,41.11-59,64-86.63,0,0,.05-.16.05-.2,1.89-24.14,17.08-39.82,41.38-38,20.5,1.5,34.46,15.3,35.89,35.82C607.44,704.93,591.54,720.08,567.33,722.18Z"/><path class="cls-6" d="M809.23,650.78c36.08,31.25,67.64,78.85,94.13,117.93,18.94,27.95,38.77,54,50.29,85.31,2.8,7.61,6.15,12.35,12.4,16.73,29.78,20.89,58.9,42.22,82.72,70,21.38,25,36.86,52.74,49.52,83,.89,2.11,2.41,2.93,4.64,3.24,1.38.2,3,.16,4.66.47,5-.45,15.83,1.45,19.61,2.22,6.59,1.34,32.14,7.3,31.91,12.39s-27.1-.77-30.61-1c.29,1.36,1,2.83,1.53,4.47,1.8,1,7.51,4.63,8.69,5.53,4.52,3.49,32,20.8,28.84,25.11s-30.47-13-35.11-16.19c-.32-.22-2.12-1.44-2.42-1.7-.49,1.63-1.12,3.15-1.74,4.78,1,.62,4.36,3.19,5.11,3.79,4.88,3.92,32.83,26.86,29.31,31.2s-31.26-19.22-36.34-22.82c-.73-.51-3.84-3.11-4.65-3.81-1.47,1.07-2.92,2-4.4,3,.74.82,3.63,4.16,4.11,4.83,3.12,4.31,25,29.89,20.45,33s-25.25-21.43-29.33-26.42c-1-1.28-4.9-6.34-6-8.17a55,55,0,0,1-5.93-.18s.56.8.63.9c3,4.19,21.23,32.91,16.48,35.58s-21.7-24.25-26-30c-2.78-3.72-8.3-13.48-9.69-19a11.64,11.64,0,0,0-.87-1.88,7.06,7.06,0,0,0-1.76-2.47c-25.72-25.54-49.29-52.29-73.46-79.75-25.51-29-52.57-58.45-74.2-91a30.39,30.39,0,0,0-6.66-7.37c-37.57-32.47-69.71-81.21-101.88-120.46-22.1-27-45-56.49-63.48-86.65a.62.62,0,0,0-.22-.17c-22.48-9.63-31.74-29.23-22.19-51.61,8.05-18.88,25.57-27.66,45.29-22.34C806,607.42,814.88,627.65,809.23,650.78Z"/><path class="cls-4" d="M820.46,1111.05c-5.76,76.55-59.63,133-138.1,129.65s-128.28-63.66-130-139c-.09-3.87,1-7.64,1-11.35,88.77-2.75,177.38-4.16,266-9.24C820.58,1091.29,821.25,1100.61,820.46,1111.05Z"/><path class="cls-7" d="M831.36,1099.18c-.33,21.4-6.71,46.6-16.69,66.83l-.19.38c-4.71,8.33-12.6,13.66-20.71,17.42-1.88.88-8,1.29-10.27,1.54-45.68,5.13-127.57,9.07-163.16,10.81s-12.56.8-21.72,1.07c-28.62.87-16.11-2.81-33.76-10.33-4.23-1.8-3.7-3.93-4.63-5.12-15.78-20.35-23.6-41.43-27.15-66.21,0-21.7,1.73-43.54,7.07-64.5,5.71-22.35,15.77-40,22.21-63,2.95-10.52,5.2-27.93,5.25-40,0,0,0-.25,0-.31,0-2.63-.15-5.4-.17-8-.3-54.12,4.38-108.18,6-162.25-4.29,3.92-7.75,8.78-11.07,13.41-6.18,8.62-13.47,15.89-20.36,23.78-7.47-16.77-14.44-32.5-26.47-46.82a164.49,164.49,0,0,0-51.63-41c19.75-24.89,32.65-49,49.68-77.26,8.41-14,25.36-32.3,40.52-43.19a146.9,146.9,0,0,1,34.42-17.9c2.09-.73,3.78-1.28,5.76-1.91a2,2,0,0,1,1.08-.16c25.2,17.19,49.14,36.44,73.06,55.2,6.74,5.29,10.48,4.87,17.28-1.19,23-20.5,48.09-41.56,79.75-47.14a16.36,16.36,0,0,1,2.91,1.11c.16,0,.32.24.53.31,24.17,7.74,49.17,24.22,65.75,41.78,18.56,19.66,34.26,34.1,53.95,51-11.71,16.63-19.57,34.75-36.09,47.6-15.69,12.21-29.73,26.26-48.75,33.34a99.18,99.18,0,0,0-26.9-22.18c-.83,8.63-2.41,12.59-3,24.11-6,40.32,17.48,113.54,21.6,144.48s1.91,14.39,2.52,18.95A286.5,286.5,0,0,0,805.2,970c7.25,28.19,17.67,48,22.43,74.63C831.09,1063.88,831.68,1078.15,831.36,1099.18Z"/><path class="cls-8" d="M766.57,592.89c-12.94,2.8,15.94-3.5-6.89,1.44s-57.77,26-73.64,46.82a8,8,0,0,1-1.29.59c-6.39,4-11,3.83-16.83,0,0,0,8.3,7.28-5.17-4.59s-46.6-37.77-66-49.73c.86-3,3-1.88,5.84-2.26,9.68-1.27,20.86-1.58,30.59-3.28,4.54,3.47-6-4.71,3.06,2.42s24.08,21.25,34.66,29.6c6,4.76,13.09,4.3,18.93-1.35,9.54-9.22,26.51-23.51,36.58-29.39s-1.47.88,3.36-2C742.14,584.52,754,588.46,766.57,592.89Z"/><path class="cls-6" d="M728.91,581.79c-14.23,7.81-27,20.68-38.9,30.56-7.32,6.06-11.88,6.66-19.16,1.37-12.79-9.29-24-21.63-36.88-31.12C665.37,579.35,697.7,575.48,728.91,581.79Z"/><ellipse class="cls-9" cx="698.22" cy="322.45" rx="250.24" ry="259.83" transform="translate(253.98 950.26) rotate(-79.51)"/><path class="cls-10" d="M633,564c12.12-2.69,31-8.11,51-7,20.92,1.16,39,8.77,51,13"/><path class="cls-11" d="M838.45,172.43c7.72,0,7.73-12,0-12s-7.73,12,0,12Z"/><path class="cls-11" d="M859.41,199.22a147.4,147.4,0,0,1,36.16,66.33c1.84,7.49,13.42,4.32,11.57-3.19a159.6,159.6,0,0,0-39.24-71.62c-5.32-5.62-13.8,2.88-8.49,8.48Z"/><ellipse class="cls-1" cx="2193.22" cy="322.45" rx="250.24" ry="259.83" transform="translate(1476.67 2420.25) rotate(-79.51)"/><ellipse class="cls-9" cx="2193.22" cy="322.45" rx="250.24" ry="259.83" transform="translate(1476.67 2420.25) rotate(-79.51)"/><path class="cls-10" d="M2128,564c12.12-2.69,31-8.11,51-7,20.92,1.16,39,8.77,51,13"/><path class="cls-11" d="M2333.45,172.43c7.72,0,7.73-12,0-12s-7.73,12,0,12Z"/><path class="cls-11" d="M2354.42,199.22a147.48,147.48,0,0,1,36.15,66.33c1.84,7.49,13.42,4.32,11.57-3.19a159.6,159.6,0,0,0-39.24-71.62c-5.32-5.62-13.8,2.88-8.48,8.48Z"/><rect class="cls-2" x="1495" width="1510" height="2000"/><path class="cls-12" d="M2155.7,588.87a196.86,196.86,0,0,0,8.39-45.22q.45-6.72.45-13.56c0-50.09-18.48-95.57-48.56-129.08a176.3,176.3,0,0,0-44.66-36,59.45,59.45,0,0,1-3.55-20.3V222.65c0-31.09,23.8-56.52,52.88-56.52h149.66c29.08,0,52.88,25.43,52.88,56.52V331.91a84.28,84.28,0,0,1,25.91,61.41c0,33.78-19.12,62.78-46.42,75.32q-2.2.9-4.38,1.84c-33.77,14.79-62.23,40.57-81.5,73.17a191.75,191.75,0,0,0-19.37,45.22"/><path class="cls-13" d="M2323.19,222.65v13c0,25.43-26.4,46.38-36,43.51A71.86,71.86,0,0,0,2270.84,252a66.33,66.33,0,0,0-10.91-9,63.88,63.88,0,0,0-9.19-5.08c-14.89,24.57-20.62,29.39-20.62,29.39-7.56,6.34-24.33,14.69-24.33,14.69s-4.5-15.68-9.52-23.17c-4.69-7-11.63-10.26-16.39-11.87-21.92,21.8-24.79,24.8-31.2,27.69-15,6.8-33.82,5.87-33.85,5.66h0c.35-.37-3.47-10.09-14.28-35.6a176.82,176.82,0,0,0-3.7,87L2067.77,335V222.65c0-31.09,23.8-56.52,52.88-56.52h149.66C2299.39,166.13,2323.19,191.56,2323.19,222.65Z"/><path d="M2272,346a15.12,15.12,0,0,1,6.92,6.45,17.77,17.77,0,0,1,2.18,9.67,19.43,19.43,0,0,1-1,5,19.69,19.69,0,0,1-2.43,4.6,16.64,16.64,0,0,1-13.72,7,18,18,0,0,1-5.25-.94,17.61,17.61,0,0,1-4.62-2.54,18.36,18.36,0,0,1-3.55-3.77c-3.95-5.67-4-13.4-.48-18.58a17.93,17.93,0,0,0,3.6,16.18,16.83,16.83,0,0,0,3,2.6,15.43,15.43,0,0,0,3.51,1.61,12.76,12.76,0,0,0,7.51-.13,14.69,14.69,0,0,0,9.52-11.54A17.27,17.27,0,0,0,2272,346Z"/><ellipse class="cls-11" cx="2205.79" cy="336.81" rx="25.91" ry="27.69"/><path class="cls-14" d="M2229.79,347.28c-3.86,10.11-13.16,17.22-24,17.22a25.62,25.62,0,0,1-22.18-13.36c7.22-6.55,18.63-10,31-8.49A45.39,45.39,0,0,1,2229.79,347.28Z"/><ellipse class="cls-15" cx="2205.79" cy="336.81" rx="4.76" ry="5.09"/><path class="cls-11" d="M2343.29,327.77a29.19,29.19,0,0,1-1.92,10.47,45.41,45.41,0,0,0-15.18-4.64c-12.36-1.53-23.78,1.95-31,8.5a29,29,0,0,1-3.74-14.33c0-15.3,11.6-27.7,25.91-27.7S2343.29,312.47,2343.29,327.77Z"/><path class="cls-14" d="M2341.37,338.24c-3.86,10.1-13.15,17.22-24,17.22a25.59,25.59,0,0,1-22.17-13.36c7.21-6.55,18.63-10,31-8.5A45.41,45.41,0,0,1,2341.37,338.24Z"/><ellipse class="cls-15" cx="2317.37" cy="327.77" rx="4.76" ry="5.09"/><path class="cls-16" d="M2169.3,313.64c22.42-5.3,36.83-15.26,36.49-24.3"/><path class="cls-16" d="M2323.19,300.43c-15.31-5.56-24.58-13.42-24.31-20.7"/><line class="cls-17" x1="2251.8" y1="381.46" x2="2247.57" y2="388.8"/><line class="cls-17" x1="2258.92" y1="382.52" x2="2258.44" y2="391.13"/><line class="cls-17" x1="2266.54" y1="382.56" x2="2267.73" y2="391.09"/><line class="cls-17" x1="2276.27" y1="381.4" x2="2277.04" y2="389.99"/><line class="cls-17" x1="2284.38" y1="378.78" x2="2289.03" y2="385.83"/><path class="cls-14" d="M2283,402.37c16.71-3.61,69.2-19.08,70.91,1.3a13.19,13.19,0,0,1,0,2.65c-1.15,10.57-38.4,15.23-65.57,22.61-33.32,9-63.09,29.8-70.86,16.95a16.82,16.82,0,0,1-1-1.91C2206.81,422.29,2260,407.33,2283,402.37Z"/><path class="cls-14" d="M2353.86,400.67a389.18,389.18,0,0,0-71.12,15,396.77,396.77,0,0,0-66.37,27.41"/><path d="M2353.86,400.67c-11.88,2.2-23.68,4.55-35.37,7.31-5.84,1.41-11.67,2.82-17.45,4.43s-11.57,3.21-17.29,5-11.43,3.63-17.1,5.61-11.29,4.06-16.91,6.17c-11.22,4.31-22.3,9-33.37,13.85a268.09,268.09,0,0,1,32.18-16.73c5.52-2.48,11.16-4.7,16.82-6.85s11.42-4.05,17.2-5.87,11.64-3.4,17.52-4.85,11.8-2.76,17.76-3.82A264.78,264.78,0,0,1,2353.86,400.67Z"/><path class="cls-18" d="M2084.16,368.91a22,22,0,0,1-16.39,7.46c-12.56,0-22.74-10.88-22.74-24.3s10.18-24.3,22.74-24.3a22,22,0,0,1,16.39,7.46"/><path d="M2084.16,368.91a21.4,21.4,0,0,1-11.48,8.14,23.17,23.17,0,0,1-3.62.71,30.7,30.7,0,0,1-3.72.11,24.37,24.37,0,0,1-7.3-1.68,24.8,24.8,0,0,1-6.43-3.95,26.09,26.09,0,0,1-4.94-5.74,27.16,27.16,0,0,1-3.08-6.92,27.26,27.26,0,0,1,0-15,27.45,27.45,0,0,1,3.09-6.93,26.09,26.09,0,0,1,4.94-5.74,24.74,24.74,0,0,1,6.43-3.95,24.37,24.37,0,0,1,7.3-1.68,30.7,30.7,0,0,1,3.72.11,23.17,23.17,0,0,1,3.62.71,21.38,21.38,0,0,1,11.48,8.15,23.35,23.35,0,0,0-12-5.76,25.51,25.51,0,0,0-3.25-.24,28.57,28.57,0,0,0-3.21.29,22.8,22.8,0,0,0-6,2,23.72,23.72,0,0,0-5.09,3.67,23.23,23.23,0,0,0-3.85,4.93,24.16,24.16,0,0,0-3.19,12,25.91,25.91,0,0,0,.81,6.2,23.65,23.65,0,0,0,2.38,5.77,23.32,23.32,0,0,0,3.84,4.94,23.83,23.83,0,0,0,5.1,3.68,23.17,23.17,0,0,0,6,2,31.11,31.11,0,0,0,3.21.28,23.81,23.81,0,0,0,3.25-.24A23.35,23.35,0,0,0,2084.16,368.91Z"/><path class="cls-18" d="M2064.6,357.15a10.79,10.79,0,0,0,4.76-3.95,12,12,0,0,0,1.85-4.81"/><path d="M2064.6,357.15a24.91,24.91,0,0,1,1.24-3,11.61,11.61,0,0,1,1.2-2,11.46,11.46,0,0,1,1.59-1.74,20.66,20.66,0,0,1,2.58-2,5,5,0,0,1,1.05,3.51,6,6,0,0,1-1.21,3.23,6.16,6.16,0,0,1-2.78,2.1A4.82,4.82,0,0,1,2064.6,357.15Z"/><path d="M2059,347.26a9.06,9.06,0,0,1,5.65-2.35,11.89,11.89,0,0,1,6.15,1.3,12,12,0,0,1,4.62,4.21,9.38,9.38,0,0,1,1.56,5.89c-1.7-1.23-3.07-2.29-4.45-3.22a38.4,38.4,0,0,0-4-2.43,33.23,33.23,0,0,0-4.28-1.85C2062.72,348.26,2061.06,347.81,2059,347.26Z"/><rect class="cls-2" x="1924.45" y="102.5" width="550.08" height="550"/><path class="cls-3" d="M2086.7,592.37q-2.62.78-5.23,1.64Q2084.05,593.07,2086.7,592.37Z"/><path class="cls-3" d="M2079,944.1q.43,4,.73,8Q2079.38,948.12,2079,944.1Z"/><path class="cls-3" d="M2130.86,1202.44c59.89-6.81,120.3-11.85,179.92-20a56.38,56.38,0,0,0,6.83-1.53"/><path class="cls-3" d="M2088.55,591.82l-1.85.55"/><path class="cls-3" d="M2238.86,578.19l-.78.35"/><path class="cls-4" d="M2088.69,1451.14c-4.83,30.16-12.61,59.51-19.33,89.22.77,31.3,2.84,61.68,5.94,93.09,2.68,27.26,4.89,55.58,4.5,83.23-11.62,4.24-23.2,8.41-34.94,12.36-6.94-26.43-15.73-53.92-22.2-80.17-9.05-36.71-10.55-72.29-7.58-109.45-.51-36,1.21-70.31,2.68-106.59,4-99.27,31.47-199.28,68.76-291.31,8-22,21.08-33.77,44.52-26.5s34.38,23.63,28.31,47.18C2134.54,1258.36,2104.38,1353.13,2088.69,1451.14Z"/><path class="cls-5" d="M2079.76,1716.83c5.54,9.4,9.45,18.66,11.44,29.47,1.74,9.44,1.16,18.77-.4,28.24-13,8.73-28.54,16.36-40.5,26.11-33,27-59,61.12-94.5,84.71-9.85-8.93-10.1-26.18-12.31-36.91-3.11-15.18,22-40.71,26.31-44.28,22.64-18.79,34.33-30.79,52.37-48.94,8.3-8.35,15.1-17,22.8-26Q2062.28,1722.94,2079.76,1716.83Z"/><path class="cls-4" d="M2330.94,1320.35a1069,1069,0,0,1-9.19,161.3c.16,42.15-2.32,84-8.55,125.66-5.13,34.26-13.67,67.79-22,101.39-13.47,2.23-26.83,4.55-40.3,6.64,3.07-37.39,4.88-74.91,8.43-112.26,3.79-39.78,6-79.63,9.55-119.52-5.25-40.85-10.92-83.07-15.69-123.73-9.19-78.19-18.32-155.69-19.65-234.29a4.37,4.37,0,0,1,0-1c4.48-23.7,11.85-36.83,37.79-37.53s33.15,12.23,37.8,35.53C2320.29,1188.35,2329.55,1253.37,2330.94,1320.35Z"/><path class="cls-5" d="M2251,1715.25c-3.86,8-4.66,14.38-6.3,23.52-1.42,8-.33,18,2.68,26.1,12,8.26,26.21,17.43,37.25,26.34,30.52,24.63,62.41,45.3,96.39,64.08,9.31-7.22,9.24-18.19,10.9-28.2,2.35-14.18-23.09-36.44-27.58-39.47-23.62-16-31.74-22.76-48.75-42.21-7.82-9-16.27-26-24.27-36.44C2277.71,1710.66,2264.44,1713.45,2251,1715.25Z"/><path class="cls-6" d="M2061.7,722c-20.92,46.68-58,82.49-92.14,118.37-24.4,25.66-43.49,50.93-70.25,72.73-6.5,5.29-10,10-12,17.89-9.62,37.76-20.35,75.34-33,112.14-11.35,33-23.8,65.53-37.62,97.58-1,2.24-.61,4.07.53,6.27.71,1.36,1.87,2.71,2.65,4.3,3.78,4,8.23,13,10.43,17.15,3.84,7.2,13.83,27.49,8.67,32.13s-14.36-20.61-16.67-23.5c-1.14.82-1.82,2.46-2.77,3.83.29,2.17.62,8.32.57,10-.19,6.64,2.15,36.61-4.26,36.87s-6.66-30.27-6.75-36.2c0-.4,0-2.54,0-3-1.64.52-3.3,1-5,1.55.07,1.23-.14,5.2-.21,6.26-.46,7-2.1,40.75-8.84,40.61s-2.3-34.56-2.18-41.1c0-.93.36-4.8.49-5.9-1.69-.63-3.34-1.2-5-1.68-.25,1.16-1.3,5.17-1.6,6.07-2,5.87-9.07,36.89-15.22,34.83s2.82-31.4,4.7-38c.48-1.69,2.27-7.52,3.14-9.54-1.11-1.75-2.36-3.24-3.34-4.9,0,0-.38,1-.43,1.13-1.86,5.43-13.32,36-19.19,33.24s6.7-30.63,9.1-38c1.55-4.74,5.89-14.7,9.46-19.41a11.09,11.09,0,0,0,1-2,7.63,7.63,0,0,0,.8-3.24c3.26-42.52,9.61-85.38,22.7-125.85,13.82-42.71,33.15-82.64,58.74-119.09a38.81,38.81,0,0,0,5-9.06c21.07-49.34,59.06-87.5,92.35-128.61,22.87-28.24,44.32-56.48,67.93-83.92-.09.21.06-.19.07-.22,4.11-24.4,15.36-39.26,41.58-36.89,22.12,2,33.58,13.57,34.89,35.88C2101.64,707.3,2086.85,718.52,2061.7,722Z"/><path class="cls-6" d="M2303.94,651.88c38.21,35.64,64.06,83.21,90.23,126.92,18.72,31.26,38.15,57.78,51.34,90.52,3.2,7.95,6.74,12.3,13,15.82,30,16.75,60.63,33.45,86.42,55.11,23.14,19.44,41.11,41.12,57.61,65.9,1.16,1.74,2.67,2.29,4.94,2.23a40.17,40.17,0,0,1,4.69,0c5.16-1,14.66-.24,19.17,0,7.85.35,30.48,1.49,31.71,8.22s-25.07,2.27-28.81,2.78c.11,1.32,1.14,2.66,1.81,4.09a98.27,98.27,0,0,1,8.88,4.34c5.49,3.49,32.68,16.59,29.51,22.13s-29.43-9.5-34.64-12.53c-.35-.2-2.21-1.24-2.54-1.5-.4,1.64-.9,3.25-1.25,5,1.09.56,4.41,2.76,5.27,3.35,5.7,3.89,34,22.34,30.34,28s-30.87-15.51-36.46-19c-.8-.49-3.94-2.73-4.83-3.41-1.41,1.11-2.76,2.2-4.05,3.39.87.8,3.77,3.73,4.38,4.44,4,4.61,27,26.45,22,30.59s-25.48-18.28-30.23-23.29c-1.21-1.28-5.23-5.75-6.47-7.56-2.06,0-4,.35-5.88.38,0,0,.66.83.75.93,3.55,4.3,23.85,29.72,18.43,33.2s-22.66-21-27.69-26.78c-3.24-3.74-9.14-12.4-11-17.88a10.41,10.41,0,0,0-1.07-1.87,5.89,5.89,0,0,0-2-2.09c-27.88-19.76-55.16-38.7-82.2-60.06-28.54-22.55-58.29-46.81-80.1-76.69a34.14,34.14,0,0,0-7.07-7.38C2375.26,863.34,2348,813,2316.22,768c-21.86-30.9-42.68-60.09-61.7-92.43-.05-.08-.2-.13-.23-.15-22.27-11.87-31.86-27.34-21.41-51.57,8.82-20.44,23.24-27.8,44.83-21.75C2303.3,609.25,2308.33,627.13,2303.94,651.88Z"/><path class="cls-4" d="M2315.12,1110.75c-5.78,77.15-56.77,132.37-136.09,129.08s-128.67-60-132.47-136.79c-.19-3.94,1.16-7.73,1-11.53,88.85-4.23,177.78-5.13,266.54-10.79C2315.2,1090.93,2315.91,1100.23,2315.12,1110.75Z"/><path class="cls-7" d="M2326,1099.25c-.26,21.4-6.72,46.24-16.19,66.52l-.23.44c-4.84,8.18-12.41,13.35-20.38,17.62-1.86,1-9.47,1.39-11.66,1.65-43.64,5.15-120.47,7.76-154.73,10.42s-17,1.39-26.09,2c-28.3,1.8-16.56-2.25-35.59-9.14-4.56-1.65-4-3.85-4.94-5-16.45-20.47-24.38-41.44-28.81-66.48.24-21.86,1.57-43.8,6.92-65,5.7-22.62,15.73-41.06,22.13-64.31,2.93-10.63,5-27.61,5.14-39.72,0,0,0-.33,0-.38,0-2.65-.16-5.42-.17-8.07-.21-54.32,3.71-108.65,5.79-162.9-4.25,3.89-7.85,8.61-11.36,13.08-6.51,8.32-14,15.43-21,23.22-7.79-16.65-15-33.15-26.77-47.47a170.21,170.21,0,0,0-50.39-41.17c20.51-24.5,34.12-49.2,52.2-76.82,8.93-13.64,25.24-31.53,40.31-42.26,9.77-6.95,22.59-13.29,34.07-17.5,2.05-.76,3.82-1.25,5.78-1.88a1.72,1.72,0,0,1,1.06-.13c24.94,17.49,48.32,37.22,72.51,55.62,6.82,5.19,10.43,4.74,17.31-1.26,23.3-20.3,48.19-40.73,79.77-46.71a13.5,13.5,0,0,1,2.91,1.08c.17,0,.41.32.61.38,24.32,8,48,24.49,64.52,42.52,18.43,20.17,34,35.69,53.25,53.69-11.75,17.06-21.11,35.84-36.85,49.63-14.95,13.1-29.38,25-47.92,32.17A116.9,116.9,0,0,0,2271,748.33c-.73,9-2.7,13.41-2.67,25.26-7.85,37.15,16.06,107.73,20.16,135.69s2.42,17.29,3,22a289.91,289.91,0,0,0,7.49,37.5c7.42,28.64,18,48.58,22.94,75.49C2325.57,1063.76,2326.23,1078.23,2326,1099.25Z"/><path class="cls-8" d="M2262,593.08c-13.45,3.14,16.57-3.92-8.1,1.79s-56.07,24.53-72.66,46.34a10,10,0,0,1-1.42.61c-5.9,3.64-11.23,3.09-16.36.46,0,0,3.89,3.29-8.1-7.17s-44.23-36.79-62.37-47.66c.36-3.67,2.53-2.33,5.41-2.68,9.69-1.17,20.46-1.44,30.17-3.11,3.83,3-6-4.76,3.66,3s22.9,20.92,33.95,29.22c6.28,4.72,12.77,4.28,18.9-1.38,10-9.24,25.29-22.29,36-28.72s.06,0,4.07-2.44C2237.47,584.84,2249.49,588.86,2262,593.08Z"/><path class="cls-6" d="M2224.17,581.94c-14,8.06-26.76,20.45-38.86,30.22-7.41,6-11.79,6.59-19.2,1.41-13-9.11-23.93-21.51-36.67-31.13C2161.11,579.26,2192.64,576,2224.17,581.94Z"/><path class="cls-12" d="M2155.81,589.35a226.56,226.56,0,0,0,8.5-45.35c.36-4.42.54-9.24.51-13.58-.27-47.58-16.63-93.33-48-129-13.49-15.33-27.69-25.62-44.61-36.33-1.78-7.18-3.75-12.27-3.49-20.85,1.1-36.67-.81-85.18,1.08-119.46,1.93-34.93,19-56.31,54-57.17,45.07-1.09,102.29-.59,147.41.82,35.08,1.1,51.7,23.28,53.52,57.72,1.6,30.26-1,74.19.06,106.94,15.84,17.85,25.58,38.1,25.23,61.79-.47,32.72-17.55,60.31-46.58,74.94-1.53.77-3,1.14-4.45,1.81a183.32,183.32,0,0,0-81.93,72.76c-8.43,13.87-14.63,29.52-19.63,45"/><path class="cls-13" d="M2325.46,223a88.12,88.12,0,0,1-.31,12.66c-1.9,18.86-14.79,43.33-36.05,43.54A79.38,79.38,0,0,0,2272.71,252a66.72,66.72,0,0,0-10.7-9,57.5,57.5,0,0,0-9.34-5.18c-5.5,9.4-12.44,22.46-20.45,28.84-8.81,7-15.6,9.94-24.74,14.87-2.48-7.84-4.95-16.32-9.47-23.06-4.24-6.32-9.29-9.39-16.61-12-4.76,7.33-25,24-29.76,26.66-11.24,6.17-27.93,6.35-33.45,6.17s-1.26.09-1.3-.09c-2.69-11.72-9.76-24.82-14.62-35.58-4.27,15.5-7,30.62-7.54,46.81a193.22,193.22,0,0,0,3.43,40c-9.79.72-19.23,2.64-29.29,2.56,1.32-33.71-.81-78.59,1.09-109.92,2.11-34.69,18.92-56.07,54.09-57.11,45.24-1.34,102,.1,147.51.55C2307,166.94,2322.06,193.39,2325.46,223Z"/><path d="M2265.92,342.13a18.61,18.61,0,0,1,9.17,1.89,14.92,14.92,0,0,1,4,3,13.14,13.14,0,0,1,1.59,2,22.17,22.17,0,0,1,1.26,2.14,21.36,21.36,0,0,1,1.75,4.68,19.33,19.33,0,0,1,.49,5.11,16.52,16.52,0,0,1-1.12,5.16,15.71,15.71,0,0,1-2.81,4.53,18.56,18.56,0,0,1-4,3.35,17.88,17.88,0,0,1-4.83,2,15.34,15.34,0,0,1-5.27.34,16.43,16.43,0,0,1-5-1.42,19.78,19.78,0,0,1-4.17-2.74,22,22,0,0,1-3.26-3.58c-.47-.66-.88-1.3-1.3-2a9.68,9.68,0,0,1-.91-2.29,22.29,22.29,0,0,1-.62-4.61,42.73,42.73,0,0,0,1.9,4.09,10.84,10.84,0,0,0,1.22,1.7c.47.49,1,1,1.54,1.5a24.8,24.8,0,0,0,3.39,2.57,19,19,0,0,0,3.69,1.73,14.27,14.27,0,0,0,3.82.67,11.89,11.89,0,0,0,3.71-.52,14.36,14.36,0,0,0,6.34-4.09,12,12,0,0,0,3-6.73,17.7,17.7,0,0,0-.09-3.91,21.55,21.55,0,0,0-1-3.94c-.25-.63-.51-1.31-.8-1.9a12.88,12.88,0,0,0-1-1.73,14.07,14.07,0,0,0-2.78-3A24,24,0,0,0,2265.92,342.13Z"/><path class="cls-11" d="M2232.78,336.35c-.07,14.75-10.52,27.1-25.67,27s-25.48-12.56-25.41-27.31,10.53-27.1,25.67-27S2232.86,321.6,2232.78,336.35Z"/><path class="cls-15" d="M2211.93,336.23a4.7,4.7,0,1,1-4.66-5A4.74,4.74,0,0,1,2211.93,336.23Z"/><path class="cls-14" d="M2232.9,341.16c-4.51,13.44-9.29,20.85-24.61,22.62-12.09,1.4-20.34-7.17-25.66-17.55,9.92-9.18,21-12.29,34.35-10.87C2223,336,2227.66,338.39,2232.9,341.16Z"/><path class="cls-11" d="M2344.9,328c.33,3.56-.92,7.15-1.88,10.44-4.86-2.16-9.89-4.13-15.18-4.62-11.78-1.1-21.62,1.1-31.12,8.21-2-4.45-4-9.27-3.52-14.32,1.4-14.73,10.11-27.07,26-27S2343.53,313.24,2344.9,328Z"/><path class="cls-15" d="M2324.28,326.76a4.7,4.7,0,1,1-4.67-5A4.74,4.74,0,0,1,2324.28,326.76Z"/><path class="cls-16" d="M2168.62,310.11c13.13-3.57,33.61-8.32,36.66-24"/><path class="cls-16" d="M2326.11,297.3c-9.72-4-22.59-9-24.26-20.8"/><path class="cls-17" d="M2253.1,381c-1.42,2.43-2.84,4.87-4.27,7.3"/><path class="cls-17" d="M2260.22,382.12q-.25,4.29-.52,8.59"/><path class="cls-17" d="M2267.86,382.2c.38,2.84.77,5.68,1.15,8.52"/><path class="cls-17" d="M2277.61,381.1c.24,2.86.49,5.72.73,8.58"/><path class="cls-17" d="M2285.74,378.53l4.62,7.07"/><path class="cls-14" d="M2291.3,392.13c13.48-3,65.55-19.08,70.51,1.85a4.28,4.28,0,0,1-.06,2.64c-4,12.05-53.79,19-65.43,22.15-14.26,3.89-61,27.92-71.26,16.47a4.32,4.32,0,0,1-1-1.91C2217.79,408,2272.73,396.2,2291.3,392.13Z"/><path class="cls-14" d="M2361.88,390.92a415.44,415.44,0,0,0-71.31,14.61A421.47,421.47,0,0,0,2224,432.42"/><path d="M2361.88,390.92c-11.88,2.27-23.7,4.55-35.43,7.21-5.85,1.37-11.7,2.72-17.5,4.28s-11.59,3.12-17.32,4.89-11.46,3.57-17.14,5.52-11.32,4-17,6.09c-11.25,4.24-22.38,8.83-33.54,13.51A288.86,288.86,0,0,1,2256.35,416c5.55-2.44,11.2-4.63,16.87-6.76s11.45-4,17.25-5.78,11.67-3.32,17.57-4.72,11.83-2.65,17.8-3.66A293.3,293.3,0,0,1,2361.88,390.92Z"/><path class="cls-18" d="M2085.28,367.6c-4.77,4-9.74,7.65-16.51,7.08-13.18-1.12-22.31-10.7-22.24-24.19s9.27-23,22.48-23.92c6.77-.5,11.7,3.2,16.44,7.27"/><path d="M2085.28,367.6a40.12,40.12,0,0,1-5.11,4.7,20.18,20.18,0,0,1-6.4,3.27,17.36,17.36,0,0,1-3.66.59,29.57,29.57,0,0,1-3.67-.14c-.6,0-1.2-.16-1.8-.25a15.83,15.83,0,0,1-1.79-.38c-.59-.16-1.18-.31-1.77-.49l-1.74-.63a23.73,23.73,0,0,1-11.4-9.44,25.93,25.93,0,0,1-3-6.93,28.93,28.93,0,0,1,.07-14.82,26.24,26.24,0,0,1,3-6.9,25,25,0,0,1,5-5.62,24.11,24.11,0,0,1,6.47-3.7l1.75-.62c.59-.17,1.18-.31,1.78-.46a15.33,15.33,0,0,1,1.79-.36c.6-.09,1.2-.21,1.8-.24a29.74,29.74,0,0,1,3.67-.09,18.81,18.81,0,0,1,3.66.63,20.34,20.34,0,0,1,6.35,3.36,40.2,40.2,0,0,1,5.07,4.76c-3.8-2.55-7.72-5.13-12-5.72a16.53,16.53,0,0,0-3.14-.16,27.75,27.75,0,0,0-3.16.47,25.91,25.91,0,0,0-6,2,23.14,23.14,0,0,0-5.16,3.48,20.79,20.79,0,0,0-6.17,10.42,27.08,27.08,0,0,0-.77,6.17,26.48,26.48,0,0,0,.71,6.17,20.85,20.85,0,0,0,6.06,10.5,23.88,23.88,0,0,0,5.13,3.54,26.78,26.78,0,0,0,6,2.08,28.11,28.11,0,0,0,3.17.5,16.53,16.53,0,0,0,3.14-.11C2077.51,372.65,2081.46,370.11,2085.28,367.6Z"/><path class="cls-18" d="M2065.75,355.69a11.74,11.74,0,0,0,4.77-4,12.56,12.56,0,0,0,1.89-4.74"/><path d="M2065.75,355.69a17.49,17.49,0,0,1,1.23-3,12,12,0,0,1,1.23-2,13.35,13.35,0,0,1,1.57-1.68,15.19,15.19,0,0,1,2.63-2,5.21,5.21,0,0,1,1,3.47,5.48,5.48,0,0,1-.38,1.72,5.61,5.61,0,0,1-.88,1.53,6.06,6.06,0,0,1-2.78,2A5.11,5.11,0,0,1,2065.75,355.69Z"/><path d="M2060.24,345.76a9.68,9.68,0,0,1,5.64-2.23,11.62,11.62,0,0,1,6.13,1.32,11.79,11.79,0,0,1,4.59,4.21,10.23,10.23,0,0,1,1.6,5.83c-1.76-1.14-3.14-2.25-4.51-3.18a34.1,34.1,0,0,0-4-2.43,31.49,31.49,0,0,0-4.25-1.85C2063.92,346.87,2062.22,346.43,2060.24,345.76Z"/><path class="cls-14" d="M2343.68,330.83c-4.51,13.44-9.28,20.85-24.61,22.62-12.09,1.4-20.34-7.17-25.66-17.55,9.92-9.18,21-12.29,34.35-10.87C2333.74,325.66,2338.44,328.05,2343.68,330.83Z"/><path class="cls-2" d="M2473.07,653.64c-182.64-.76-365.49-1.45-548.18-5.29,3.81-182.33.8-364.87,1.73-547.57q275.45,1.59,550.88,3.2C2476.58,287.21,2476.83,470.5,2473.07,653.64Z"/><path class="cls-10" d="M2128,564c5.64,4.17,26.95,9.85,52,10,25.67.16,44.43.13,50-4"/><ellipse class="cls-1" cx="3691.76" cy="334.45" rx="250.24" ry="259.67" transform="translate(2679.05 3900.31) rotate(-79.32)"/><ellipse class="cls-9" cx="3691.76" cy="334.45" rx="250.24" ry="259.67" transform="translate(2679.05 3900.31) rotate(-79.32)"/><path class="cls-10" d="M3626.56,576c12.11-2.69,31-8.11,51-7,20.91,1.16,39,8.77,51,13"/><path class="cls-11" d="M3831.9,184.43c7.72,0,7.73-12,0-12s-7.74,12,0,12Z"/><path class="cls-11" d="M3852.84,211.22A147.42,147.42,0,0,1,3889,277.54c1.85,7.5,13.42,4.32,11.57-3.19a159.7,159.7,0,0,0-39.21-71.62c-5.32-5.61-13.8,2.88-8.49,8.49Z"/><rect class="cls-2" x="2990" width="1509" height="2000"/><path class="cls-3" d="M3583.45,598.77q-2.67.56-5.33,1.15C3579.88,599.47,3581.66,599.08,3583.45,598.77Z"/><path class="cls-3" d="M3575.59,945.17c.24,2.59.43,5.17.58,7.76C3576,950.34,3575.79,947.76,3575.59,945.17Z"/><path class="cls-3" d="M3611.39,1204.8c64.8-5,129.36-13.82,193.66-22.12,3.23-.42,4-.87,7-1.49"/><path class="cls-3" d="M3585.33,598.4l-1.88.37"/><path class="cls-3" d="M3732.6,585.78l-.73.43"/><path class="cls-4" d="M3565.71,1457c-.93,36.32-6.59,57.18-11.14,91q5,43.18,12.06,87.82a700.08,700.08,0,0,1,8.24,80.28c-11.41,4.85-22.73,9.65-34.31,14-7.75-24.69-17.91-51.61-25.54-75.8-10.66-33.84-14.35-68.17-14.7-101.64-3.67-42-4.66-62.52-7.06-108.3-6.58-125.25,22.88-193.7,81.32-303.71,11.37-23.18,22.88-33.9,48.06-25.62s35.24,22.93,25.15,49.2C3606.58,1271.54,3568.71,1339,3565.71,1457Z"/><path class="cls-5" d="M3574.85,1716.29c5.59,9.23,10.23,18.23,12.71,28.86,2.16,9.27,1.86,18.64,1,28.11-12.47,9.35-27.57,17.71-39,28-31.61,28.51-56.24,63.59-90.38,89-10.05-8.31-10.55-25.39-13.89-35.7-4.73-14.59,18.64-40.36,22.67-44.25,21.24-20.48,34-33.66,51.34-53,8-8.89,14.14-17.59,21.5-27C3552.05,1725.61,3563.45,1720.91,3574.85,1716.29Z"/><path class="cls-4" d="M3829,1319.47a1426.68,1426.68,0,0,1-.89,160.83c3,42.57,3.5,84.73-1.52,127.09-4.13,34.87-13.25,68.74-20.59,103-13.4,2.53-26.7,5.11-40.07,7.52,1.94-37.53,4.3-75,6.73-112.55,2.58-39.93,2.32-79.72,2.89-119.82-8-40.71-16.36-83.12-22.85-123.82-12.47-78.26-25.07-155.28-25.57-234.4a3.68,3.68,0,0,1,.06-1c6-24.24,11-35.88,38.06-36.32s31.5,10.92,37.6,34.54C3814.31,1189.62,3825.41,1253.15,3829,1319.47Z"/><path class="cls-5" d="M3765.94,1717.79a94,94,0,0,0-5.6,23.94,56.5,56.5,0,0,0,3.42,25.78c12.19,8,26.43,16.86,37.74,25.44a697.68,697.68,0,0,0,98.16,62c8.67-7.25,8.09-18.64,10-28.28,2.74-13.64-22.64-34.66-27-37.71-23.07-16.06-34.24-23.91-51.73-43-8-8.75-16.76-25-24.86-35.23C3792.55,1712.64,3779.37,1715.71,3765.94,1717.79Z"/><path class="cls-6" d="M3556.9,723.75C3538,770.53,3500.15,809,3470.48,848.3c-21.22,28.09-38,55.93-62.3,80.38-5.91,5.93-9,10.71-10.42,18.38-6.56,36.53-13.75,73-23.36,108.61-8.62,32-18.71,62.78-30,93.81-.79,2.17-.25,3.93,1,6,.74,1.26,2.07,2.55,2.91,4,4.09,3.69,8.6,11.55,11.35,15.55,4.78,7,15.77,23.88,10.44,29.85s-14.93-17.66-17.65-20.54c-1.28.74-1.76,2.37-2.57,3.77a88.3,88.3,0,0,1,1.22,9.44c.41,6.71,5.11,34.78-2,35.64s-8.47-28.1-8.89-34.07c0-.41-.24-2.49-.19-2.93a42.51,42.51,0,0,0-4.85,1.88c.19,1.24.18,5,.2,6.13.11,7.08,1.39,39-6.13,39.38s-4.73-32.57-4.87-39.13c0-.94,0-4.67.11-5.79a28.76,28.76,0,0,0-5.13-1.29c-.15,1.18-.94,5-1.17,6-1.48,6.08-5.66,36.1-12.66,34.24s.44-30,2-36.74c.4-1.73,1.67-7.25,2.44-9.28-1.16-1.68-2.46-3-3.65-4.57,0,0-.33,1.08-.37,1.21-1.5,5.45-9.78,35.44-16.46,32.5s4.07-29.26,6.23-36.81c1.39-4.86,4.76-14.3,8-19.18a10.44,10.44,0,0,0,.91-2.07,7.8,7.8,0,0,0,.56-3.19c.62-40.16,3.07-80.33,12.74-119.52a436.07,436.07,0,0,1,48-117.16,41,41,0,0,0,4.35-9.47c17.71-51.34,51.27-95.74,82.12-140,21.18-30.43,43.05-60.54,66.49-89.3-.08.24.08-.26.09-.29,5.29-24.54,13.52-40.71,41.57-36.37,23.66,3.66,34.51,14.94,36,39.18C3598.33,715.23,3582.49,720.69,3556.9,723.75Z"/><path class="cls-6" d="M3798.4,650.93c39.8,33.63,69.64,80.11,98.69,121.77,20.79,29.79,41.2,54.64,56.88,85.87,3.81,7.59,7.47,11.51,13.84,14.51,30.33,14.32,61.1,27.67,87.62,47.39,23.8,17.69,41.53,38.45,58.72,62,1.21,1.65,2.7,2.06,4.88,2a43,43,0,0,1,4.69-.21c5.21-1.24,14-.71,18.75-.83,8.23-.2,28.87-.94,30.94,6.73s-23.3,3.45-27.29,4.14c-.07,1.42,1.05,2.63,1.8,4a82.78,82.78,0,0,1,8.75,3.84c5.78,3.15,32.41,14,29.19,20.35s-28.42-7.6-33.81-10.52c-.37-.2-2.24-1.1-2.59-1.39a42.19,42.19,0,0,0-1.07,5c1.14.49,4.4,2.53,5.3,3.07,5.94,3.58,33.91,19.39,30.05,25.83s-30.14-13.18-35.87-16.61c-.82-.5-3.95-2.48-4.86-3.16a29.51,29.51,0,0,0-3.93,3.54c.92.74,3.78,3.46,4.44,4.14,4.26,4.39,27.5,23.84,22.09,28.66s-25.12-16.13-30.09-21.14a89.92,89.92,0,0,1-6.56-7.09c-2.08,0-3.95.39-5.9.58,0,0,.74.86.82.95,3.72,4.13,24.72,27.14,18.58,31.12s-22.58-18.8-27.8-24.67c-3.37-3.78-9.24-11.63-11.36-17a9.35,9.35,0,0,0-1.16-1.86,6.47,6.47,0,0,0-2-2c-27.49-18.2-54.15-35.21-81.56-54.21-28.93-20.06-58.59-41.13-82.12-68.4a37.32,37.32,0,0,0-7.57-6.87C3884.37,857.91,3853.7,810,3818.77,768c-24-28.88-46.21-57.71-67.2-88.68-.05-.09-.19-.09-.22-.11-23.89-10.39-30.47-22.7-22.39-48,6.8-21.36,17.84-30.93,40.7-26.78C3796.76,609.27,3799.93,625.84,3798.4,650.93Z"/><path class="cls-4" d="M3809,1113.4c-9.74,82.18-59.07,131.06-146,129.68s-128.05-57.83-125.27-143.37c.14-4.39.91-7.48,1.31-11.63,89.63-1.25,179.32.31,268.92-4.35C3808.23,1094.4,3810.34,1102.19,3809,1113.4Z"/><path class="cls-7" d="M3819.69,1102.5c-.46,20.91-7,44.11-15.88,63.87,0,0-.22.41-.26.47-5,7.83-12.36,12.66-20.07,17.26-1.79,1.07-10.7,1.38-13,1.7-45.27,6.26-124.6,10.66-160.16,11.74s-21.16.67-31.41.85c-32.05.54-16-2.67-35.84-10.87-4.76-2-2.94-4-3.65-5.36-12.17-23.11-18.87-43.75-22-69.11,1.53-21.65,3.81-43.82,10-64.5,6.65-22.06,17.1-39.63,24.3-62.08,3.29-10.26,5.61-26,6.18-37.67,0,0,.05-.35.05-.4.07-2.58-.05-5.08,0-7.69,1.14-53.29,5.11-106.49,6-159.8-4.29,3.77-7.78,8.5-11.3,12.87-6.55,8.13-14,15-20.82,22.8-8.27-16.34-15.87-33-27.7-47-14.07-16.71-31.17-29.5-50.32-39.82,20.12-25.75,34-52,52.22-80.22,9-13.93,25.05-30.55,40.42-40.64,10-6.54,22.87-11.24,34.41-14.64,2.06-.61,4-.86,5.94-1.34a1.49,1.49,0,0,1,1.08,0c26.26,19.63,50.51,42.88,76.06,63,7.2,5.66,11.07,5.43,17.23-1.23,20.84-22.54,42-46.5,72-57a10.68,10.68,0,0,1,2.77.62c.16,0,.43.29.64.33,24.78,5.19,47.8,20,65.37,36.85,19.67,18.83,37.21,34.86,57.63,51.93-10.92,17.46-19.37,36.07-33.9,51.06C3832,752.65,3817.45,765,3800,774.52a141,141,0,0,0-27.64-21.18c-.39,10.2-2.28,16.16-1.92,29-9.21,34.71,12.12,100.55,15.65,126.87s2.34,19.73,2.82,24.39a308.37,308.37,0,0,0,6.43,38.32c6.6,28.81,16.48,49.19,20.93,76C3819.48,1067.32,3820.13,1082,3819.69,1102.5Z"/><path class="cls-8" d="M3754.61,596.92c-12.69,5.19,15.3-6.35-8.56,3.31s-50.35,31.84-64.36,55.58a7.11,7.11,0,0,1-1.39.81c-5.87,3.35-9.88,3.77-17-.25,0,0-.9-.93-11-10.26s-44.46-40.64-61.81-51c-.4-4.42,2-2.68,4.93-2.76,9.83-.26,20.69.61,30.52-.11,2.63,2.23-4.48-3.86,4.58,4s23.29,22.41,34.47,30.54c6.36,4.63,12.95,4.3,18.44-1.62,9-9.66,23.41-23.9,32.13-31.14s2.1-1.65,4.47-3.68C3731.46,592.4,3742.88,594.68,3754.61,596.92Z"/><path class="cls-6" d="M3719.08,591.28c-12.39,9.93-24.08,23-35.35,33.49-6.9,6.45-11.17,6.87-18.84,1.68-13.46-9.14-25.15-22.68-37.89-33.17C3657.68,593.32,3688.44,590.33,3719.08,591.28Z"/><path class="cls-12" d="M3651.21,601.79a222.57,222.57,0,0,0,8.18-42.07c.37-4.14.56-8.56.52-12.84a187.09,187.09,0,0,0-50.3-126c-13.69-14.74-28.54-25.1-45.63-35.21-2.05-7.18-4.15-12.3-4.2-20.95-.21-36.95-3.77-86.06-3.11-120.54.67-35.13,16.74-57.48,51.76-59.44,45.05-2.53,101.66-3.92,146.86-3.85,35.14.05,52.27,22,55.24,56.57,2.62,30.35,1.6,75,3.8,107.89,16.44,17.55,26.79,37.75,27.28,61.55.67,32.88-15.14,61.38-43.87,77-1.51.83-2.93,1.24-4.38,1.95-33.93,16.56-60.24,41.93-81.12,73.13-8.93,13.33-15.74,27-20.08,42.5"/><path class="cls-13" d="M3813.11,235.16a91,91,0,0,1,.17,12.81c-1.23,18.88-13.05,44.2-34.37,45.09a80.75,80.75,0,0,0-17.26-26.94,67,67,0,0,0-11-8.72,56.85,56.85,0,0,0-9.49-4.93c-5.12,9.63-11.58,23-19.34,29.75-8.53,7.36-15.18,10.52-24.12,15.8-2.73-7.82-5.5-16.33-10.23-23-4.44-6.23-9.54-9.16-17-11.54-4.46,7.52-24,25-28.69,27.84-11,6.59-27.58,7.3-33.08,7.3s-1.25.13-1.3-.05c-3.09-11.75-10.57-24.72-15.8-35.45-3.7,15.79-5.94,31.12-5.87,47.49a198.26,198.26,0,0,0,4.82,40.28c-9.72,1-19.06,3.29-29.07,3.5.13-34-3.52-79.41-2.76-110.93.83-34.89,16.7-57.18,51.8-59.38,45.16-2.82,101.44-3.14,146.95-4.13C3792.94,179.2,3808.84,205.74,3813.11,235.16Z"/><path d="M3760.45,357.26a18.66,18.66,0,0,1,8.92,2.94,15.13,15.13,0,0,1,3.63,3.43,13.78,13.78,0,0,1,1.36,2.16c.38.76.71,1.49,1,2.27a21.91,21.91,0,0,1,1.24,4.84,20.19,20.19,0,0,1,0,5.15,17.22,17.22,0,0,1-1.63,5,16.41,16.41,0,0,1-3.24,4.25,19.13,19.13,0,0,1-4.36,2.95,17.94,17.94,0,0,1-5,1.51,14.75,14.75,0,0,1-5.3-.24,16.29,16.29,0,0,1-4.8-2,19.58,19.58,0,0,1-3.83-3.22,22.47,22.47,0,0,1-2.84-3.94c-.38-.72-.72-1.39-1.06-2.17a10.27,10.27,0,0,1-.65-2.38,23.62,23.62,0,0,1-.11-4.67,43.14,43.14,0,0,0,1.45,4.29,10.9,10.9,0,0,0,1,1.85c.4.54.89,1.14,1.36,1.67a25.23,25.23,0,0,0,3.08,3,19.35,19.35,0,0,0,3.48,2.17,14.13,14.13,0,0,0,3.72,1.1,11.23,11.23,0,0,0,3.75-.12,14.12,14.12,0,0,0,6.72-3.43,12.13,12.13,0,0,0,3.62-6.45,18.2,18.2,0,0,0,.32-3.93,22.75,22.75,0,0,0-.59-4.05c-.18-.66-.37-1.36-.59-2a12.48,12.48,0,0,0-.8-1.84,14.25,14.25,0,0,0-2.42-3.32A23.79,23.79,0,0,0,3760.45,357.26Z"/><path class="cls-16" d="M3665.2,334.61c13-4.05,33.18-9.55,35.65-25.42"/><path class="cls-16" d="M3813.22,314.69c-9.89-3.77-22.81-8.46-24.86-20.22"/><path class="cls-17" d="M3746.64,397c-1.33,2.5-2.67,5-4,7.51"/><path class="cls-17" d="M3753.76,397.86c-.07,2.9-.14,5.79-.22,8.69"/><path class="cls-17" d="M3761.37,397.71l1.44,8.56"/><path class="cls-17" d="M3771,396.29c.34,2.87.69,5.75,1,8.63"/><path class="cls-17" d="M3779,393.44c1.62,2.32,3.23,4.65,4.85,7"/><path class="cls-14" d="M3790.58,408.5c13.46-3.46,64.59-21.31,70.25-.37a4.38,4.38,0,0,1,0,2.67c-3.55,12.27-52.85,20.84-64.35,24.42-14.08,4.39-59.86,30-70.42,18.85a4.39,4.39,0,0,1-1.08-1.88C3718,426.89,3772.05,413.26,3790.58,408.5Z"/><path class="cls-14" d="M3860.81,405.05a407.08,407.08,0,0,0-70.48,17,417.93,417.93,0,0,0-65.38,29.2"/><path d="M3860.81,405.05c-11.76,2.63-23.46,5.32-35,8.39-5.78,1.57-11.56,3.13-17.28,4.89s-11.44,3.51-17.09,5.47-11.29,3.95-16.87,6.1-11.13,4.4-16.67,6.68c-11.05,4.64-22,9.63-32.91,14.67a295.08,295.08,0,0,1,31.63-17.52c5.43-2.64,11-5,16.56-7.35s11.26-4.39,17-6.36,11.5-3.72,17.33-5.32,11.68-3.06,17.6-4.29A286.46,286.46,0,0,1,3860.81,405.05Z"/><path class="cls-18" d="M3579.12,388.76c-4.63,4.18-9.4,8-16.2,7.66-13.27-.72-22.59-10.21-23-23.7s8.32-23.45,21.54-24.86c6.78-.72,11.77,2.89,16.63,6.81"/><path d="M3579.12,388.76a41.58,41.58,0,0,1-4.94,4.9,19.66,19.66,0,0,1-6.29,3.51,18.07,18.07,0,0,1-3.66.7,32,32,0,0,1-3.67,0,26.66,26.66,0,0,1-7.16-1.59,24.49,24.49,0,0,1-6.52-3.64,25.21,25.21,0,0,1-5.1-5.56,26.24,26.24,0,0,1-3.17-6.84,32.09,32.09,0,0,1-1.18-7.38,31.67,31.67,0,0,1,.72-7.44,26.38,26.38,0,0,1,2.76-7,25,25,0,0,1,4.78-5.85,24.51,24.51,0,0,1,6.32-4,26.92,26.92,0,0,1,7.08-1.95,31.15,31.15,0,0,1,3.66-.22,17.55,17.55,0,0,1,3.69.52,19.89,19.89,0,0,1,6.46,3.18,42.64,42.64,0,0,1,5.2,4.63c-3.88-2.43-7.86-4.94-12.13-5.4a16.49,16.49,0,0,0-3.14-.06,26,26,0,0,0-3.16.58,25.49,25.49,0,0,0-6,2.24,23.79,23.79,0,0,0-5,3.7,22.45,22.45,0,0,0-3.64,4.93,24.35,24.35,0,0,0-2.62,12,27.79,27.79,0,0,0,.92,6.17,23.59,23.59,0,0,0,2.41,5.66,23.11,23.11,0,0,0,3.93,4.73,24.09,24.09,0,0,0,5.21,3.43,26.63,26.63,0,0,0,6.08,1.94,30.1,30.1,0,0,0,3.18.41,16.58,16.58,0,0,0,3.14-.21C3571.54,394.13,3575.38,391.41,3579.12,388.76Z"/><path class="cls-18" d="M3559.25,377.35a11.63,11.63,0,0,0,4.61-4.14,12.75,12.75,0,0,0,1.72-4.85"/><path d="M3559.25,377.35a18.82,18.82,0,0,1,1.12-3.08,12,12,0,0,1,1.14-2,10.31,10.31,0,0,1,.68-.86c.25-.28.52-.58.83-.9a15,15,0,0,1,2.56-2.1,5.28,5.28,0,0,1,1.14,3.44,5.68,5.68,0,0,1-.31,1.73,6.24,6.24,0,0,1-3.52,3.74A5,5,0,0,1,3559.25,377.35Z"/><path d="M3553.42,367.51a9.58,9.58,0,0,1,5.57-2.41,11.7,11.7,0,0,1,6.18,1.16,11.83,11.83,0,0,1,4.69,4.11,10.22,10.22,0,0,1,1.76,5.78c-1.79-1.09-3.21-2.16-4.6-3.06a35.34,35.34,0,0,0-4.05-2.34,31.52,31.52,0,0,0-4.29-1.74C3557.13,368.49,3555.42,368.11,3553.42,367.51Z"/><path class="cls-2" d="M3973.06,645c-184.91,7-366,5-548.91,13.34.12-178.81-3.59-348.85-9-533.62q274.24-7.14,548.49-14.24C3969,295,3962,482.59,3973.06,645Z"/><path d="M3667.56,361.49a40.51,40.51,0,0,1,8.51-9.87,44.12,44.12,0,0,1,11.21-6.91c1-.44,2-.82,3.07-1.21s2.07-.69,3.18-1a35.45,35.45,0,0,1,6.58-1.09,40.39,40.39,0,0,1,13,1.13c-4.24,1-8.38,1.73-12.36,2.75-2,.52-3.94,1.07-5.81,1.74s-3.82,1.44-5.67,2.25a96.34,96.34,0,0,0-10.92,5.52C3674.75,356.87,3671.29,359.22,3667.56,361.49Z"/><path d="M3768.33,331.42a39.87,39.87,0,0,1,12.06-5,44.53,44.53,0,0,1,13.13-1.08c1.1.07,2.19.19,3.28.31s2.16.31,3.28.55a36.89,36.89,0,0,1,6.37,2,41.22,41.22,0,0,1,11.08,6.87c-4.25-1-8.28-2.23-12.29-3.13-2-.43-4-.83-6-1.07s-4.05-.44-6.07-.55a96.11,96.11,0,0,0-12.24,0C3776.84,330.53,3772.69,331.06,3768.33,331.42Z"/><path class="cls-10" d="M3626.56,576c5.64,4.17,26.93,9.84,52,10,25.65.16,44.4.12,50-4"/><ellipse class="cls-1" cx="5183.22" cy="322.45" rx="250.24" ry="259.83" transform="translate(3922.06 5360.23) rotate(-79.51)"/><ellipse class="cls-9" cx="5183.22" cy="322.45" rx="250.24" ry="259.83" transform="translate(3922.06 5360.23) rotate(-79.51)"/><path class="cls-10" d="M5118,564c12.12-2.69,31-8.11,51-7,20.92,1.16,39,8.77,51,13"/><path class="cls-11" d="M5323.45,172.43c7.72,0,7.73-12,0-12s-7.73,12,0,12Z"/><path class="cls-11" d="M5344.42,199.22a147.48,147.48,0,0,1,36.15,66.33c1.84,7.49,13.42,4.32,11.57-3.19a159.6,159.6,0,0,0-39.24-71.62c-5.32-5.62-13.8,2.88-8.48,8.48Z"/><rect class="cls-2" x="4485" width="1510" height="2000"/><path class="cls-12" d="M5145.7,588.87a196.86,196.86,0,0,0,8.39-45.22q.45-6.72.46-13.56c0-50.09-18.49-95.57-48.57-129.08a176.3,176.3,0,0,0-44.66-36,59.45,59.45,0,0,1-3.55-20.3V222.65c0-31.09,23.8-56.52,52.88-56.52h149.66c29.09,0,52.88,25.43,52.88,56.52V331.91a84.28,84.28,0,0,1,25.91,61.41c0,33.78-19.12,62.78-46.42,75.32q-2.2.9-4.38,1.84c-33.77,14.79-62.23,40.57-81.5,73.17a191.75,191.75,0,0,0-19.37,45.22"/><path class="cls-13" d="M5313.19,222.65v13c0,25.43-26.4,46.38-36,43.51A71.73,71.73,0,0,0,5260.84,252a66.33,66.33,0,0,0-10.91-9,63.88,63.88,0,0,0-9.19-5.08c-14.89,24.57-20.62,29.39-20.62,29.39-7.56,6.34-24.33,14.69-24.33,14.69s-4.5-15.68-9.52-23.17c-4.69-7-11.63-10.26-16.39-11.87-21.92,21.8-24.78,24.8-31.2,27.69-15,6.8-33.82,5.87-33.85,5.66h0c.35-.37-3.47-10.09-14.28-35.6a176.82,176.82,0,0,0-3.7,87L5057.77,335V222.65c0-31.09,23.8-56.52,52.88-56.52h149.66C5289.4,166.13,5313.19,191.56,5313.19,222.65Z"/><path d="M5262,346a15.12,15.12,0,0,1,6.92,6.45,17.77,17.77,0,0,1,2.18,9.67,19.43,19.43,0,0,1-1,5,19.66,19.66,0,0,1-2.42,4.6,19.1,19.1,0,0,1-3.71,3.75,18.86,18.86,0,0,1-4.73,2.47,18.6,18.6,0,0,1-5.29.82,18.07,18.07,0,0,1-5.25-.94,17.61,17.61,0,0,1-4.62-2.54,18.36,18.36,0,0,1-3.55-3.77c-3.94-5.67-4-13.4-.48-18.58a17.93,17.93,0,0,0,3.6,16.18,16.83,16.83,0,0,0,3,2.6,15.3,15.3,0,0,0,3.52,1.61,12.73,12.73,0,0,0,7.5-.13,14.69,14.69,0,0,0,9.52-11.54A17.27,17.27,0,0,0,5262,346Z"/><ellipse class="cls-11" cx="5195.79" cy="336.81" rx="25.91" ry="27.69"/><path class="cls-14" d="M5219.79,347.28c-3.86,10.11-13.16,17.22-24,17.22a25.62,25.62,0,0,1-22.18-13.36c7.22-6.55,18.64-10,31-8.49A45.39,45.39,0,0,1,5219.79,347.28Z"/><ellipse class="cls-15" cx="5195.79" cy="336.81" rx="4.76" ry="5.09"/><path class="cls-11" d="M5333.29,327.77a29.19,29.19,0,0,1-1.92,10.47,45.41,45.41,0,0,0-15.18-4.64c-12.36-1.53-23.78,1.95-31,8.5a29,29,0,0,1-3.74-14.33c0-15.3,11.61-27.7,25.92-27.7S5333.29,312.47,5333.29,327.77Z"/><path class="cls-14" d="M5331.37,338.24c-3.86,10.1-13.15,17.22-24,17.22a25.6,25.6,0,0,1-22.18-13.36c7.21-6.55,18.63-10,31-8.5A45.41,45.41,0,0,1,5331.37,338.24Z"/><ellipse class="cls-15" cx="5307.38" cy="327.77" rx="4.76" ry="5.09"/><path class="cls-16" d="M5159.3,313.64c22.42-5.3,36.83-15.26,36.49-24.3"/><path class="cls-16" d="M5313.19,300.43c-15.31-5.56-24.58-13.42-24.31-20.7"/><line class="cls-17" x1="5241.8" y1="381.46" x2="5237.57" y2="388.8"/><line class="cls-17" x1="5248.92" y1="382.52" x2="5248.44" y2="391.13"/><line class="cls-17" x1="5256.54" y1="382.56" x2="5257.73" y2="391.09"/><line class="cls-17" x1="5266.27" y1="381.4" x2="5267.04" y2="389.99"/><line class="cls-17" x1="5274.38" y1="378.78" x2="5279.03" y2="385.83"/><path class="cls-14" d="M5273,402.37c16.71-3.61,69.2-19.08,70.91,1.3a13.19,13.19,0,0,1-.05,2.65c-1.15,10.57-38.39,15.23-65.57,22.61-33.32,9-63.09,29.8-70.86,16.95a16.7,16.7,0,0,1-1-1.91C5196.81,422.29,5250,407.33,5273,402.37Z"/><path class="cls-14" d="M5343.86,400.67a389.18,389.18,0,0,0-71.12,15,396.77,396.77,0,0,0-66.37,27.41"/><path d="M5343.86,400.67c-11.88,2.2-23.68,4.55-35.37,7.31-5.84,1.41-11.67,2.82-17.45,4.43s-11.57,3.21-17.29,5-11.43,3.63-17.1,5.61-11.29,4.06-16.91,6.17c-11.22,4.31-22.3,9-33.37,13.85a268.09,268.09,0,0,1,32.18-16.73c5.52-2.48,11.16-4.7,16.82-6.85s11.42-4.05,17.2-5.87,11.64-3.4,17.52-4.85,11.8-2.76,17.76-3.82A264.78,264.78,0,0,1,5343.86,400.67Z"/><path class="cls-18" d="M5074.16,368.91a22,22,0,0,1-16.39,7.46c-12.56,0-22.74-10.88-22.74-24.3s10.18-24.3,22.74-24.3a22,22,0,0,1,16.39,7.46"/><path d="M5074.16,368.91a21.4,21.4,0,0,1-11.48,8.14,23.17,23.17,0,0,1-3.62.71,30.7,30.7,0,0,1-3.72.11,24.37,24.37,0,0,1-7.3-1.68,24.8,24.8,0,0,1-6.43-3.95,26.09,26.09,0,0,1-4.94-5.74,27.16,27.16,0,0,1-3.08-6.92,27.26,27.26,0,0,1,0-15,27.45,27.45,0,0,1,3.09-6.93,26.09,26.09,0,0,1,4.94-5.74,24.74,24.74,0,0,1,6.43-3.95,24.37,24.37,0,0,1,7.3-1.68,30.7,30.7,0,0,1,3.72.11,23.17,23.17,0,0,1,3.62.71,21.38,21.38,0,0,1,11.48,8.15,23.35,23.35,0,0,0-12-5.76,25.51,25.51,0,0,0-3.25-.24,28.57,28.57,0,0,0-3.21.29,22.8,22.8,0,0,0-6,2,22.21,22.21,0,0,0-8.94,8.6,24.37,24.37,0,0,0-3.19,12,25.91,25.91,0,0,0,.81,6.2,23.65,23.65,0,0,0,2.38,5.77,23.32,23.32,0,0,0,3.84,4.94,23.83,23.83,0,0,0,5.1,3.68,23.17,23.17,0,0,0,6,2,31.11,31.11,0,0,0,3.21.28,23.69,23.69,0,0,0,3.25-.24A23.35,23.35,0,0,0,5074.16,368.91Z"/><path class="cls-18" d="M5054.6,357.15a10.79,10.79,0,0,0,4.76-3.95,12,12,0,0,0,1.85-4.81"/><path d="M5054.6,357.15a24.91,24.91,0,0,1,1.24-3,11.61,11.61,0,0,1,1.2-2,11.46,11.46,0,0,1,1.59-1.74,20.66,20.66,0,0,1,2.58-2,5,5,0,0,1,1.06,3.51,6.1,6.1,0,0,1-1.22,3.23,6.16,6.16,0,0,1-2.78,2.1A4.82,4.82,0,0,1,5054.6,357.15Z"/><path d="M5049,347.26a9.06,9.06,0,0,1,5.65-2.35,11.89,11.89,0,0,1,6.15,1.3,12.13,12.13,0,0,1,4.63,4.21,9.44,9.44,0,0,1,1.55,5.89c-1.7-1.23-3.07-2.29-4.45-3.22a38.4,38.4,0,0,0-4-2.43,33.23,33.23,0,0,0-4.28-1.85C5052.72,348.26,5051.06,347.81,5049,347.26Z"/><rect class="cls-2" x="4914.45" y="102.5" width="550.08" height="550"/><path class="cls-3" d="M5076.7,592.37q-2.62.78-5.23,1.64Q5074,593.07,5076.7,592.37Z"/><path class="cls-3" d="M5069,944.1q.42,4,.72,8Z"/><path class="cls-3" d="M5120.87,1202.44c59.88-6.81,120.29-11.85,179.91-20a56.38,56.38,0,0,0,6.83-1.53"/><path class="cls-3" d="M5078.55,591.82l-1.85.55"/><path class="cls-3" d="M5228.86,578.19l-.78.35"/><path class="cls-4" d="M5078.69,1451.14c-4.83,30.16-12.61,59.51-19.33,89.22.77,31.3,2.84,61.68,5.94,93.09,2.68,27.26,4.89,55.58,4.5,83.23-11.62,4.24-23.2,8.41-34.94,12.36-6.94-26.43-15.73-53.92-22.2-80.17-9.05-36.71-10.55-72.29-7.58-109.45-.51-36,1.21-70.31,2.68-106.59,4-99.27,31.47-199.28,68.76-291.31,8-22,21.09-33.77,44.52-26.5s34.38,23.63,28.31,47.18C5124.54,1258.36,5094.38,1353.13,5078.69,1451.14Z"/><path class="cls-5" d="M5069.76,1716.83c5.54,9.4,9.45,18.66,11.44,29.47,1.74,9.44,1.16,18.77-.4,28.24-12.95,8.73-28.54,16.36-40.5,26.11-33,27-59,61.12-94.5,84.71-9.85-8.93-10.1-26.18-12.31-36.91-3.11-15.18,22-40.71,26.31-44.28,22.64-18.79,34.33-30.79,52.37-48.94,8.3-8.35,15.1-17,22.8-26Q5052.28,1722.94,5069.76,1716.83Z"/><path class="cls-4" d="M5320.94,1320.35a1069,1069,0,0,1-9.19,161.3c.16,42.15-2.32,84-8.55,125.66-5.13,34.26-13.67,67.79-22,101.39-13.47,2.23-26.82,4.55-40.3,6.64,3.07-37.39,4.88-74.91,8.43-112.26,3.79-39.78,6-79.63,9.55-119.52-5.25-40.85-10.92-83.07-15.69-123.73-9.18-78.19-18.32-155.69-19.65-234.29a4.37,4.37,0,0,1,0-1c4.48-23.7,11.85-36.83,37.79-37.53s33.15,12.23,37.8,35.53C5310.29,1188.35,5319.55,1253.37,5320.94,1320.35Z"/><path class="cls-5" d="M5241,1715.25c-3.85,8-4.66,14.38-6.3,23.52-1.42,8-.33,18,2.68,26.1,12,8.26,26.21,17.43,37.26,26.34,30.51,24.63,62.4,45.3,96.38,64.08,9.31-7.22,9.24-18.19,10.9-28.2,2.35-14.18-23.09-36.44-27.58-39.47-23.62-16-31.73-22.76-48.75-42.21-7.82-9-16.27-26-24.27-36.44C5267.71,1710.66,5254.44,1713.45,5241,1715.25Z"/><path class="cls-6" d="M5051.7,722c-20.92,46.68-58,82.49-92.14,118.37-24.4,25.66-43.48,50.93-70.25,72.73-6.5,5.29-10,10-12,17.89-9.62,37.76-20.35,75.34-33,112.14-11.35,33-23.8,65.53-37.62,97.58-1,2.24-.61,4.07.53,6.27.71,1.36,1.87,2.71,2.66,4.3,3.77,4,8.22,13,10.42,17.15,3.84,7.2,13.84,27.49,8.67,32.13s-14.35-20.61-16.67-23.5c-1.14.82-1.82,2.46-2.77,3.83.29,2.17.62,8.32.57,10-.19,6.64,2.15,36.61-4.26,36.87s-6.66-30.27-6.75-36.2c0-.4-.05-2.54,0-3-1.64.52-3.29,1-5,1.55.07,1.23-.13,5.2-.21,6.26-.46,7-2.1,40.75-8.84,40.61s-2.3-34.56-2.18-41.1c0-.93.36-4.8.49-5.9-1.69-.63-3.34-1.2-5-1.68-.25,1.16-1.3,5.17-1.6,6.07-2,5.87-9.07,36.89-15.22,34.83s2.82-31.4,4.7-38c.48-1.69,2.27-7.52,3.14-9.54-1.11-1.75-2.36-3.24-3.34-4.9,0,0-.38,1-.42,1.13-1.87,5.43-13.33,36-19.2,33.24s6.7-30.63,9.1-38c1.55-4.74,5.89-14.7,9.46-19.41a11.09,11.09,0,0,0,1-2,7.48,7.48,0,0,0,.8-3.24c3.26-42.52,9.61-85.38,22.7-125.85,13.82-42.71,33.15-82.64,58.74-119.09a38.81,38.81,0,0,0,5-9.06c21.07-49.34,59.06-87.5,92.35-128.61,22.87-28.24,44.33-56.48,67.94-83.92-.1.21.05-.19.06-.22,4.11-24.4,15.36-39.26,41.58-36.89,22.12,2,33.58,13.57,34.89,35.88C5091.64,707.3,5076.85,718.52,5051.7,722Z"/><path class="cls-6" d="M5293.94,651.88c38.21,35.64,64.06,83.21,90.24,126.92,18.71,31.26,38.14,57.78,51.33,90.52,3.2,7.95,6.74,12.3,13,15.82,30,16.75,60.63,33.45,86.42,55.11,23.14,19.44,41.11,41.12,57.61,65.9,1.16,1.74,2.67,2.29,4.94,2.23a40.17,40.17,0,0,1,4.69,0c5.16-1,14.66-.24,19.17,0,7.85.35,30.48,1.49,31.71,8.22s-25.07,2.27-28.81,2.78c.11,1.32,1.14,2.66,1.81,4.09a98.27,98.27,0,0,1,8.88,4.34c5.49,3.49,32.68,16.59,29.51,22.13s-29.43-9.5-34.64-12.53c-.35-.2-2.21-1.24-2.54-1.5-.4,1.64-.89,3.25-1.25,5,1.09.56,4.41,2.76,5.27,3.35,5.7,3.89,34,22.34,30.34,28s-30.87-15.51-36.46-19c-.8-.49-3.94-2.73-4.83-3.41-1.41,1.11-2.76,2.2-4,3.39.87.8,3.77,3.73,4.38,4.44,4,4.61,27,26.45,22.05,30.59s-25.49-18.28-30.24-23.29c-1.21-1.28-5.23-5.75-6.47-7.56-2.06,0-4,.35-5.88.38,0,0,.66.83.75.93,3.55,4.3,23.85,29.72,18.43,33.2s-22.66-21-27.69-26.78c-3.24-3.74-9.14-12.4-11-17.88a10.41,10.41,0,0,0-1.07-1.87,5.89,5.89,0,0,0-2-2.09c-27.88-19.76-55.15-38.7-82.2-60.06-28.54-22.55-58.29-46.81-80.1-76.69a34.14,34.14,0,0,0-7.07-7.38C5365.26,863.34,5338,813,5306.22,768c-21.86-30.9-42.68-60.09-61.7-92.43-.05-.08-.2-.13-.23-.15-22.27-11.87-31.86-27.34-21.4-51.57,8.81-20.44,23.23-27.8,44.82-21.75C5293.3,609.25,5298.33,627.13,5293.94,651.88Z"/><path class="cls-4" d="M5305.12,1110.75c-5.78,77.15-56.76,132.37-136.09,129.08s-128.67-60-132.47-136.79c-.19-3.94,1.16-7.73,1-11.53,88.85-4.23,177.78-5.13,266.55-10.79C5305.2,1090.93,5305.91,1100.23,5305.12,1110.75Z"/><path class="cls-7" d="M5316,1099.25c-.26,21.4-6.72,46.24-16.19,66.52,0,0-.19.39-.23.44-4.84,8.18-12.41,13.35-20.38,17.62-1.86,1-9.47,1.39-11.66,1.65-43.64,5.15-120.47,7.76-154.73,10.42s-17,1.39-26.09,2c-28.3,1.8-16.56-2.25-35.59-9.14-4.56-1.65-4-3.85-4.94-5-16.45-20.47-24.38-41.44-28.81-66.48.24-21.86,1.57-43.8,6.92-65,5.7-22.62,15.73-41.06,22.13-64.31,2.93-10.63,5-27.61,5.14-39.72,0,0,0-.33,0-.38,0-2.65-.16-5.42-.17-8.07-.21-54.32,3.71-108.65,5.79-162.9-4.25,3.89-7.85,8.61-11.36,13.08-6.51,8.32-14,15.43-21,23.22-7.79-16.65-15-33.15-26.77-47.47a170.21,170.21,0,0,0-50.39-41.17c20.51-24.5,34.12-49.2,52.2-76.82,8.93-13.64,25.24-31.53,40.31-42.26,9.77-6.95,22.6-13.29,34.07-17.5,2-.76,3.82-1.25,5.78-1.88a1.72,1.72,0,0,1,1.06-.13c24.94,17.49,48.32,37.22,72.51,55.62,6.82,5.19,10.43,4.74,17.32-1.26,23.29-20.3,48.18-40.73,79.76-46.71a13.5,13.5,0,0,1,2.91,1.08c.17,0,.41.32.61.38,24.32,8,48.05,24.49,64.52,42.52,18.43,20.17,34,35.69,53.25,53.69-11.75,17.06-21.11,35.84-36.85,49.63-14.94,13.1-29.38,25-47.92,32.17A116.9,116.9,0,0,0,5261,748.33c-.73,9-2.7,13.41-2.67,25.26-7.85,37.15,16.06,107.73,20.16,135.69s2.42,17.29,3.05,22a291.65,291.65,0,0,0,7.49,37.5c7.42,28.64,18,48.58,22.94,75.49C5315.57,1063.76,5316.24,1078.23,5316,1099.25Z"/><path class="cls-8" d="M5252,593.08c-13.45,3.14,16.57-3.92-8.1,1.79s-56.07,24.53-72.66,46.34a10,10,0,0,1-1.42.61c-5.9,3.64-11.23,3.09-16.36.46,0,0,3.89,3.29-8.1-7.17s-44.23-36.79-62.37-47.66c.36-3.67,2.53-2.33,5.41-2.68,9.69-1.17,20.46-1.44,30.17-3.11,3.83,3-6-4.76,3.66,3s22.9,20.92,34,29.22c6.28,4.72,12.77,4.28,18.9-1.38,10-9.24,25.29-22.29,36-28.72s.06,0,4.07-2.44C5227.47,584.84,5239.49,588.86,5252,593.08Z"/><path class="cls-6" d="M5214.17,581.94c-14,8.06-26.76,20.45-38.86,30.22-7.41,6-11.79,6.59-19.2,1.41-13-9.11-23.93-21.51-36.67-31.13C5151.12,579.26,5182.64,576,5214.17,581.94Z"/><path class="cls-12" d="M5145.81,589.35a226.56,226.56,0,0,0,8.5-45.35c.36-4.42.54-9.24.51-13.58-.27-47.58-16.63-93.33-48-129-13.49-15.33-27.69-25.62-44.61-36.33-1.78-7.18-3.74-12.27-3.49-20.85,1.1-36.67-.81-85.18,1.08-119.46,1.93-34.93,19-56.31,54-57.17,45.07-1.09,102.29-.59,147.41.82,35.08,1.1,51.7,23.28,53.52,57.72,1.6,30.26-1,74.19.06,106.94,15.84,17.85,25.58,38.1,25.23,61.79-.47,32.72-17.55,60.31-46.58,74.94-1.53.77-3,1.14-4.45,1.81a183.32,183.32,0,0,0-81.93,72.76c-8.43,13.87-14.63,29.52-19.63,45"/><path class="cls-13" d="M5315.46,223a86.7,86.7,0,0,1-.31,12.66c-1.9,18.86-14.79,43.33-36,43.54A79.38,79.38,0,0,0,5262.71,252a66.72,66.72,0,0,0-10.7-9,57.5,57.5,0,0,0-9.34-5.18c-5.5,9.4-12.44,22.46-20.45,28.84-8.81,7-15.6,9.94-24.74,14.87-2.48-7.84-4.95-16.32-9.47-23.06-4.24-6.32-9.29-9.39-16.61-12-4.76,7.33-25,24-29.76,26.66-11.24,6.17-27.93,6.35-33.45,6.17s-1.26.09-1.3-.09c-2.69-11.72-9.76-24.82-14.62-35.58-4.27,15.5-7,30.62-7.54,46.81a193.23,193.23,0,0,0,3.44,40c-9.8.72-19.24,2.64-29.3,2.56,1.32-33.71-.81-78.59,1.1-109.92,2.1-34.69,18.91-56.07,54.08-57.11,45.24-1.34,102,.1,147.51.55C5297,166.94,5312.06,193.39,5315.46,223Z"/><path d="M5255.92,342.13a18.61,18.61,0,0,1,9.17,1.89,14.92,14.92,0,0,1,4,3,13.14,13.14,0,0,1,1.59,2,22.17,22.17,0,0,1,1.26,2.14,21.36,21.36,0,0,1,1.75,4.68,18.92,18.92,0,0,1,.49,5.11,16.52,16.52,0,0,1-1.12,5.16,15.71,15.71,0,0,1-2.81,4.53,18.56,18.56,0,0,1-4,3.35,17.88,17.88,0,0,1-4.83,2,15.34,15.34,0,0,1-5.27.34,16.43,16.43,0,0,1-5-1.42,19.78,19.78,0,0,1-4.17-2.74,22,22,0,0,1-3.26-3.58c-.47-.66-.88-1.3-1.3-2a9.68,9.68,0,0,1-.91-2.29,23,23,0,0,1-.62-4.61,42.73,42.73,0,0,0,1.9,4.09,10.84,10.84,0,0,0,1.22,1.7c.47.49,1,1,1.55,1.5a24.12,24.12,0,0,0,3.38,2.57,19,19,0,0,0,3.69,1.73,14.27,14.27,0,0,0,3.82.67,11.89,11.89,0,0,0,3.71-.52,14.36,14.36,0,0,0,6.34-4.09,12,12,0,0,0,3-6.73,17.7,17.7,0,0,0-.09-3.91,21.55,21.55,0,0,0-1-3.94c-.25-.63-.51-1.31-.8-1.9a11.88,11.88,0,0,0-1-1.73,14.07,14.07,0,0,0-2.78-3A24,24,0,0,0,5255.92,342.13Z"/><path class="cls-11" d="M5222.79,336.35c-.08,14.75-10.53,27.1-25.68,27s-25.48-12.56-25.41-27.31,10.53-27.1,25.67-27S5222.86,321.6,5222.79,336.35Z"/><path class="cls-15" d="M5201.93,336.23a4.7,4.7,0,1,1-4.66-5A4.74,4.74,0,0,1,5201.93,336.23Z"/><path class="cls-14" d="M5222.9,341.16c-4.51,13.44-9.28,20.85-24.61,22.62-12.09,1.4-20.34-7.17-25.66-17.55,9.92-9.18,21-12.29,34.35-10.87C5213,336,5217.66,338.39,5222.9,341.16Z"/><path class="cls-11" d="M5334.9,328c.34,3.56-.92,7.15-1.87,10.44-4.87-2.16-9.9-4.13-15.19-4.62-11.77-1.1-21.62,1.1-31.12,8.21-2-4.45-4-9.27-3.51-14.32,1.39-14.73,10.1-27.07,26-27S5333.53,313.24,5334.9,328Z"/><path class="cls-15" d="M5314.28,326.76a4.7,4.7,0,1,1-4.67-5A4.74,4.74,0,0,1,5314.28,326.76Z"/><path class="cls-16" d="M5158.62,310.11c13.13-3.57,33.61-8.32,36.66-24"/><path class="cls-16" d="M5316.11,297.3c-9.72-4-22.59-9-24.25-20.8"/><path class="cls-17" d="M5243.1,381c-1.42,2.43-2.84,4.87-4.27,7.3"/><path class="cls-17" d="M5250.22,382.12q-.26,4.29-.52,8.59"/><path class="cls-17" d="M5257.86,382.2c.38,2.84.77,5.68,1.15,8.52"/><path class="cls-17" d="M5267.61,381.1c.24,2.86.49,5.72.73,8.58"/><path class="cls-17" d="M5275.74,378.53l4.62,7.07"/><path class="cls-14" d="M5281.3,392.13c13.48-3,65.55-19.08,70.51,1.85a4.34,4.34,0,0,1-.05,2.64c-4,12.05-53.8,19-65.44,22.15-14.26,3.89-61,27.92-71.26,16.47a4.32,4.32,0,0,1-1-1.91C5207.79,408,5262.73,396.2,5281.3,392.13Z"/><path class="cls-14" d="M5351.88,390.92a415.44,415.44,0,0,0-71.31,14.61A421.47,421.47,0,0,0,5214,432.42"/><path d="M5351.88,390.92c-11.88,2.27-23.7,4.55-35.43,7.21-5.85,1.37-11.7,2.72-17.5,4.28s-11.59,3.12-17.32,4.89-11.46,3.57-17.14,5.52-11.32,4-17,6.09c-11.25,4.24-22.38,8.83-33.54,13.51A288.15,288.15,0,0,1,5246.36,416c5.54-2.44,11.19-4.63,16.86-6.76s11.45-4,17.25-5.78,11.67-3.32,17.57-4.72,11.83-2.65,17.8-3.66A293.3,293.3,0,0,1,5351.88,390.92Z"/><path class="cls-18" d="M5075.28,367.6c-4.77,4-9.74,7.65-16.51,7.08-13.18-1.12-22.31-10.7-22.24-24.19s9.27-23,22.48-23.92c6.77-.5,11.7,3.2,16.44,7.27"/><path d="M5075.28,367.6a40.12,40.12,0,0,1-5.11,4.7,20.24,20.24,0,0,1-6.39,3.27,17.45,17.45,0,0,1-3.67.59,29.33,29.33,0,0,1-3.66-.14c-.61,0-1.21-.16-1.81-.25a15.83,15.83,0,0,1-1.79-.38c-.58-.16-1.18-.31-1.77-.49l-1.73-.63a23.7,23.7,0,0,1-11.41-9.44,25.93,25.93,0,0,1-3-6.93,28.93,28.93,0,0,1,.07-14.82,26.24,26.24,0,0,1,3-6.9,25,25,0,0,1,5-5.62,24.26,24.26,0,0,1,6.47-3.7l1.75-.62c.59-.17,1.18-.31,1.78-.46a15.75,15.75,0,0,1,1.79-.36c.6-.09,1.2-.21,1.8-.24a29.74,29.74,0,0,1,3.67-.09,18.81,18.81,0,0,1,3.66.63,20.34,20.34,0,0,1,6.35,3.36,40.2,40.2,0,0,1,5.07,4.76c-3.8-2.55-7.72-5.13-12-5.72a16.49,16.49,0,0,0-3.14-.16,27.75,27.75,0,0,0-3.16.47,25.91,25.91,0,0,0-6.05,2,23.14,23.14,0,0,0-5.16,3.48,22.26,22.26,0,0,0-3.86,4.75,22.6,22.6,0,0,0-2.31,5.67,27.08,27.08,0,0,0-.77,6.17,26.48,26.48,0,0,0,.71,6.17,20.85,20.85,0,0,0,6.06,10.5,23.88,23.88,0,0,0,5.13,3.54,26.78,26.78,0,0,0,6,2.08,28.11,28.11,0,0,0,3.17.5,16.53,16.53,0,0,0,3.14-.11C5067.51,372.65,5071.46,370.11,5075.28,367.6Z"/><path class="cls-18" d="M5055.75,355.69a11.74,11.74,0,0,0,4.77-4,12.56,12.56,0,0,0,1.89-4.74"/><path d="M5055.75,355.69a17.49,17.49,0,0,1,1.23-3,12,12,0,0,1,1.23-2,13.35,13.35,0,0,1,1.57-1.68,15.19,15.19,0,0,1,2.63-2,5.21,5.21,0,0,1,1,3.47,5.48,5.48,0,0,1-.38,1.72,5.86,5.86,0,0,1-.87,1.53,6.14,6.14,0,0,1-2.79,2A5.11,5.11,0,0,1,5055.75,355.69Z"/><path d="M5050.24,345.76a9.68,9.68,0,0,1,5.64-2.23,11.62,11.62,0,0,1,6.13,1.32,11.79,11.79,0,0,1,4.59,4.21,10.23,10.23,0,0,1,1.6,5.83c-1.76-1.14-3.14-2.25-4.51-3.18a34.1,34.1,0,0,0-4-2.43,31.49,31.49,0,0,0-4.25-1.85C5053.92,346.87,5052.22,346.43,5050.24,345.76Z"/><path class="cls-14" d="M5333.68,330.83c-4.51,13.44-9.28,20.85-24.61,22.62-12.09,1.4-20.34-7.17-25.66-17.55,9.92-9.18,21-12.29,34.35-10.87C5323.74,325.66,5328.45,328.05,5333.68,330.83Z"/><path class="cls-2" d="M5463.07,653.64c-182.64-.76-365.49-1.45-548.18-5.29,3.81-182.33.8-364.87,1.73-547.57q275.45,1.59,550.88,3.2C5466.58,287.21,5466.83,470.5,5463.07,653.64Z"/><path class="cls-10" d="M5118,564c5.64,4.17,27,9.85,52,10,25.67.16,44.43.13,50-4"/><path class="cls-12" d="M660.7,588.87a196.86,196.86,0,0,0,8.39-45.22q.45-6.72.45-13.56C669.54,480,651.06,434.52,621,401a176.3,176.3,0,0,0-44.66-36,59.45,59.45,0,0,1-3.55-20.3V222.65c0-31.09,23.8-56.52,52.88-56.52H775.31c29.08,0,52.88,25.43,52.88,56.52V331.91a84.28,84.28,0,0,1,25.91,61.41c0,33.78-19.12,62.78-46.42,75.32q-2.2.9-4.38,1.84c-33.77,14.79-62.23,40.57-81.5,73.17a191.75,191.75,0,0,0-19.37,45.22"/><path class="cls-13" d="M828.19,222.65v13c0,25.43-26.4,46.38-36,43.51A71.86,71.86,0,0,0,775.84,252a66.33,66.33,0,0,0-10.91-9,63.88,63.88,0,0,0-9.19-5.08c-14.89,24.57-20.62,29.39-20.62,29.39-7.56,6.34-24.33,14.69-24.33,14.69s-4.5-15.68-9.52-23.17c-4.69-7-11.63-10.26-16.39-11.87-21.92,21.8-24.79,24.8-31.2,27.69-15,6.8-33.82,5.87-33.85,5.66h0c.35-.37-3.47-10.09-14.28-35.6a176.82,176.82,0,0,0-3.7,87L572.77,335V222.65c0-31.09,23.8-56.52,52.88-56.52H775.31C804.39,166.13,828.19,191.56,828.19,222.65Z"/><path d="M777,346a15.12,15.12,0,0,1,6.92,6.45,17.77,17.77,0,0,1,2.18,9.67,19.43,19.43,0,0,1-1,5,19.69,19.69,0,0,1-2.43,4.6,16.64,16.64,0,0,1-13.72,7,18,18,0,0,1-5.25-.94,17.45,17.45,0,0,1-4.62-2.54,18.36,18.36,0,0,1-3.55-3.77c-3.95-5.67-4-13.4-.48-18.58a18,18,0,0,0,3.59,16.18,17.25,17.25,0,0,0,3,2.6,15.23,15.23,0,0,0,3.51,1.61,12.76,12.76,0,0,0,7.51-.13,14.69,14.69,0,0,0,9.52-11.54A17.27,17.27,0,0,0,777,346Z"/><ellipse class="cls-11" cx="710.79" cy="336.81" rx="25.91" ry="27.69"/><path class="cls-14" d="M734.79,347.28c-3.86,10.11-13.16,17.22-24,17.22a25.62,25.62,0,0,1-22.18-13.36c7.22-6.55,18.63-10,31-8.49A45.39,45.39,0,0,1,734.79,347.28Z"/><ellipse class="cls-15" cx="710.79" cy="336.81" rx="4.76" ry="5.09"/><path class="cls-11" d="M848.29,327.77a29.41,29.41,0,0,1-1.92,10.47,45.39,45.39,0,0,0-15.19-4.64c-12.35-1.53-23.77,1.95-31,8.5a29,29,0,0,1-3.74-14.33c0-15.3,11.6-27.7,25.91-27.7S848.29,312.47,848.29,327.77Z"/><path class="cls-14" d="M846.37,338.24c-3.86,10.1-13.15,17.22-24,17.22A25.59,25.59,0,0,1,800.2,342.1c7.21-6.55,18.63-10,31-8.5A45.39,45.39,0,0,1,846.37,338.24Z"/><ellipse class="cls-15" cx="822.37" cy="327.77" rx="4.76" ry="5.09"/><path class="cls-16" d="M674.3,313.64c22.41-5.3,36.83-15.26,36.49-24.3"/><path class="cls-16" d="M828.19,300.43c-15.31-5.56-24.58-13.42-24.31-20.7"/><line class="cls-17" x1="756.8" y1="381.46" x2="752.57" y2="388.8"/><line class="cls-17" x1="763.91" y1="382.52" x2="763.44" y2="391.13"/><line class="cls-17" x1="771.54" y1="382.56" x2="772.73" y2="391.09"/><line class="cls-17" x1="781.27" y1="381.4" x2="782.04" y2="389.99"/><line class="cls-17" x1="789.38" y1="378.78" x2="794.03" y2="385.83"/><path class="cls-14" d="M788,402.37c16.71-3.61,69.2-19.08,70.91,1.3a13.19,13.19,0,0,1,0,2.65c-1.15,10.57-38.4,15.23-65.57,22.61-33.32,9-63.09,29.8-70.86,16.95a16.82,16.82,0,0,1-1-1.91C711.81,422.29,765,407.33,788,402.37Z"/><path class="cls-14" d="M858.86,400.67a389.18,389.18,0,0,0-71.12,15,396.77,396.77,0,0,0-66.37,27.41"/><path d="M858.86,400.67c-11.88,2.2-23.68,4.55-35.37,7.31-5.84,1.41-11.67,2.82-17.46,4.43s-11.56,3.21-17.28,5-11.43,3.63-17.1,5.61-11.29,4.06-16.91,6.17c-11.22,4.31-22.3,9-33.37,13.85a268.71,268.71,0,0,1,32.17-16.73c5.53-2.48,11.17-4.7,16.83-6.85s11.42-4.05,17.2-5.87,11.64-3.4,17.52-4.85,11.8-2.76,17.76-3.82A264.59,264.59,0,0,1,858.86,400.67Z"/><path class="cls-18" d="M589.16,368.91a22,22,0,0,1-16.39,7.46c-12.56,0-22.74-10.88-22.74-24.3s10.18-24.3,22.74-24.3a22,22,0,0,1,16.39,7.46"/><path d="M589.16,368.91a21.4,21.4,0,0,1-11.48,8.14,23.17,23.17,0,0,1-3.62.71,30.7,30.7,0,0,1-3.72.11,24.37,24.37,0,0,1-7.3-1.68,24.8,24.8,0,0,1-6.43-3.95,26.09,26.09,0,0,1-4.94-5.74,27.16,27.16,0,0,1-3.08-6.92,27.26,27.26,0,0,1,0-15,27.45,27.45,0,0,1,3.09-6.93,25.83,25.83,0,0,1,4.94-5.74,24.74,24.74,0,0,1,6.43-3.95,24.37,24.37,0,0,1,7.3-1.68,30.7,30.7,0,0,1,3.72.11,23.17,23.17,0,0,1,3.62.71,21.38,21.38,0,0,1,11.48,8.15,23.35,23.35,0,0,0-12-5.76,25.51,25.51,0,0,0-3.25-.24,28.36,28.36,0,0,0-3.21.29,22.8,22.8,0,0,0-6,2,23.72,23.72,0,0,0-5.09,3.67,23.23,23.23,0,0,0-3.85,4.93,24.16,24.16,0,0,0-3.19,12,25.91,25.91,0,0,0,.81,6.2,23.65,23.65,0,0,0,2.38,5.77,23.32,23.32,0,0,0,3.84,4.94,23.83,23.83,0,0,0,5.1,3.68,23.22,23.22,0,0,0,6,2,31.3,31.3,0,0,0,3.22.28,23.81,23.81,0,0,0,3.25-.24A23.35,23.35,0,0,0,589.16,368.91Z"/><path class="cls-18" d="M569.6,357.15a10.79,10.79,0,0,0,4.76-3.95,12,12,0,0,0,1.85-4.81"/><path d="M569.6,357.15a24.91,24.91,0,0,1,1.24-3,11.61,11.61,0,0,1,1.2-2,11.46,11.46,0,0,1,1.59-1.74,20.66,20.66,0,0,1,2.58-2,5,5,0,0,1,1,3.51,6,6,0,0,1-1.21,3.23,6.16,6.16,0,0,1-2.78,2.1A4.82,4.82,0,0,1,569.6,357.15Z"/><path d="M564,347.26a9.06,9.06,0,0,1,5.65-2.35,11.89,11.89,0,0,1,6.15,1.3,12,12,0,0,1,4.62,4.21,9.38,9.38,0,0,1,1.56,5.89c-1.7-1.23-3.07-2.29-4.45-3.22a38.4,38.4,0,0,0-4-2.43,33.23,33.23,0,0,0-4.28-1.85C567.72,348.26,566.06,347.81,564,347.26Z"/><rect class="cls-2" x="429.45" y="102.5" width="550.08" height="550"/><path class="cls-10" d="M633,564c5.64,4.17,26.95,9.85,52,10,25.67.16,44.43.13,50-4"/></g></g></svg>
